<svg id="Capa_1" data-name="Capa 1" xmlns="http://www.w3.org/2000/svg" viewBox="0 0 258.26 150.36"><defs><style>.cls-1{fill:#99c21d;}.cls-2{fill:#193966;}.cls-3{fill:#e0082b;}</style></defs><polygon class="cls-1" points="11.16 115.97 11.16 72.61 42.83 68.59 42.83 78.19 24.7 80.48 24.7 87.71 39.55 85.83 39.55 94.77 24.7 96.65 24.7 104.66 43.69 102.26 43.69 111.85 11.16 115.97"/><path class="cls-1" d="M65.44,109.09V89.64c0-2.23-.59-2.68-1.45-2.57-1.38.17-2.76,1.4-4.27,3.23v19.52l-13.14,1.66V80.86L59.72,79.2v3.41c2.43-2.34,6.44-5.41,9.92-5.85,5.06-.64,8.94,1.62,8.94,9.11v21.55Z"/><path class="cls-1" d="M97.63,106.12c-12.35,1.57-16.75-6.22-16.75-14.76,0-9.72,7.56-16.92,17.28-18.16s14.39,4.16,14.65,12.54l.13,4.51-18.86,2.4c0,2.62,2.5,4.47,5.85,4,3.68-.47,5.79-1.26,9.73-3.6L113,101c-6.24,2.83-6.7,4-15.38,5.1M98,81.18c-2.3.29-3.74,2.91-3.74,5.47l6.57-.83c0-2.9-.79-4.9-2.83-4.64"/><path class="cls-1" d="M136,81.68a3.82,3.82,0,0,0-3.94-1.6c-2.5.31-3.29,2.65-3.29,6.92v14.06l-13.14,1.66V72.1l12.09-1.53.26,4a7.71,7.71,0,0,1,6-5.35,6.52,6.52,0,0,1,6.24,2Z"/><path class="cls-1" d="M168.79,71.81A8.2,8.2,0,0,1,170,76.05c0,10.12-7.88,13.28-14.85,14.17-.85.11-3.15.14-3.74.15-.92,1-2,2.22-2,3.15,0,.52.86.87,2,.72l12.68-1.61c6.64-.84,9.46.64,9.46,6,0,7.09-7.69,14.37-20.24,16-9.72,1.23-15.18-1.3-15.18-4.91,0-1.91,2.37-6.08,5-8.72-2.7-.12-4.73-1.44-4.73-3.21,0-2.63,4.6-6.63,6.77-8.48-3.81-1.16-5.92-5-5.92-8.84,0-7.75,7.1-13.32,15.71-14.41a26.44,26.44,0,0,1,7.68.4l4.21-.53,7.16-1.43v6.7ZM159.73,100l-9.2,1.16c-.73,1-1.78,2.39-1.78,4s3,2.32,5.79,2c3.94-.5,7.09-2.47,7.09-5.5a1.49,1.49,0,0,0-1.9-1.59m-4.8-27c-2.43.31-3,2.94-3,5.64s.66,4.91,3.09,4.6,3.09-2.76,3.09-5.45-.73-5.1-3.16-4.79"/><path class="cls-1" d="M176.29,95V64.42l13.14-1.67V93.37Zm10.9-35L178,61.18l6.91-12.64,10.57-1.34Z"/><path class="cls-1" d="M224.18,89a50,50,0,0,1-6,1.36c-2.76.35-5.25-.19-6.57-2.12a16.77,16.77,0,0,1-9.2,4.64c-5.71.73-10.18-1.86-10.18-7,0-2.83.39-7.35,8.54-10.48l8.67-3.33V68.56c0-2-.39-2.71-2.42-2.38-1.59.26-2.11,1.12-2.11,1.64a2.45,2.45,0,0,0,.13,1l-11.1,3.38A5.91,5.91,0,0,1,193,69c0-4.73,4.87-8.43,15.64-9.8,9.07-1.15,13.87,1.6,13.87,8.56V80c0,2.17.39,2.64,2.49,2.58-.79,6.4-.86,6.41-.86,6.41M209.4,78.35l-4.6,1.77a7.55,7.55,0,0,0-.52,3c0,1.57.72,2.6,2,2.43a5.08,5.08,0,0,0,3.08-2Z"/><path class="cls-2" d="M57.49,73.48C52.89,74.06,47,70.77,47,66.67c0-4.49,4-18.58,6.76-28.13.22-.86.72-1.26,1.22-1.32,1.05-.13,4.71,1.45,4.71,2.4A6.77,6.77,0,0,1,59.32,41c-1.22,4.59-2.66,9.38-2.66,9.38s3.05-3.27,6.32-3.69c2.44-.31,6.37,2.13,6.37,5a36.07,36.07,0,0,1-3,12.75,3.86,3.86,0,0,0,1.45,0c3.93-.5,6.54-6.26,6.54-6.26s.49-1.06,1.16-1.15,2,.64,2,1.3a6.39,6.39,0,0,1-.78,2s-3.38,7-10.42,7.86c-.67.09-1.44.19-2.22.23-1.72,2.43-4.1,4.62-6.54,4.93m-1.88-3.7a4.74,4.74,0,0,0,2.33-1.68c-.89-.33-1.45-.76-1.45-1.31,0-1.17,2.22-3.61,3.44-3.76.17,0,.39,0,.55,0a31.8,31.8,0,0,0,2.28-9.65,2.11,2.11,0,0,0-2.11-2c-1.38.17-4.32,2.65-5.21,5.15C54.28,59.75,53,64.35,53,67.4a2.42,2.42,0,0,0,2.61,2.38"/><path class="cls-2" d="M87,65.8s-5.27,4.6-7.37,4.87c-2.88.36-7.21-2.14-7.21-4.46,0-2.61,3.77-16.61,4.88-20.25.33-.81.72-1.14,1.22-1.2,1-.14,4.71,1.34,4.71,2.34a5.52,5.52,0,0,1-.22,1.36c-.39,1.49-3.93,13.8-3.93,16.35a1.65,1.65,0,0,0,1.49,1.36c2.22-.28,6.32-5.68,6.82-7.52,1.38-4.66,3.21-12,3.93-14.46A1.46,1.46,0,0,1,92.53,43c1.11-.14,4.77,1.33,4.77,2.33a5.53,5.53,0,0,1-.23,1.36c-.49,1.5-4.21,14-4.21,16.94A1.6,1.6,0,0,0,94.36,65c1.6-.21,4.65-4.86,7.37-10.19,0,0,.5-1.06,1.22-1.15s1.88.64,1.88,1.31a6.62,6.62,0,0,1-.72,2c-3.1,5.94-6.32,11.39-10.31,11.9-2.49.31-6.37-1.52-6.76-3.08"/><path class="cls-2" d="M112,40.52c2.83-.36,7.93,1.76,7.93,4.15,0,2.77-3.55,12.09-7.15,12.55a21.55,21.55,0,0,1-5.21-.12,7.32,7.32,0,0,0-.45,2.77c0,1.33,2.38,3.08,4.77,2.78,3-.38,7.37-3,11-10.54,0,0,.45-1,1.17-1.15s1.88.65,1.88,1.32a7,7,0,0,1-.66,2c-3.77,7.63-8.6,11.68-13.08,12.25-4.88.62-11.59-2.14-11.59-6.46,0-6.26,6.27-18.92,11.42-19.57m3.55,5.26c0-.78-.89-1.27-1.67-1.18-2.16.28-5.43,7.29-5.93,10,5.32-.68,7.6-7.29,7.6-8.78"/><path class="cls-2" d="M142.15,58.92c1.66-.21,4.65-4.86,7.37-10.19,0,0,.5-1.06,1.22-1.15s1.88.64,1.88,1.31a6.62,6.62,0,0,1-.72,2c-3.05,5.93-6.32,11.39-10.31,11.9-2.49.31-7.48-1.38-7.48-3.88,0-3.55,3.1-12.81,3.1-14.91a1.72,1.72,0,0,0-1.66-1.68c-1.16.15-4.27,1.93-5.1,4.14-1.44,3.84-4,15.36-4.32,17-.22.75-.39,1.33-1.22,1.43-1.27.16-4.55-.81-4.55-2.31s4.22-18.76,5.38-22.68a2.26,2.26,0,0,1,1.89-1.4c.94-.12,3.54,2.81,3.54,2.81s5.44-4,8.31-4.32c1.67-.21,4.66,1.68,4.66,3.74,0,2.6-3.44,13.84-3.44,16.78a1.62,1.62,0,0,0,1.45,1.37"/><path class="cls-2" d="M178.13,44.11c.72-.1,1.88.64,1.88,1.31a6.73,6.73,0,0,1-.72,2c-3,5.93-6.32,11.39-10.31,11.89-2.49.32-7.1-1.2-7.54-2.7,0,0-3.32,4.08-6.15,4.44-2.55.32-7.15-2.59-7.15-5.58,0-7.32,6.59-20.4,11.64-21a9,9,0,0,1,7.26,2.4c1.44-.18,4.76-.21,4.76,1.17C171.8,40,168,49.65,168,54.09a1.65,1.65,0,0,0,1.49,1.36c1.67-.21,4.66-4.86,7.37-10.19,0,0,.51-1.06,1.23-1.15m-16.3-5.48c-2.77.35-7.21,11.17-7.21,16a1.85,1.85,0,0,0,1.94,2c1.11-.14,3.88-2.43,5.44-5.84a50.85,50.85,0,0,0,2.82-11c0-.89-2.1-1.34-3-1.23"/><path class="cls-2" d="M10.91,64.5c0-4.31,2.25-10.51,5-10.86,1.5-.19,3.3,1.12,3.3,2.36s-.84,3.86-1.3,3.92-1.73-.77-1.73-1.29a17.92,17.92,0,0,1,.62-2.3.2.2,0,0,0-.21-.16c-.89.12-2.18,4.44-2.18,7.83a1.36,1.36,0,0,0,1.27,1.44c1.21-.16,3.19-1.67,4.72-5.16,0,0,.22-.58.5-.62a.87.87,0,0,1,.79.76,4.34,4.34,0,0,1-.31,1.12c-1.67,3.75-3.92,6.38-6.13,6.66a4,4,0,0,1-4.35-3.7"/><path class="cls-2" d="M28,64.49c-.27,0-.59.07-.91.08C26.36,66,25.42,66.91,24.47,67c-1.6.21-4.44-1.47-4.44-3.68,0-4.28,2.16-10.5,4.92-10.85,2-.26,4.41,1.69,4.41,3.59A19.4,19.4,0,0,1,28.25,62a1.17,1.17,0,0,0,.59,0c1.37-.17,2.44-3.14,2.44-3.14s.2-.58.48-.61a.91.91,0,0,1,.82.76,4.13,4.13,0,0,1-.32,1.11s-1.57,4-4.24,4.33m-4,0c.16,0,.3-.16.48-.43a.72.72,0,0,1-.25-.61A3.7,3.7,0,0,1,25.79,61a18.39,18.39,0,0,0,.93-5.17.68.68,0,0,0-.7-.62c-.78.1-2.58,5-2.58,8.49,0,.65.41.84.57.82"/><path class="cls-2" d="M39.46,62.48c.68-.08,1.89-2.08,3-5,0,0,.2-.58.5-.62a.9.9,0,0,1,.77.77,4.45,4.45,0,0,1-.29,1.11C42.19,62,40.85,65,39.21,65.17c-1,.12-3.3-.88-3.3-2.27,0-2,1.27-7.06,1.27-8.23,0-.27-.2-.59-.45-.56a2.49,2.49,0,0,0-1.67,1.72c-.61,2.12-1.63,8.47-1.77,9.38a1.07,1.07,0,0,1-.87.81c-.52.07-2.16-.49-2.16-1.32S32,54.35,32.47,52.19a1.16,1.16,0,0,1,.93-.76c.53-.07,1.53,1.31,1.53,1.31S37.05,51,38.35,50.8A2.57,2.57,0,0,1,40.69,53c0,1.44-1.41,7.53-1.41,9.17,0,.12.07.33.18.31"/><path class="cls-3" d="M203.57,108.72a45.09,45.09,0,0,1-9.39-1,3.16,3.16,0,1,1,1.33-6.18A38.44,38.44,0,0,0,241.1,72.05a3.16,3.16,0,1,1,6.18,1.32,44.8,44.8,0,0,1-43.71,35.35"/></svg>