<?xml version="1.0" encoding="utf-8"?>
<!-- Generator: Adobe Illustrator 24.2.3, SVG Export Plug-In . SVG Version: 6.00 Build 0)  -->
<svg version="1.1" id="Capa_1" xmlns="http://www.w3.org/2000/svg" xmlns:xlink="http://www.w3.org/1999/xlink" x="0px" y="0px"
	 viewBox="0 0 258.3 147.6" style="enable-background:new 0 0 258.3 147.6;" xml:space="preserve">
<style type="text/css">
	.st0{clip-path:url(#SVGID_2_);}
	.st1{opacity:0.7;}
	.st2{clip-path:url(#SVGID_4_);}
	.st3{fill:#2FAC66;}
	.st4{fill:#81368B;}
	.st5{fill:#94C11F;}
	.st6{fill:#FFFFFF;}
	.st7{fill:none;}
</style>
<g>
	<defs>
		<rect id="SVGID_1_" x="38.7" y="-3.7" width="189.7" height="151.9"/>
	</defs>
	<clipPath id="SVGID_2_">
		<use xlink:href="#SVGID_1_"  style="overflow:visible;"/>
	</clipPath>
	<g class="st0">
		<g class="st1">
			<g>
				<defs>
					<rect id="SVGID_3_" x="114.9" y="1.6" width="98.9" height="98.1"/>
				</defs>
				<clipPath id="SVGID_4_">
					<use xlink:href="#SVGID_3_"  style="overflow:visible;"/>
				</clipPath>
				<g class="st2">
					<path class="st3" d="M125.2,21.1c0.2-1.7,0.3-3.6,2.6-3.5c2,0.2,3.6,1,3.4,3.5c-0.2,2-0.6,4.1-2.9,4.1
						C125.8,25.4,125.5,23,125.2,21.1"/>
					<path class="st3" d="M140.1,12.5c-1.6,1.4,1.6,5.3-2.7,5.7c-2,0.2-2.6-1.1-2.4-2.7c0.4-2.3,0.1-5.2,3.2-5.8
						C139.7,9.5,140.1,10.9,140.1,12.5"/>
					<path class="st3" d="M181,49.4c-0.1-2.2,0.4-3.7,2.4-3.4c1.6,0.2,3.4,0.8,3.2,3c-0.2,1.8-1.1,3.5-3.2,3.5
						C181,52.6,181.2,50.6,181,49.4"/>
					<path class="st3" d="M145.6,26.7c-0.6,1.7-0.9,3.6-3.1,3.2c-1.5-0.3-3-1.2-2.6-3.2s1.3-3.8,3.5-3.7S145.3,25.3,145.6,26.7"/>
					<path class="st3" d="M163.4,18.2c-2.2,0.1-2.9-1.3-2.8-3s1-3.2,3.1-3.2s2.6,1.4,2.6,3.1C166.3,17,165.4,18.2,163.4,18.2"/>
					<path class="st3" d="M136.2,68.6c-0.4,1.8-0.5,4.9-3.2,4.9c-2,0-1.4-3-1.3-4.4s0.5-3.6,2.4-3.7c1.3,0,2.3,1,2.3,2.3
						C136.4,68,136.3,68.3,136.2,68.6"/>
					<path class="st3" d="M120.8,39.5c-0.1,1.4,0.6,3.6-1.7,3.8s-2.7-2.2-2.8-3.8s0.5-3.8,2.8-3.8S120.7,37.8,120.8,39.5"/>
					<path class="st3" d="M134.7,33.5c-0.7,1.5,0,3.8-2.3,4c-2,0.2-2.5-1.4-2.5-3.1c0.1-2.2,0.4-4.6,2.9-4.7
						C134,29.7,133.9,32.3,134.7,33.5"/>
					<path class="st3" d="M190.9,38.6c-1.3-0.7-2.8-1.2-2.7-3.2s1.2-3.2,3-3.2c1.5-0.1,2.7,1,2.8,2.5c0,0.2,0,0.3,0,0.5
						C194,36.9,192.6,38.4,190.9,38.6"/>
					<path class="st3" d="M157.5,5.5c0.6-2,1.3-3.9,3.7-3.9c1.2,0,2.2,1.3,1.7,2.2c-1,1.7-0.2,4.9-3.4,4.9
						C157.7,8.7,157.6,6.9,157.5,5.5"/>
					<path class="st3" d="M176.6,43.6c-0.4,1.8-0.8,3.9-3.3,3.7c-2-0.1-2.3-2-2.1-3.5c0.3-2.1,2-2.7,4-2.6
						C176.6,41.4,176.9,42.4,176.6,43.6"/>
					<path class="st3" d="M159.8,87.1c0.1-2,0.6-3.6,2.9-3.7c1.1-0.1,2.5,0,2.1,1.7c-0.4,1.8-0.3,4.3-2.9,4.6
						C160.1,90,159.9,88.5,159.8,87.1"/>
					<path class="st3" d="M189.9,85.1c0.2-1.2,0.5-3,2.5-2.8c1.6,0.2,2.8,1.6,2.6,3.2c-0.2,1.5-1.5,2.7-3.1,2.6
						C190.3,88,189.7,87,189.9,85.1"/>
					<path class="st3" d="M167.8,74c-0.2,1.5-0.9,3.2-2.7,3.4s-1.9-1.6-1.8-2.8c0.1-1.7,0.2-3.8,2.6-3.7
						C167.5,70.9,167.7,72.4,167.8,74"/>
					<path class="st3" d="M154.1,56.5c0.6-1.1-0.6-3.3,2-3.4c2,0,2.8,1.3,2.9,2.9s-1,2.8-2.9,2.9S154.3,57.9,154.1,56.5"/>
					<path class="st3" d="M128.8,79.8c0.2,2.3-0.4,3.6-1.9,3.6c-1.5,0-2.7-1.2-2.7-2.7c0-0.1,0-0.2,0-0.4c0.1-1.4,0.8-3.2,2.7-3.1
						C129,77.1,128.6,79.1,128.8,79.8"/>
					<path class="st3" d="M155.9,19.8c-0.2,1.6-1,3.1-2.9,3.1c-1.3,0-2.4-1.1-2.4-2.4c0-0.1,0-0.1,0-0.2c0.1-1.4,0.4-3.3,2.5-3.1
						C154.5,17.2,156,17.7,155.9,19.8"/>
					<path class="st3" d="M200.2,29.3c0.3-1.4,0.1-3.3,2.1-3.4c1.6,0,2.5,1.3,2.5,2.9c0,1.7-0.5,3.4-2.6,3.4
						C200.4,32.2,200.4,30.6,200.2,29.3"/>
					<path class="st3" d="M136,55.2c-0.3,1.7-0.9,3.5-2.9,3.7c-1.7,0.2-1.8-1.2-1.8-2.5c-0.1-2,1.4-3.7,3.4-3.8
						C136.2,52.5,135.8,54.1,136,55.2"/>
					<path class="st3" d="M146.2,58.8c-0.1,1.6-0.2,3.2-2.1,3.2s-2.3-1.8-2.4-3.3c0-1.4-0.2-3.1,2-3S146,57.5,146.2,58.8"/>
					<path class="st3" d="M121.1,53.5c-0.2,1.6-0.7,3.3-2.6,3.3c-2.3,0-1.9-2.1-2-3.4c-0.3-1.2,0.5-2.4,1.7-2.7
						c0.3-0.1,0.5-0.1,0.8,0C120.8,50.7,120.9,52.1,121.1,53.5"/>
					<path class="st3" d="M179.1,20.1c-0.1,1.8-1,3-2.8,3s-2.4-1.6-2.3-3c0.1-1.8,1.9-2.3,3.3-2.5C178.9,17.4,179,18.9,179.1,20.1"
						/>
					<path class="st3" d="M186.1,92.3c-0.3,2.2-1,3.7-3,3.7s-1.9-1.9-1.9-3.2c0-1.7,1.3-2.5,2.9-2.5
						C185.2,90.2,186.1,91.1,186.1,92.3C186.1,92.2,186.2,92.2,186.1,92.3"/>
					<path class="st3" d="M183.1,72.6c0.6-1,0-3,1.8-2.5c1.3,0.4,3.6,0.4,3.2,2.9c-0.2,1.5-1.2,2.7-2.8,2.6S183.2,74.1,183.1,72.6"
						/>
					<path class="st3" d="M195,74.9c0.1-1.3,0.2-2.8,2.2-2.9c1.7,0,2.6,1.1,2.5,2.8c0.1,1.5-1,2.7-2.4,2.9c0,0-0.1,0-0.1,0
						C195.3,77.8,195,76.5,195,74.9"/>
					<path class="st3" d="M155.3,73c-0.1,2.1-1,3.3-2.7,3.4c-2,0.1-2.1-1.5-2.2-3c-0.2-2,0.9-2.5,2.6-2.5S155.4,71.6,155.3,73"/>
					<path class="st3" d="M201.4,44.1c1.2-0.1,2.3,0.8,2.4,2.1c0,0.2,0,0.3,0,0.5c-0.1,1.5-0.8,3-2.4,3.1c-2.1,0.1-2.4-1.7-2.5-3.2
						C198.7,44.9,200,44.3,201.4,44.1"/>
					<path class="st3" d="M139.7,74c0.3-1.2-0.1-3.1,1.9-3.2c1.2-0.1,2.3,0.9,2.4,2.1c0,0.2,0,0.3,0,0.5c-0.1,1.5-0.3,3.3-2.3,3.5
						S139.9,75.4,139.7,74"/>
					<path class="st3" d="M143.3,42.5c-0.1,1.4-0.4,3-2,2.8s-2.3-2.1-2.3-3.5c0-1.2,0.8-3,2.3-2.7S143.3,40.9,143.3,42.5"/>
					<path class="st3" d="M159,31.8c-0.1,1.7-0.1,3.5-2.2,3.5c-1.7,0-1.9-1.7-2-2.9c-0.1-1.6,0.6-3.3,2.4-3.4S158.7,30.8,159,31.8"
						/>
					<path class="st3" d="M205.7,55.3c2,0.1,2.1,1.6,2.2,2.8s-0.2,3-2.2,3.2c-2.2,0.2-2-1.6-2.2-2.9c-0.3-1.4,0.7-2.8,2.1-3
						C205.7,55.3,205.7,55.3,205.7,55.3"/>
					<path class="st3" d="M190.3,60c-0.3-1.9,0.5-2.7,2.2-2.6c1.2,0,2.7,0.1,2.7,1.7c0.1,1.7-1.3,3.2-3,3.4
						C190,62.8,190.5,61,190.3,60"/>
					<path class="st3" d="M174.5,84.4c0.1-1.4,0.8-2.8,2.8-2.7c1.6,0.1,1.9,1.4,1.8,2.6c-0.1,1.7-0.8,3-2.8,3
						C174.6,87.3,174.5,86,174.5,84.4"/>
					<path class="st3" d="M128.5,45.7c0.1,1.9-0.8,2.8-2.3,3c-1.8,0.1-2-1.5-2-2.7c0-1.5,0.4-3.4,2.4-3.2
						C128.3,42.8,128.3,44.7,128.5,45.7"/>
					<path class="st3" d="M173.3,93.2c1.3,0.2,2.3,0.8,2.2,2.3c0.2,1.6-1,3-2.6,3.1c0,0-0.1,0-0.1,0c-1.6,0.2-1.9-1.2-1.9-2.4
						C170.8,94.7,171.9,93.4,173.3,93.2"/>
					<path class="st3" d="M179,11.1c-0.3-2.2,1.4-2.6,2.8-2.8c1.3-0.2,1.9,0.7,1.6,1.8c-0.4,1.6-0.1,3.9-2.4,4.1
						C179.1,14.3,179.1,12.5,179,11.1"/>
					<path class="st3" d="M120.5,31.3c-1.2,0-1.9-0.7-1.8-1.9c0.1-1.7,1.6-3.1,3.3-3.1c0.8-0.2,1.6,0.3,1.8,1.1c0,0.2,0,0.4,0,0.7
						C123.7,30,122.2,30.7,120.5,31.3"/>
					<path class="st3" d="M194.9,14c-0.1,1.5-0.6,2.8-2.4,3c-1.6,0.1-2.2-0.8-2.2-2.2c0-1.7,0.6-3.1,2.5-3.2
						C194.3,11.6,194.7,12.8,194.9,14"/>
					<path class="st3" d="M164.3,29.7c0.3-1.3-0.2-3.3,1.9-3.5c1.2-0.1,2.3,0.8,2.3,2c0,0.2,0,0.4,0,0.6c-0.1,1.6-0.7,3.1-2.6,3.3
						C164.3,32.2,164.4,30.9,164.3,29.7"/>
					<path class="st3" d="M175.6,30.6c0-1.1,0.4-2.5,1.9-2.3c1,0.1,3,0.1,2.8,2c-0.1,1.5-0.8,3-2.7,3.1
						C175.5,33.6,175.8,32,175.6,30.6"/>
					<path class="st3" d="M180.3,64c-0.3,1.2-0.8,2.6-2.3,2.6c-2.1,0-1.9-1.9-2-3.2c-0.1-1,0.1-2.8,1.7-2.6
						C179.2,61.1,180.3,62.4,180.3,64"/>
					<path class="st3" d="M157.5,94.4c1.3,0.3,2.5,0.9,2.3,2.5c-0.1,1.3-0.6,2.8-2.2,2.8c-2.2,0-2.1-1.9-2.2-3.4
						S156.2,94.4,157.5,94.4"/>
					<path class="st3" d="M164.1,44.2c-0.3,1.9-0.7,3.5-2.7,3.3c-1.5-0.2-1.7-1.5-1.5-2.8c0.2-1.5,0.8-2.8,2.6-2.7
						S164.2,43.3,164.1,44.2"/>
					<path class="st3" d="M119,65.3c-0.1,1.4-0.1,3-1.8,3.2s-2.2-1.2-2.3-2.7s0.3-3.1,2.1-3.2C119,62.4,118.7,64.2,119,65.3"/>
					<path class="st3" d="M153.7,83.6c-0.3,2-1.4,3-3.1,3.1s-1.8-1.3-1.9-2.5s0.5-2.5,1.7-2.2S153.5,81.6,153.7,83.6"/>
					<path class="st3" d="M210,36.6c1.2,0.5,2.3,1.3,2.2,2.9s-0.8,2.6-2.4,2.7s-2.2-1-2.2-2.3C207.5,38.4,208.5,37,210,36.6"/>
					<path class="st3" d="M148.9,48.5c-1.6-0.3-1.7-1.5-1.7-2.8c0-1.9,1.5-2.3,2.9-2.5c1-0.1,1.8,0.3,1.5,1.5
						C151.4,46.5,150.9,48.1,148.9,48.5"/>
					<path class="st3" d="M137.3,86.1c-0.1,1,0.1,2.7-1.9,2.9c-1.7,0.2-2.3-1-2.3-2.5s0.6-2.8,2.5-2.9
						C137.1,83.6,137.5,84.4,137.3,86.1"/>
					<path class="st3" d="M150.6,7.6c-0.1,1.3-0.6,2.5-2.2,2.5s-2-1.4-2.1-2.8c-0.2-1.1,0.5-2.1,1.6-2.3c0.2,0,0.3,0,0.5,0
						C150.1,5,150.7,6,150.6,7.6"/>
					<path class="st3" d="M170.3,58c-0.1,1.5-0.5,2.7-2.2,2.7c-1.3,0-2.4-0.6-2.3-2.2s0.7-2.6,2.3-2.7c1.1-0.1,2.2,0.7,2.3,1.8
						C170.3,57.7,170.3,57.9,170.3,58"/>
					<path class="st3" d="M208.4,73.4c-0.1,1.8-0.7,2.9-2.5,3c-1.3,0.1-1.8-0.6-1.7-1.8c0.2-1.6,1-3.1,2.6-3.4
						S208.3,72.5,208.4,73.4"/>
					<path class="st3" d="M175.2,3.5c-0.4,1.3-0.2,3-2.2,3.4c-1.2,0.2-1.6-0.6-1.5-1.6c0.1-1.5,0.3-3.2,2.3-3.5
						C174.9,1.5,175.2,2.3,175.2,3.5"/>
					<path class="st3" d="M144.6,90.6c1.2,0.6-1.7,3.3,1.6,2.2c0.3-0.1,0.4,0.7,0.2,1.1c-0.5,1-1.5,1.7-2.6,1.6
						c-0.8,0.1-1.5-0.5-1.6-1.3C141.8,92.1,143.1,91.2,144.6,90.6"/>
					<path class="st3" d="M122.6,64.6c0.1-1.4,0.3-2.8,2-2.9c1.6-0.1,1.7,1.1,1.7,2.2c-0.1,1.5-0.5,3-2.2,3.1
						C122.6,67.1,122.7,65.6,122.6,64.6"/>
					<path class="st3" d="M189.1,24.2c-0.2,1.4-0.7,2.4-2.2,2.2c-0.9,0-1.7-0.7-1.7-1.6c0-0.1,0-0.2,0-0.3c0.1-1.3,0.7-2.3,2.2-2.4
						S189,23.1,189.1,24.2"/>
					<path class="st3" d="M213.8,51.2c-0.1,1.6-0.7,2.6-2.4,2.6c-1.3,0-1.2-1-1.3-1.8c-0.1-1.3,0.8-2.5,2.1-2.7c0,0,0,0,0,0
						C213.8,49.1,213.6,50.5,213.8,51.2"/>
				</g>
			</g>
		</g>
		<path class="st4" d="M177.7,67c0.6-2.5,1-5,1.1-7.6c0.2-5.3-1-10.6-3.5-15.3c-1.5-2.8-3.3-5.3-5.4-7.6c-0.6-0.5-1-1.2-1.6-1.7
			l-1.7-1.6c-1.2-1-2.5-1.9-3.8-2.8c-5.2-3.5-11.1-5.8-17.3-6.8c-1-0.2-2.1-0.3-3.1-0.4s-2-0.1-3.1-0.2h-1.4h-1.4l-1.2,0.1
			c-7.6,0.6-15,3-21.5,7c-3.3,2-6.4,4.2-9.2,6.8c-2.8,2.6-5.3,5.4-7.6,8.5c-2.3,3-4.6,5.9-7.1,8.5c-2.4,2.7-5.3,4.9-8.6,6.5
			c-3.4,1.5-6.9,2.8-10.6,3.8c-3.6,1.2-7.4,2.5-10.6,4.9c-1.6,1.2-2.9,2.7-4,4.4c-1,1.7-1.7,3.7-1.9,5.7c-0.2,2,0,4,0.5,5.9
			c0.5,1.9,1.2,3.7,2.2,5.5c0.9,1.7,2,3.4,3.2,4.9c1.2,1.5,2.5,3,3.9,4.3c1.4,1.3,2.9,2.6,4.5,3.7c1.5,1.2,3.2,2.2,4.8,3.2
			c0.4,0.3,1.2,0.7,2.1,1.2l1.6,0.9l2,1c3.5,1.7,7.2,3.1,10.9,4.2c5,1.5,10,2.4,15.2,2.8c5.9,0.4,11.7,0.1,17.5-1
			c5.9-1.1,11.7-3.1,17-5.9c5-2.6,9.6-5.9,13.9-9.7c9.6-8.3,19.1-22.4,20.3-24.7s3.3-6.1,4-8.5"/>
		<path class="st5" d="M75.6,34.5c-2,1.4-3.9,3.1-5.6,4.9c-3.5,4-5.9,8.9-7,14.1c-0.7,3.2-0.9,6.4-0.7,9.6c0.1,0.8,0,1.6,0.2,2.4
			l0.3,2.4c0.3,1.6,0.6,3.2,1,4.8c1.7,6.4,4.6,12.3,8.6,17.5c0.6,0.9,1.4,1.7,2,2.5s1.5,1.6,2.2,2.3c0.3,0.3,0.7,0.7,1.1,1l1,1
			c0.3,0.3,0.6,0.5,0.9,0.8c5.9,4.9,12.8,8.4,20.3,10.2c3.6,0.9,7.3,1.3,11,1.4c3.7,0,7.3-0.3,10.9-0.9c3.5-0.6,7.1-1.1,10.7-1.4
			c3.5-0.3,7.1,0.2,10.4,1.2c3.5,1.3,6.9,2.9,10.2,4.7c3.4,1.7,7,3.4,10.9,4c1.9,0.2,3.9,0.1,5.7-0.4c1.8-0.6,3.5-1.6,4.9-2.9
			c1.4-1.4,2.5-3,3.4-4.8c0.8-1.8,1.4-3.7,1.8-5.7c0.4-2,0.6-4,0.7-6c0.1-2,0-4.1-0.2-6.1c-0.2-2-0.5-4-1-6c-0.4-2-1-3.9-1.5-5.9
			c-0.2-0.6-0.5-1.4-0.8-2.4c-0.2-0.5-0.4-1.2-0.6-1.8l-0.8-2.1c-1.5-3.8-3.3-7.5-5.4-11c-2.7-4.6-5.9-9-9.5-13
			c-4-4.5-8.6-8.4-13.6-11.8c-5-3.4-10.5-6-16.2-7.7c-5.3-1.6-10.8-2.5-16.3-2.6c-4.7-0.1-9.3,0.3-13.9,1.4c-1,0.2-2.1,0.5-3.1,0.9
			l-1-0.1c-2.4-0.2-4.9-0.1-7.3,0.2c-2.4,0.4-4.7,1-7,1.9C79.8,32,77.6,33.1,75.6,34.5"/>
		<path class="st6" d="M93.2,70.9c0,1-0.1,2.1-0.4,3.1c-0.1,0.5-0.3,1-0.6,1.5c-0.2,0.2-0.4,0.3-0.7,0.3c-0.2,0-0.5-0.1-0.7-0.3
			c-0.2-0.1-0.3-0.3-0.4-0.5c-0.3-0.4-0.5-0.8-0.6-1.3c-0.1-0.4-0.2-0.9-0.3-1.3s-0.2-1.1-0.2-1.6s-0.1-1.1-0.2-1.6
			c0-0.7-0.1-1.4-0.1-2.1l-0.1-2.1c0-0.1,0-0.1,0-0.2c0-0.1,0-0.1,0-0.2l-1,0.4c-0.3,0.1-0.7,0.2-1,0.3c-0.4,0.1-0.6,0.2-0.7,0.4
			c-0.1,0.2-0.1,0.5-0.2,0.7c0,0.5-0.1,0.9-0.2,1.4s-0.1,0.9-0.2,1.4c0,0.1-0.1,0.3-0.1,0.7s-0.2,0.8-0.2,1.3L85,72.8
			c-0.1,0.6-0.2,1.1-0.3,1.5s-0.2,0.9-0.3,1.2S84.3,76,84.3,76c-0.1,0.2-0.1,0.4-0.2,0.6C84,76.7,84,76.9,83.9,77
			c-0.3,0.4-0.8,0.7-1.4,0.8c-0.3,0-0.7-0.1-0.9-0.3c-0.2-0.2-0.4-0.5-0.4-0.8c-0.1-0.5-0.2-0.9-0.3-1.4s-0.1-1-0.2-1.4
			s-0.1-1.1-0.1-1.6l-0.1-1.6L80.4,69c0-0.5,0-1.1,0-1.6s0-1.4,0.1-2s0.1-1.3,0.1-2c0-0.5,0.1-1,0.1-1.6s0-1,0.1-1.6s0.2-1,0.2-1.4
			s0.1-0.9,0.1-1.3s0.1-1,0.2-1.5s0.1-1,0.2-1.5c0-0.2,0.1-0.4,0.1-0.7c0-0.2,0.1-0.5,0.1-0.7c0-0.1,0-0.2,0-0.3
			c0-0.1,0-0.2,0.2-0.3c0.1-0.1,0.2-0.1,0.3-0.2c0.1-0.1,0.2-0.1,0.3-0.2c0.3-0.1,0.7-0.1,1,0l0.6,0.2c0.2,0.1,0.4,0.2,0.6,0.3
			c0.8,0.4,1.2,1.2,1.2,2c0,0.5,0,1.1,0,1.6s0,1.1,0.1,1.6c0,0.4,0.1,0.8,0.1,1.1s0.1,0.8,0.1,1.1c0,0.2,0,0.5,0,0.7
			c0,0.2,0,0.5,0,0.7v0.9c0,0.3,0,0.6,0,0.9s0.1,0.3,0.3,0.2s0.7-0.2,1.1-0.3s0.7-0.2,1.1-0.3c0.1,0,0.2-0.1,0.2-0.3
			c0-0.6,0.1-1.2,0.1-1.8s0.1-1.2,0.1-1.8c0-0.3,0-0.7,0.1-1c0.1-0.3,0.1-0.7,0.1-1c0-0.1,0-0.2,0-0.4s0-0.3,0-0.4
			c0.1-0.7,0.2-1.3,0.3-1.8c0.1-0.5,0.2-0.9,0.4-1.3c0.1-0.4,0.4-0.7,0.7-0.8l0.2,0c0.3-0.1,0.6,0,0.8,0.3c0.3,0.3,0.5,0.6,0.6,1
			c0.2,0.5,0.3,1,0.4,1.5c0.1,0.6,0.2,1.1,0.2,1.7c0,0.6,0.1,1.3,0.1,2.2s0,1.8,0,2.7V65c0,0.1,0,0.1,0,0.2c0,0,0,0.1,0,0.1
			c0,0,0,0.1,0,0.1v0.3C93.2,67.9,93.2,69.6,93.2,70.9"/>
		<path class="st6" d="M106.1,64.2c0.3,0.2,0.4,0.7,0.2,1c-0.4,0.6-0.9,1.1-1.6,1.4c-0.5,0.2-1.1,0.4-1.7,0.4c-0.3,0-0.7,0-1-0.1
			c0,0.3,0,0.5,0,0.7c0,0.1,0,0.3,0,0.4c-0.1,0.4-0.1,0.9-0.2,1.5s-0.2,1.1-0.4,1.7c-0.1,0.5-0.3,1-0.5,1.5c-0.1,0.4-0.4,0.7-0.7,1
			c-0.5,0.7-1.4,1.1-2.2,1.1h-0.4h-0.3c-0.5,0.1-0.9-0.1-1.3-0.4c-0.4-0.3-0.7-0.6-0.9-1c-0.3-0.4-0.5-0.9-0.6-1.4
			c-0.2-0.5-0.3-1-0.4-1.5c-0.1-0.3-0.1-0.7-0.2-1s-0.1-0.7-0.1-1c-0.1-0.6-0.1-1.2,0-1.9c0.1-0.5,0.1-0.9,0.2-1.3s0.1-0.9,0.2-1.3
			c0-0.2,0.1-0.5,0.2-0.7c0.1-0.2,0.2-0.5,0.2-0.7c0.1-0.4,0.2-0.8,0.4-1.2c0.1-0.1,0.3-0.2,0.5-0.3c0.2-0.1,0.4-0.1,0.6-0.1
			c0.3,0,0.6,0.1,0.9,0.3c0.1-0.1,0.2-0.1,0.3-0.2c0-0.1,0.1-0.1,0.2-0.2c0.1,0,0.2-0.1,0.2-0.1c0.3-0.2,0.5-0.2,0.6,0.1l0.7-0.1
			c0.2,0,0.5,0,0.7,0c0.5,0,0.9,0.1,1.3,0.4c0.4,0.3,0.6,0.6,0.8,1.1c0.1,0.1,0.1,0.3,0.1,0.4c0,0.1,0,0.3,0.1,0.5
			c0.1,0.3,0.1,0.7,0.2,1.1c0,0.1,0,0.3,0,0.4c0,0.1,0,0.3,0,0.4s0,0.3,0,0.5c0.1,0,0.2,0.1,0.3,0.1c0.1,0,0.3,0,0.4,0
			c0.9,0.1,1.7-0.3,2.2-1.1c0.1-0.2,0.3-0.3,0.5-0.3c0.2,0,0.4,0,0.6,0.1 M98.5,72.6c0.2,0,0.4-0.2,0.5-0.3c0.2-0.2,0.3-0.4,0.4-0.7
			c0.1-0.3,0.2-0.7,0.3-1c0.1-0.4,0.2-0.8,0.3-1.2c0.2-0.9,0.4-2,0.5-3.2L99.9,66l-0.5-0.3c-0.2-0.1-0.3-0.3-0.5-0.4l0,0l0,0
			c-0.2-0.2-0.3-0.4-0.4-0.6c-0.1-0.2-0.3-0.4-0.4-0.7c-0.2-0.2-0.3-0.5-0.4-0.7c-0.2,1.5-0.3,3-0.3,4.5c0,0.6,0,1.1,0.1,1.7
			c0,0.5,0.1,1,0.2,1.5c0.1,0.4,0.2,0.8,0.4,1.1C98,72.3,98.2,72.5,98.5,72.6L98.5,72.6z M99.1,62.6c-0.1,0.3-0.1,0.6,0.1,0.8
			c0.1,0.3,0.3,0.6,0.5,0.8c0.1,0.1,0.2,0.3,0.3,0.4l0.3,0.3c0.1,0.1,0.2,0.2,0.3,0.2c0-0.1,0-0.3,0-0.4c0-0.1,0-0.3-0.1-0.4
			c0-0.1-0.1-0.3-0.1-0.4c0-0.2-0.1-0.4-0.2-0.6c-0.1-0.2-0.3-0.4-0.4-0.6l-0.3-0.2C99.4,62.4,99.2,62.4,99.1,62.6
			C99.2,62.6,99.1,62.6,99.1,62.6"/>
		<path class="st6" d="M120.4,64.3c0.1,0.1,0.2,0.3,0.2,0.5c0,0.2-0.1,0.4-0.3,0.5l-3.9,3.1c0.1,1.1,0.3,2.2,0.3,3.3
			s0.2,2.2,0.2,3.1c0.1,1.7,0,3.5-0.4,5.2c-0.1,0.7-0.4,1.4-0.6,2c-0.3,0.7-0.6,1.3-1,1.9c-0.4,0.6-0.9,1.1-1.5,1.5
			c-0.6,0.4-1.3,0.7-2.1,0.9c-0.3,0.1-0.6,0.2-0.9,0.2l-0.9,0.1c-0.3,0-0.6,0-0.9,0c-0.3,0-0.6-0.1-0.9-0.2
			c-0.5-0.1-0.9-0.4-1.2-0.7c-0.3-0.3-0.6-0.7-0.8-1.1c-0.2-0.3-0.3-0.7-0.3-1.1c0-0.4,0-0.8-0.1-1.1c0-0.2,0-0.3,0-0.5v-0.4
			c0-0.1,0-0.2,0-0.3c0-0.1,0-0.2,0-0.3c0-0.1,0-0.2,0-0.3c0.1-0.5,0.2-1.1,0.4-1.6c0.2-0.5,0.5-1.1,0.8-1.7c0.3-0.6,0.6-1.2,1-1.7
			c0.4-0.6,0.7-1.1,1.1-1.7s0.8-1,1.2-1.6l1.1-1.4c0.4-0.5,0.8-0.9,1.2-1.3l-0.2-2.2c-0.1,0.4-0.2,0.7-0.4,1
			c-0.2,0.3-0.4,0.7-0.7,0.9c-0.3,0.3-0.7,0.5-1.1,0.7c-0.5,0.2-1,0.2-1.4,0.2h-0.2c-0.5,0-1-0.1-1.5-0.3c-0.4-0.1-0.7-0.4-1-0.6
			c-0.3-0.2-0.5-0.5-0.6-0.9c-0.1-0.3-0.2-0.7-0.3-1c-0.1-0.9-0.1-1.8,0.1-2.7c0.2-0.8,0.3-1.7,0.6-2.4c0.1-0.6,0.3-1.2,0.6-1.8
			c0.1-0.3,0.2-0.6,0.3-0.8s0.2-0.5,0.4-0.8c0.2-0.4,0.4-0.8,0.6-1.1c0.2-0.3,0.5-0.5,0.8-0.7c0.3-0.2,0.6-0.3,0.9-0.3
			c0.3,0,0.6,0,0.9,0c0.7,0.1,1.4,0.3,2.1,0.6c0.1,0,0.1,0,0.2,0l0.2-0.1l0.3-0.1h0.2c0.3,0,0.6,0.1,0.8,0.3
			c0.2,0.2,0.4,0.4,0.6,0.6c0.1,0.1,0.1,0.2,0.2,0.2c0.1,0.1,0.1,0.1,0.2,0.2c0.2,0.3,0.3,0.6,0.4,0.9c0,0.3,0.1,0.6,0.2,1l0.5,1.6
			c0,0,0.1,0.4,0.2,1.3s0.3,1.9,0.4,3.1l3.1-2.5c0.2-0.1,0.4-0.2,0.6-0.2C120,64,120.2,64.1,120.4,64.3 M109.4,85.6
			c0.5,0,1-0.3,1.2-0.7c0.4-0.5,0.6-1.1,0.8-1.8c0.2-0.8,0.4-1.6,0.5-2.4c0.1-0.9,0.2-1.7,0.2-2.5c0-0.8,0.1-1.6,0.1-2.3v-1.6
			c0-0.2,0-0.3,0-0.5v-1.6c-0.6,0.7-1.1,1.4-1.6,2.2c-0.5,0.7-0.9,1.5-1.3,2.2c-0.4,0.8-0.8,1.7-1,2.7c0,0.2-0.1,0.4-0.1,0.6
			s-0.1,0.4-0.1,0.6s0,0.2,0,0.3s0,0.2,0,0.3c-0.1,0.6-0.1,1.3,0,1.9c0,0.6,0.2,1.2,0.4,1.8C108.7,85.3,109.1,85.6,109.4,85.6
			 M111.3,61.6c0.1-0.3,0.1-0.7,0.1-1c0-0.4-0.1-0.7-0.3-1c-0.2-0.2-0.4-0.3-0.6-0.1c-0.2,0.2-0.3,0.3-0.4,0.6
			c-0.2,0.4-0.3,0.7-0.4,1.1c-0.1,0.1-0.1,0.3-0.2,0.4l-0.2,0.6l-0.4,1.5c-0.1,0.3-0.2,0.6-0.2,0.9c-0.1,0.3-0.1,0.6-0.2,0.9
			l-0.1,0.6c0,0.2-0.1,0.4-0.1,0.6c0,0.2,0,0.4,0,0.7c0,0.1,0.1,0.3,0.2,0.3c0.1,0.1,0.3-0.1,0.6-0.5c0.5-1,1-2,1.4-3
			c0-0.1,0.1-0.2,0.1-0.4c0-0.1,0.1-0.2,0.1-0.2c0.1-0.3,0.2-0.6,0.3-0.9S111.3,61.9,111.3,61.6"/>
		<path class="st6" d="M132.5,64c0.2,0,0.4,0.1,0.5,0.3c0.1,0.2,0.1,0.4,0.1,0.6c-0.4,1.9-0.8,3.4-1.1,4.5c-0.2,0.8-0.5,1.6-0.9,2.3
			c-0.4,0.8-1.2,1.4-2.1,1.6c-0.2,0.1-0.4,0.1-0.6,0.1c-0.8,0.1-1.6-0.3-2.1-0.9c-0.4-0.5-0.7-1.1-0.8-1.7c-0.2-0.6-0.3-1.2-0.3-1.8
			c0-0.2,0-0.6-0.1-0.9c0-0.4-0.1-0.7-0.1-1.1s-0.1-0.7-0.1-0.9s0-0.4-0.1-0.4c-0.1,0.3-0.2,0.6-0.2,0.8l-0.2,0.8
			c-0.1,0.4-0.2,0.8-0.3,1.3s-0.2,0.8-0.3,1.2c-0.1,0.2-0.2,0.5-0.3,0.9s-0.3,0.8-0.5,1.1s-0.3,0.7-0.4,1.1s-0.2,0.5-0.3,0.6
			c-0.2,0.3-0.4,0.5-0.8,0.5c-0.3,0.1-0.6,0-0.9-0.1c-0.5-0.2-1-0.6-1.2-1.1c-0.2-0.5-0.4-1-0.4-1.5c-0.1-1.1-0.1-2.1,0-3.2
			c0-0.8,0.1-1.6,0.3-2.3c0.2-0.8,0.3-1.5,0.5-2.3c0.2-0.6,0.4-1.3,0.6-1.9c0.3-0.6,0.6-1.2,0.8-1.8c0.3-0.5,0.6-0.9,1.1-1.2
			c0.5-0.3,1-0.5,1.6-0.6h0.5h0.5c0.2,0,0.3-0.2,0.4-0.3c0-0.1,0.1-0.3,0.2-0.4c0.1-0.3,0.3-0.5,0.4-0.8c0.2-0.2,0.4-0.4,0.6-0.6
			c0.2-0.1,0.3-0.1,0.5-0.2c0.2,0,0.5,0,0.7,0h0.6h0.3c0.4-0.1,0.8,0.1,1,0.5c0,0,0,0.1,0,0.1c0,0.2,0,0.4,0,0.6c0,0.3,0,0.6,0,0.9
			s0,0.6-0.1,0.9c0,0.2,0,0.4-0.1,0.6c0,0.1-0.1,0.4-0.1,0.8s-0.1,0.9-0.2,1.4s-0.1,1.1-0.2,1.8s-0.2,1.2-0.2,1.8s-0.1,1.1-0.2,1.5
			c0,0.3-0.1,0.6-0.1,0.9c0,0.1,0,0.4,0,0.8s0,0.9,0,1.4c0,0.5,0,0.9,0.1,1.4c0.1,0.4,0.2,0.7,0.4,0.7s0.6-0.3,1-0.9
			c0.5-0.8,1.1-2.9,1.8-6.3c0-0.2,0.2-0.4,0.3-0.5c0.2-0.1,0.4-0.2,0.6-0.1 M121,68.5c0.1,0.1,0.2,0,0.4-0.3
			c0.2-0.4,0.4-0.8,0.6-1.2c0.2-0.5,0.5-1.1,0.7-1.7s0.5-1.4,0.7-2s0.5-1.4,0.7-2.1s0.4-1.3,0.5-1.8c-0.6-0.3-1.4-0.2-1.8,0.3
			c-0.3,0.3-0.5,0.6-0.6,1c-0.1,0.4-0.3,0.7-0.5,1.1c-0.1,0.2-0.2,0.4-0.3,0.7c-0.1,0.3-0.2,0.5-0.3,0.8s-0.2,0.5-0.2,0.7
			c0,0.1-0.1,0.2-0.1,0.3l0,0c-0.2,0.6-0.3,1.2-0.3,1.9c0,0.5,0,0.9,0,1.4C120.6,67.9,120.8,68.2,121,68.5"/>
		<path class="st6" d="M143.3,64.1c0.2,0.1,0.3,0.2,0.4,0.4c0.1,0.2,0.1,0.4,0,0.6c-0.1,0.2-0.2,0.5-0.4,1s-0.5,1.2-0.8,1.9
			s-0.7,1.5-1.1,2.3s-0.9,1.6-1.3,2.3c-0.4,0.7-0.9,1.4-1.5,2c-0.4,0.5-0.9,0.9-1.5,1.2c-0.1,0.1-0.3,0.1-0.4,0.1l-0.5,0.1
			c-0.5,0.1-1,0-1.5-0.2c-0.4-0.2-0.7-0.5-1-0.8c-0.3-0.3-0.5-0.6-0.6-1c-0.1-0.4-0.2-0.7-0.3-1.1c-0.3-2.1-0.1-4.2,0.7-6.2
			c0-0.1,0.1-0.2,0.1-0.2c0-0.1,0-0.1,0-0.2c-0.2-0.1-0.4-0.2-0.6-0.3c-0.2-0.1-0.4-0.2-0.5-0.3c-0.3-0.1-0.5-0.4-0.7-0.6
			c-0.2-0.2-0.2-0.5-0.3-0.7v-0.5c0-0.2,0-0.3,0-0.5c0-0.1,0-0.1,0-0.2c0-0.1,0-0.1,0-0.2c0.1-0.5,0.1-1,0.3-1.6
			c0.1-0.6,0.3-1.1,0.5-1.7c0.2-0.5,0.5-0.9,0.9-1.3c0.4-0.3,0.8-0.5,1.3-0.4c0.4,0,0.7,0.2,1,0.5c0.2,0.3,0.3,0.7,0.2,1
			c0,0.4-0.2,0.8-0.3,1.2c-0.2,0.4-0.4,0.9-0.6,1.3c-0.2,0.4-0.4,0.8-0.7,1.1c-0.2,0.2-0.3,0.5-0.5,0.7c0,0.1,0,0.2,0.1,0.3
			c0,0.2,0.1,0.3,0.2,0.3s0.2,0,0.4-0.1c0.4-0.3,0.7-0.6,0.9-1c0.3-0.4,0.5-0.7,0.7-1.1c0.2-0.3,0.4-0.6,0.6-0.9s0.4-0.6,0.6-0.9
			c0.1-0.1,0.1-0.1,0.2-0.2c0.1,0,0.2,0,0.3,0c0.3,0.1,0.6,0.2,0.9,0.3c0.3,0.1,0.6,0.3,0.8,0.6c0.1,0.1,0.1,0.1,0.1,0.2
			c0,0.1,0.1,0.2,0.1,0.3c0,0.1,0.1,0.3,0.1,0.4c0,0.2,0,0.4-0.1,0.6c-0.1,0.1-0.2,0.3-0.3,0.6s-0.4,0.7-0.6,1.2l-0.7,1.5l-0.7,1.5
			c-0.2,0.4-0.4,0.9-0.6,1.2c-0.1,0.2-0.2,0.4-0.3,0.6c0,0.1-0.1,0.3-0.1,0.7s-0.1,0.8-0.1,1.2s-0.1,0.9-0.1,1.3s0,0.7,0,0.9v0.3
			c0,0.1,0,0.3,0.1,0.4c0,0.1,0.1,0.2,0.2,0.3c0.1,0.1,0.2,0.1,0.4,0.1c0.1,0,0.2-0.1,0.2-0.1c0.1-0.1,0.2-0.2,0.4-0.3l0.4-0.3
			c0.1-0.1,0.2-0.2,0.2-0.3c0.5-0.7,0.9-1.5,1.4-2.2s0.9-1.5,1.4-2.2l0.3-0.6c0.2-0.4,0.4-0.8,0.6-1.3s0.4-1,0.6-1.4l0.5-1.2
			c0-0.2,0.2-0.4,0.4-0.4c0.2-0.1,0.4-0.1,0.6,0"/>
		<path class="st6" d="M127.4,85.7v5.6H125v-5.4c0-1.4-0.5-2-1.6-2c-0.6,0-1.1,0.2-1.5,0.6v6.8h-2.4v-9.1h1.6l0.4,1.1
			c0.7-0.8,1.7-1.3,2.7-1.2c1.5,0,2.4,0.4,2.8,1.3c0.7-0.8,1.7-1.3,2.8-1.3c2.6,0,3.4,1.4,3.4,3.7v5.6h-2.5v-5.4c0-1.4-0.6-2-1.7-2
			c-0.6,0-1.1,0.2-1.5,0.6C127.4,84.9,127.5,85.3,127.4,85.7"/>
		<path class="st6" d="M137.1,87.4c-0.1,1.1,0.7,2.2,1.8,2.3c0.2,0,0.3,0,0.5,0c0.9,0,1.9-0.3,2.7-0.8l0.5,1.7
			c-1.1,0.6-2.2,0.9-3.4,0.9c-2.8,0-4.5-1.8-4.5-4.8c0-2.8,1.4-4.7,4.3-4.7c2.8,0,3.8,2.1,3.8,4.3v1.1H137.1z M138.8,83.8
			c-1.2,0-1.7,1.1-1.7,2.2h3.3C140.5,84.8,140.1,83.8,138.8,83.8"/>
		<path class="st6" d="M147.8,91.4c0,2.5-1.1,3.3-2.8,3.3c-0.6,0-1.1-0.1-1.6-0.3l0.3-2c0.3,0.1,0.5,0.1,0.8,0.2
			c0.6,0,0.9-0.4,0.9-1v-7.7l-1.1-0.2v-1.5h3.5L147.8,91.4z M145.3,78.4h2.5v2.2h-2.5V78.4z"/>
		<path class="st6" d="M158.4,86.7c0,3.1-1.6,4.8-4.3,4.8s-4.3-1.6-4.3-4.8c0-2.7,1.5-4.7,4.3-4.7S158.4,84,158.4,86.7 M155.9,86.7
			c0-2.2-0.6-3-1.8-3s-1.8,0.8-1.8,3s0.6,3,1.8,3S155.9,88.9,155.9,86.7"/>
		<path class="st6" d="M165.4,84.2c-0.4-0.1-0.7-0.2-1.1-0.2c-0.6,0-1.2,0.2-1.6,0.6v6.6h-2.4v-9.1h1.7l0.3,1.2h0.1
			c0.4-0.8,1.2-1.4,2.2-1.4c0.4,0,0.7,0,1.1,0.1L165.4,84.2z"/>
		<path class="st6" d="M67.4,58.7c4.2-2.9,8.4-5.7,12.9-8.2c2-1.2,4-2.2,6.1-3.2c1-0.5,1.9-0.9,2.9-1.3l0.7-0.3l0.2-0.1l-0.2,0.1
			l0.4-0.2c0.4-0.2,0.9-0.4,1.4-0.5c1.6-0.6,3.2-1.1,4.9-1.5c0.3-0.1,0.7-0.2,1.1-0.2l0.5-0.1h0.1c0,0-0.5,0-0.3,0h0.3
			c0.3,0,0.6,0,0.9,0c0.2,0,0.3,0,0.5,0c-0.1,0-0.5-0.1-0.2,0l0.3,0c0.7,0.1,1.4,0.3,2.2,0.6c0.4,0.1,0.8,0.3,1.1,0.4l0.3,0.1
			l-0.2-0.1l0.1,0.1l0.6,0.3c1.7,0.8,3.3,1.7,4.9,2.6c3,1.8,6,3.8,8.9,5.7l0.8,0.5c0.8,0.5,1.9,0.2,2.4-0.6c0.5-0.8,0.2-1.9-0.6-2.4
			c-2.9-1.8-5.8-3.8-8.7-5.5c-1.6-1-3.3-2-5-2.8c-1.6-0.8-3.3-1.5-5-2c-0.8-0.2-1.6-0.3-2.4-0.4c-0.8,0-1.5,0-2.3,0.2
			c-1.6,0.3-3.2,0.7-4.7,1.2c-4.1,1.5-8.1,3.3-11.9,5.5c-4.5,2.5-8.8,5.2-13,8.1c-0.6,0.4-1.1,0.8-1.6,1.2c-0.9,0.4-1.3,1.4-0.8,2.3
			c0.4,0.9,1.4,1.3,2.3,0.8C67.2,58.8,67.3,58.7,67.4,58.7"/>
		<path class="st4" d="M71.3,128.7l-0.2-6.8l0,0c-0.2,0.8-0.3,1.5-0.4,1.9l-1.1,4.8h-2.3l-1.1-4.8c-0.1-0.5-0.2-1.1-0.4-1.9h-0.1
			l-0.1,6.8h-1.5l0.3-8h2.7c0,0,0.9,4,1.3,6.6l0,0c0.5-2.6,1.6-6.6,1.6-6.6h2.6l0.3,8H71.3z"/>
		<path class="st4" d="M78.1,128.7l-0.2-0.7c-0.4,0.5-1,0.8-1.7,0.8c-1,0.1-1.9-0.6-2-1.6c0-0.1,0-0.2,0-0.3c0-1.1,0.8-1.7,2.2-1.7
			h1.2v-0.3c0-0.8-0.4-1-1-1c-0.6,0-1.2,0.1-1.8,0.4l-0.4-1.1c0.7-0.3,1.5-0.5,2.3-0.5c1.7,0,2.4,0.8,2.4,2.2v3.7L78.1,128.7z
			 M75.3,121.9l-0.2-0.9l3-0.8l0.2,1.1L75.3,121.9z M77.6,126.1h-1c-0.6,0-0.9,0.3-0.9,0.8c0,0.4,0.3,0.8,0.7,0.9c0.1,0,0.1,0,0.2,0
			c0.4,0,0.7-0.2,1-0.4L77.6,126.1z"/>
		<path class="st4" d="M81.8,124.4c0,0.9,2.5,0.6,2.5,2.5c0,1.1-0.8,1.9-2.3,1.9c-0.6,0-1.2-0.1-1.8-0.4l0.3-1.1
			c0.4,0.3,0.9,0.4,1.4,0.4c0.5,0,0.9-0.3,0.9-0.6c0-1-2.5-0.7-2.5-2.7c0-0.8,0.7-1.6,2.2-1.6c0.6,0,1.1,0.1,1.6,0.3l-0.2,1.1
			c-0.4-0.2-0.9-0.3-1.4-0.3C82.1,123.8,81.8,124,81.8,124.4"/>
		<path class="st4" d="M92.8,128.3c-0.6,0.3-1.3,0.5-2,0.5c-1.7,0-2.8-1-2.8-3s1-3,2.8-3c0.7,0,1.4,0.1,2,0.5l-0.4,1
			c-0.5-0.2-1-0.4-1.5-0.4c-0.8,0-1.3,0.6-1.3,1.9s0.5,1.9,1.3,1.9c0.6,0,1.1-0.2,1.6-0.4L92.8,128.3z"/>
		<path class="st4" d="M97.4,128.7l-0.2-0.7c-0.4,0.5-1,0.8-1.7,0.8c-1,0.1-1.9-0.6-2-1.6c0-0.1,0-0.2,0-0.3c0-1.1,0.8-1.7,2.2-1.7
			H97v-0.3c0-0.8-0.4-1-1-1c-0.6,0-1.2,0.1-1.8,0.4l-0.4-1.1c0.7-0.3,1.5-0.5,2.3-0.5c1.7,0,2.4,0.8,2.4,2.2v3.7L97.4,128.7z
			 M97,126.1h-1c-0.6,0-0.9,0.3-0.9,0.8c0,0.4,0.3,0.8,0.7,0.9c0.1,0,0.1,0,0.2,0c0.4,0,0.7-0.2,1-0.4L97,126.1z"/>
		<path class="st4" d="M99.9,127.1v-6.7h1.5v6.6c0,0.5,0.3,0.6,0.9,0.6v1.1c-0.3,0.1-0.6,0.1-0.9,0.1
			C100.3,128.8,99.9,128.2,99.9,127.1"/>
		<path class="st4" d="M103.8,128.7V124l-0.7-0.1v-1h2.2v5.8L103.8,128.7z M103.8,120.5h1.6v1.4h-1.6V120.5z"/>
		<path class="st4" d="M110.6,123.3c-0.1-0.3-0.1-0.7-0.1-1.1v-1.8h1.6v8.2h-1.3l-0.2-0.6c-0.4,0.5-0.9,0.8-1.6,0.8
			c-1.3,0-2.4-1-2.4-3s1.1-3,2.5-3C109.7,122.8,110.2,123,110.6,123.3 M110.4,124.2c-0.3-0.2-0.7-0.3-1.1-0.3
			c-0.7,0-1.2,0.5-1.2,1.9s0.4,1.9,1.2,1.9c0.4,0,0.8-0.2,1.1-0.5L110.4,124.2z"/>
		<path class="st4" d="M117,128.7l-0.2-0.7c-0.4,0.5-1,0.8-1.7,0.8c-1,0.1-1.9-0.6-2-1.6c0-0.1,0-0.2,0-0.3c0-1.1,0.8-1.7,2.2-1.7
			h1.2v-0.3c0-0.8-0.4-1-1-1c-0.6,0-1.2,0.1-1.8,0.4l-0.4-1.1c0.7-0.3,1.5-0.5,2.3-0.5c1.7,0,2.4,0.8,2.4,2.2v3.7L117,128.7z
			 M116.6,126.1h-1c-0.6,0-0.9,0.3-0.9,0.8c0,0.4,0.3,0.8,0.7,0.9c0.1,0,0.1,0,0.2,0c0.4,0,0.7-0.2,1-0.4L116.6,126.1z"/>
		<path class="st4" d="M123.2,123.3c-0.1-0.3-0.2-0.7-0.2-1v-1.8h1.6v8.2h-1.3l-0.2-0.6c-0.4,0.5-0.9,0.8-1.6,0.8
			c-1.3,0-2.4-1-2.4-3s1.1-3,2.5-3c0.5,0,1.1,0.2,1.5,0.6 M123,124.3c-0.3-0.2-0.7-0.3-1.1-0.3c-0.7,0-1.2,0.5-1.2,1.9
			s0.4,1.9,1.2,1.9c0.4,0,0.8-0.2,1.1-0.5L123,124.3z"/>
		<path class="st4" d="M129.4,126c0,1.4,0.7,2.1,1.9,2.1c0.6,0,1.3-0.2,1.8-0.6l0.2,0.6c-0.6,0.4-1.4,0.6-2.1,0.6
			c-1.6,0-2.6-1.1-2.6-3.1c0-1.8,0.9-3,2.5-3s2.3,1.3,2.3,2.8v0.5L129.4,126z M130.9,123.4c-1.1,0-1.6,1-1.6,2h3.1
			C132.4,124.4,132.1,123.4,130.9,123.4"/>
		<path class="st4" d="M138.4,128.7v-3.5c0-1.1-0.4-1.7-1.3-1.7c-0.5,0-1,0.3-1.4,0.7v4.6h-0.9v-5.8h0.6l0.2,0.7
			c0.5-0.5,1.1-0.8,1.8-0.8c1.4,0,2,0.8,2,2.3v3.7H138.4z"/>
		<polygon class="st4" points="66.9,140.6 65.6,140.6 63.7,134.7 64.7,134.7 66.3,140 66.3,140 67.9,134.7 68.8,134.7 		"/>
		<path class="st4" d="M70.2,140.6v-5.1l-0.6-0.1v-0.6h1.5v5.8L70.2,140.6z M70.2,132.5h1v0.9h-1V132.5z"/>
		<polygon class="st4" points="75.3,140.6 73.9,140.6 72.1,134.7 73.1,134.7 74.6,140 74.7,140 76.2,134.7 77.2,134.7 		"/>
		<path class="st4" d="M78.6,140.6v-5.1l-0.6-0.1v-0.6h1.5v5.8L78.6,140.6z M78.5,132.5h1v0.9h-1V132.5z"/>
		<path class="st4" d="M81.7,137.9c0,1.4,0.7,2.1,1.8,2.1c0.6,0,1.3-0.2,1.8-0.6l0.2,0.6c-0.6,0.4-1.4,0.6-2.1,0.6
			c-1.6,0-2.7-1.1-2.7-3.1c0-1.9,0.9-3,2.5-3s2.3,1.3,2.3,2.8v0.5L81.7,137.9z M83.3,135.3c-1.1,0-1.6,1-1.6,2h3.1
			C84.8,136.3,84.4,135.3,83.3,135.3"/>
		<path class="st4" d="M90.7,140.6v-3.5c0-1.1-0.3-1.7-1.3-1.7c-0.5,0-1,0.3-1.4,0.7v4.6h-0.9v-5.8h0.6l0.2,0.7
			c0.5-0.5,1.1-0.8,1.8-0.8c1.4,0,2,0.8,2,2.3v3.7H90.7z"/>
		<path class="st4" d="M96.9,139.9c-0.4,0.5-1,0.8-1.7,0.8c-1.4,0-2.3-1-2.3-3.1c0-1.8,0.9-3,2.4-3c0.6,0,1.1,0.2,1.6,0.5
			c0-0.3,0-0.7,0-1v-1.8h0.9v8.2h-0.7L96.9,139.9z M96.9,135.7c-0.4-0.3-0.9-0.4-1.4-0.4c-1.1,0-1.6,0.9-1.6,2.3s0.5,2.4,1.6,2.4
			c0.6,0,1.1-0.3,1.5-0.7V135.7z"/>
		<path class="st4" d="M103,140.6l-0.2-0.8c-0.4,0.5-1.1,0.9-1.8,0.9c-1,0.1-1.8-0.7-1.9-1.6c0-0.1,0-0.1,0-0.2c0-1,0.7-1.7,2.1-1.7
			h1.5v-0.5c0-1-0.4-1.4-1.3-1.4c-0.6,0-1.2,0.1-1.8,0.4l-0.2-0.6c0.7-0.3,1.4-0.4,2.1-0.4c1-0.1,1.9,0.6,2.1,1.6c0,0.2,0,0.3,0,0.5
			v3.9L103,140.6z M102.7,137.9h-1.4c-1,0-1.3,0.4-1.3,1c-0.1,0.6,0.4,1.1,1,1.2c0.1,0,0.2,0,0.2,0c0.6,0,1.1-0.3,1.5-0.7V137.9z"/>
		<path class="st4" d="M105.8,136.2c0,1.2,2.9,0.8,2.9,2.8c0,1-0.9,1.8-1.9,1.7c0,0-0.1,0-0.1,0c-0.6,0-1.2-0.2-1.8-0.5l0.3-0.7
			c0.4,0.3,0.9,0.5,1.5,0.5c0.7,0,1.2-0.4,1.2-1c0-1.4-2.9-0.9-2.9-2.9c0-0.8,0.6-1.5,1.9-1.5c0.6,0,1.2,0.1,1.8,0.4l-0.2,0.7
			c-0.5-0.2-1-0.4-1.5-0.4C106.2,135.3,105.8,135.6,105.8,136.2"/>
		<path class="st4" d="M114.6,140.5h-0.6l-1.9-5.9h1c0,0,1.1,3.6,1.6,5.3c0.5-1.8,1.6-5.3,1.6-5.3h0.9l-1.9,5.8
			c-0.6,1.9-1.2,2.4-2.3,2.4c-0.5,0-0.9-0.2-1.3-0.5l0.3-0.6h0.1c0.3,0.2,0.6,0.4,1,0.4c0.7,0,1.1-0.4,1.4-1.5L114.6,140.5z"/>
		<path class="st4" d="M121.7,135.4c0.5-0.5,1.1-0.8,1.7-0.8c1.5,0,2.3,1.1,2.3,3s-1,3.1-2.4,3.1c-0.6,0-1.3-0.3-1.7-0.8l-0.2,0.6
			h-0.5v-8.2h0.9v2.3L121.7,135.4z M121.8,139.4c0.4,0.4,0.9,0.6,1.4,0.7c1,0,1.6-0.7,1.6-2.4s-0.4-2.3-1.5-2.3
			c-0.6,0-1.1,0.3-1.5,0.6L121.8,139.4z"/>
		<path class="st4" d="M130.6,140.6l-0.1-0.8c-0.4,0.5-1.1,0.9-1.8,0.9c-1,0.1-1.8-0.7-1.9-1.6c0-0.1,0-0.1,0-0.2
			c0-1,0.7-1.7,2.1-1.7h1.5v-0.5c0-1-0.4-1.4-1.3-1.4c-0.6,0-1.2,0.1-1.8,0.4l-0.2-0.6c0.7-0.3,1.4-0.4,2.1-0.4
			c1-0.1,1.9,0.6,2.1,1.6c0,0.2,0,0.3,0,0.5v3.9L130.6,140.6z M130.4,137.9H129c-1,0-1.3,0.4-1.3,1c-0.1,0.6,0.4,1.1,1,1.2
			c0.1,0,0.2,0,0.2,0c0.6,0,1.1-0.3,1.5-0.7L130.4,137.9z"/>
		<path class="st4" d="M135.8,135.5c-0.2-0.1-0.5-0.1-0.8-0.1c-0.5,0-1,0.3-1.3,0.6v4.5h-0.9v-5.8h0.6l0.2,0.7
			c0.3-0.5,0.9-0.8,1.5-0.8c0.3,0,0.5,0,0.7,0.1L135.8,135.5z"/>
		<path class="st4" d="M139.8,135.5c-0.2-0.1-0.5-0.1-0.8-0.1c-0.5,0-1,0.3-1.3,0.6v4.5h-0.9v-5.8h0.6l0.2,0.7
			c0.3-0.5,0.9-0.8,1.5-0.8c0.3,0,0.5,0,0.7,0.1L139.8,135.5z"/>
		<path class="st4" d="M141.4,140.6v-5.1l-0.6-0.1v-0.6h1.5v5.8L141.4,140.6z M141.3,132.5h1v0.9h-1V132.5z"/>
		<path class="st4" d="M148.6,137.7c0,2-1,3.1-2.5,3.1s-2.5-1.1-2.5-3.1c0-1.7,0.8-3,2.5-3S148.6,135.9,148.6,137.7 M147.7,137.7
			c0-1.5-0.5-2.4-1.6-2.4s-1.6,0.9-1.6,2.4s0.4,2.4,1.6,2.4S147.7,139.2,147.7,137.7"/>
		<path class="st4" d="M150.6,136.2c0,1.2,2.9,0.8,2.9,2.8c0,1-0.9,1.8-1.8,1.8c-0.1,0-0.1,0-0.2,0c-0.6,0-1.2-0.2-1.8-0.5l0.3-0.7
			c0.4,0.3,1,0.5,1.5,0.5c0.7,0,1.1-0.4,1.1-1c0-1.4-2.9-0.9-2.9-2.9c0-0.8,0.6-1.5,1.9-1.5c0.6,0,1.2,0.1,1.8,0.4l-0.2,0.7
			c-0.5-0.2-1-0.4-1.5-0.4C151,135.3,150.7,135.6,150.6,136.2"/>
		<path class="st6" d="M165.3,79c1.7-1.5,2.7-3.7,2.7-5.9"/>
		<path class="st6" d="M165.3,79v-0.1c0-0.1,0-0.2,0-0.3c0-0.3,0-0.6,0.1-0.9c0-0.3,0.1-0.7,0.2-1c0-0.2,0.1-0.3,0.1-0.5
			c0.1-0.2,0.1-0.3,0.2-0.5c0.3-0.6,0.7-1.2,1.1-1.7l0.6-0.7c0.1-0.1,0.2-0.2,0.2-0.2l0.1-0.1l0.1,0.1c0.1,0.1,0.2,0.1,0.2,0.2
			c0.2,0.3,0.4,0.5,0.5,0.9c0.2,0.4,0.2,0.9,0.2,1.3c0,0.2,0,0.5-0.1,0.7c-0.1,0.2-0.1,0.5-0.2,0.7c-0.4,0.9-1.1,1.6-2,1.9
			c-0.3,0.1-0.7,0.2-1,0.2C165.5,79.1,165.4,79.1,165.3,79L165.3,79"/>
		<line class="st7" x1="161" y1="77.2" x2="161.9" y2="70.1"/>
		<path class="st6" d="M161,77.2L161,77.2c-0.1-0.1-0.2-0.2-0.3-0.3c-0.2-0.3-0.3-0.6-0.5-0.9c-0.3-0.8-0.4-1.7-0.3-2.5
			c0.1-0.9,0.5-1.7,1-2.3c0.2-0.3,0.4-0.5,0.7-0.7c0.1-0.1,0.2-0.1,0.2-0.2l0.1-0.1l0.1,0.1c0.1,0.1,0.1,0.2,0.2,0.2
			c0.2,0.3,0.3,0.6,0.5,0.9c0.3,0.8,0.4,1.7,0.3,2.5c-0.1,0.8-0.5,1.6-1,2.3c-0.2,0.3-0.4,0.5-0.7,0.7C161.3,77,161.2,77.1,161,77.2
			L161,77.2"/>
		<path class="st6" d="M154.4,77.6l-2-7.5"/>
		<path class="st6" d="M154.4,77.6l-0.1-0.1c-0.1-0.1-0.2-0.1-0.3-0.2c-0.3-0.2-0.5-0.4-0.8-0.7c-0.6-0.7-1.1-1.5-1.3-2.4
			c-0.2-0.9-0.3-1.8-0.1-2.7c0.1-0.3,0.2-0.7,0.3-1c0-0.1,0.1-0.2,0.1-0.3l0.1-0.1l0.1,0.1c0.1,0.1,0.2,0.1,0.3,0.2
			c0.3,0.2,0.6,0.4,0.8,0.7c0.6,0.7,1.1,1.5,1.3,2.4c0.2,0.9,0.3,1.8,0.1,2.7c-0.1,0.3-0.2,0.7-0.3,1c0,0.1-0.1,0.2-0.1,0.3
			L154.4,77.6"/>
		<path class="st6" d="M168.2,84.1c2.2-1.5,4.8-2.2,7.5-2.2"/>
		<path class="st6" d="M168.2,84.1V84c0-0.1,0.1-0.2,0.1-0.3c0.1-0.4,0.3-0.7,0.5-1c0.6-0.8,1.5-1.4,2.5-1.7c1-0.3,2-0.3,3,0.1
			c0.4,0.1,0.7,0.3,1,0.6c0.1,0.1,0.2,0.2,0.2,0.2l0.1,0.1l-0.1,0.1c-0.1,0-0.1,0.1-0.2,0.2s-0.5,0.4-0.8,0.6
			c-0.7,0.5-1.5,0.8-2.3,1.1c-0.2,0.1-0.4,0.1-0.6,0.2l-0.6,0.1c-0.4,0.1-0.8,0.1-1.2,0.1c-0.3,0-0.7,0-1-0.1c-0.1,0-0.2,0-0.3,0
			L168.2,84.1"/>
		<path class="st6" d="M168.3,89.3l7.3,1.7"/>
		<path class="st6" d="M168.3,89.3l0.1-0.1c0.1-0.1,0.2-0.1,0.3-0.2c0.3-0.2,0.7-0.3,1-0.4c0.9-0.2,1.8-0.2,2.7,0
			c0.9,0.2,1.7,0.6,2.4,1.2c0.3,0.2,0.5,0.5,0.7,0.8c0.1,0.1,0.1,0.2,0.2,0.3l0.1,0.1l-0.1,0.1l-0.3,0.2c-0.3,0.2-0.7,0.3-1,0.4
			c-0.9,0.2-1.8,0.2-2.7,0c-0.9-0.2-1.7-0.6-2.4-1.2c-0.3-0.2-0.5-0.5-0.7-0.8C168.5,89.6,168.5,89.5,168.3,89.3L168.3,89.3"/>
	</g>
</g>
</svg>
