<?xml version="1.0" encoding="utf-8"?>
<!-- Generator: Adobe Illustrator 24.2.3, SVG Export Plug-In . SVG Version: 6.00 Build 0)  -->
<svg version="1.1" id="Capa_1" xmlns="http://www.w3.org/2000/svg" xmlns:xlink="http://www.w3.org/1999/xlink" x="0px" y="0px"
	 viewBox="0 0 457 342.2" style="enable-background:new 0 0 457 342.2;" xml:space="preserve">
<style type="text/css">
	.st0{fill:#9094BA;}
	.st1{clip-path:url(#SVGID_2_);fill:#9094BA;}
	.st2{fill:#E874AD;}
	.st3{clip-path:url(#SVGID_4_);fill:#E874AD;}
	.st4{clip-path:url(#SVGID_6_);fill:#E874AD;}
	.st5{fill:#008AD2;}
	.st6{clip-path:url(#SVGID_8_);fill:#008AD2;}
	.st7{fill:#00A1A1;}
	.st8{clip-path:url(#SVGID_10_);fill:#00A1A1;}
	.st9{clip-path:url(#SVGID_12_);fill:#00A1A1;}
	.st10{clip-path:url(#SVGID_12_);fill:#50801C;}
	.st11{fill:#E7B052;}
	.st12{clip-path:url(#SVGID_14_);fill:#E7B052;}
	.st13{fill:#C4CF5A;}
	.st14{clip-path:url(#SVGID_16_);fill:#C4CF5A;}
	.st15{fill:#DF7E4E;}
	.st16{clip-path:url(#SVGID_18_);fill:#DF7E4E;}
	.st17{fill:#35C792;}
	.st18{clip-path:url(#SVGID_20_);fill:#35C792;}
	.st19{clip-path:url(#SVGID_22_);fill:#35C792;}
	.st20{clip-path:url(#SVGID_24_);fill:#35C792;}
	.st21{clip-path:url(#SVGID_24_);fill:#AF8F69;}
</style>
<path class="st0" d="M14.3,287.1v0.3l14,5l0.1-4.8l-0.1-4.9L14.3,287.1z M39.8,279.5l-3.4,0.7l-4.2,1.3l-0.1,6.4l0.1,5.8l4,1.4
	l3.6,0.8v4.9L9.5,289.9v-5.7l30.3-9.8V279.5z"/>
<g>
	<defs>
		<rect id="SVGID_1_" x="6.4" y="3.2" width="446.1" height="336"/>
	</defs>
	<clipPath id="SVGID_2_">
		<use xlink:href="#SVGID_1_"  style="overflow:visible;"/>
	</clipPath>
	<path class="st1" d="M28.5,268.2c5.1,0,7.7-2,7.7-5.3c0-1.5-0.6-2.9-2.5-4.6l-3.1-0.1l-8.6,0.1c-0.7,1.5-1.1,2.8-1.1,4.2
		C21,266,23.4,268.3,28.5,268.2 M34.8,253.8c1.2,0,1.6-0.3,1.6-1.2c0-0.4,0-0.8-0.2-1.5l0.3-0.4l2.6,0.4c0.5,0.8,0.9,1.9,1,3
		c-0.2,2-1.5,3.2-3.3,3.5v0.4c1.5,1.8,2.4,3,3.3,4.9c0,6.3-4.1,9.8-11.1,9.8c-7.3,0-11.3-4.1-11.3-10.7c0-1.2,0.1-2.5,0.4-3.7
		l-11,0.1l-0.4-4.8l23.6,0.4L34.8,253.8z"/>
	<path class="st1" d="M25.4,234c-3.1,0-4.4,1.6-4.4,3.9c0,2.9,1.9,4.9,5.2,5.5l-0.2-9.3L25.4,234z M29.2,243.6
		c4.7-0.1,7.4-2.1,7.4-6.2c0-1.9-0.7-4.2-2-6.4l0.3-0.4l3.8,0.6c1,2,1.6,4.3,1.6,6.6c0,6.5-4.3,10.3-11.2,10.3
		c-7.1,0-11.4-4.1-11.4-10.4c0-5.1,3.2-7.9,8.4-7.9c0.7,0,1.8,0.1,2.4,0.2l0.8,0.8V243.6z"/>
	<path class="st1" d="M18.9,210.6l4,0.8l0.2,0.5c-0.8,1.5-1.5,3-1.5,4.6c0,3.4,2.6,5.3,7.2,5.3c4.8,0,7.6-2,7.6-5.6
		c0-1.6-0.6-3.4-1.4-5.1l0.3-0.4l3.9,0.5c0.7,1.7,1.1,3.8,1.1,5.8c0,5.9-4.2,9.4-11.1,9.4c-7.1,0-11.5-3.7-11.5-10
		C17.6,214.4,18.1,212.2,18.9,210.6"/>
	<path class="st1" d="M34.8,189.7c1.2,0,1.6-0.3,1.6-1.3c0-0.4,0-0.8-0.2-1.5l0.3-0.4l2.6,0.5c0.5,0.9,0.9,1.8,1,3
		c-0.2,2-1.5,3.1-3.4,3.5v0.4c1.7,1.9,2.8,3.8,3.3,5.7c0,4.8-2.3,7.3-6.4,7.3l-5.9-0.1l-9.4,0.2l-0.4-4.8l14.4,0.2
		c2.3,0,3.7-1,3.7-3.3c0-1.7-0.8-3.5-2.4-5.1H18.4l-0.4-4.6L34.8,189.7z"/>
	<path class="st1" d="M31.4,178c0.2,1.1,0.8,1.6,2,1.6c1.9,0,3-1.1,3-2.9c0-1.7-1.1-3.2-2.9-4.7l-3.6-0.1L31.4,178z M23.5,167.5
		c1.7,0,9.6,0.6,11.2,0.6c1.2,0,1.6-0.4,1.6-1.4c0-0.3,0-0.7-0.2-1.4l0.3-0.4l2.6,0.5c0.5,0.9,0.9,1.9,1,3c-0.2,1.9-1.5,3.2-3.5,3.4
		v0.3c1.6,1.5,2.8,3.1,3.5,4.9c0,4.4-2.4,7-6.2,7c-3,0-4.6-1.7-5.2-4.6l-1.7-7.5l-2.6,0c-2.4,0-3.5,1.2-3.5,3.4c0,2.1,0.9,4.2,3,6.8
		l-0.2,0.4l-3.4,0.6c-1.8-2.7-2.8-5.6-2.8-8.5C17.6,170.2,19.8,167.5,23.5,167.5"/>
	<path class="st1" d="M18.9,146l4,0.8l0.2,0.5c-0.8,1.5-1.5,3-1.5,4.6c0,3.4,2.6,5.3,7.2,5.3c4.8,0,7.6-2,7.6-5.6
		c0-1.6-0.6-3.4-1.4-5.1l0.3-0.4l3.9,0.5c0.7,1.7,1.1,3.8,1.1,5.8c0,5.9-4.2,9.4-11.1,9.4c-7.1,0-11.5-3.7-11.5-10
		C17.6,149.8,18.1,147.5,18.9,146"/>
	<path class="st1" d="M39.8,137.1v4.8l-9.1-0.3l-12.3,0.2l-0.4-4.8l12.3,0.4L39.8,137.1z M10.5,136.9c1.7,0,2.8,1,2.8,2.6
		c0,1.7-1,2.6-2.6,2.6s-2.7-1-2.7-2.7C7.9,137.8,8.9,136.9,10.5,136.9"/>
	<path class="st1" d="M9,115.7l0.5,0.1c2.2,3,4,5.7,5.9,8.5l0,0.5l-1.9,1.2c-2.3-2.8-4.4-5.3-7-8.1l0-0.5L9,115.7z M28.3,127.5
		c6,0,8.7-1.8,8.7-5.3c0-3.5-2.3-5.3-7.3-5.3c-5.9,0-8.7,1.8-8.7,5.3C21,125.7,23.4,127.5,28.3,127.5 M28.6,112.3
		c7.5,0,11.7,3.6,11.7,10.2c0,6.1-4,9.5-11,9.5c-7.5,0-11.7-3.6-11.7-10.1C17.6,115.8,21.6,112.3,28.6,112.3"/>
	<path class="st1" d="M25.5,93.6c-2.4,0-3.8,1.1-3.8,3.4c0,1.9,1,3.8,2.8,5.7l5.8,0l9.5-0.3v4.8l-9.1-0.3l-12.3,0.2l-0.4-4.6l3.2,0
		v-0.3c-1.7-1.9-2.8-3.9-3.4-5.8c0-4.9,2.3-7.4,6.4-7.3l6.1,0.1l9.5-0.2v4.9L25.5,93.6z"/>
</g>
<path class="st2" d="M435.6,290.1v0.2l8.9,3.1l0.1-3l-0.1-3.1L435.6,290.1z M451.8,285.3l-2.2,0.5l-2.7,0.8l-0.1,4.1l0.1,3.7
	l2.5,0.9l2.3,0.5v3.1l-19.3-6.9v-3.6l19.3-6.2V285.3z"/>
<g>
	<defs>
		<rect id="SVGID_3_" x="6.4" y="3.2" width="446.1" height="336"/>
	</defs>
	<clipPath id="SVGID_4_">
		<use xlink:href="#SVGID_3_"  style="overflow:visible;"/>
	</clipPath>
	<path class="st3" d="M438,271.8h2.9l0.1,0.3c-0.1,0.4-0.1,0.8-0.1,1.1c0,1.2,0.8,2.3,2.9,3.3l2,0l6.1-0.2v3.1l-5.8-0.2l-7.8,0.2
		l-0.3-2.9l2.8,0v-0.2c-2.1-1.1-2.7-2.6-2.7-3.8C437.9,272.3,438,272,438,271.8"/>
	<path class="st3" d="M448.9,262.4l0.2-0.3l1.9,0.3c0.5,1.1,0.8,2,0.9,3.1c-0.4,2.5-1.6,3.5-4,3.5l-2.2-0.1l-5.8,0v1.9l-0.2,0.1
		l-1.8-0.1v-1.8h-2.2l-1-2.7l0.2-0.3l3,0.1v-3.8l0.2-0.1l1.7,0.1v3.9l7.5,0.2c1.5,0,2-0.5,2-1.7
		C449.5,263.8,449.3,263.2,448.9,262.4"/>
	<path class="st3" d="M451.8,256.5v3.1l-5.8-0.2l-7.8,0.1l-0.3-3.1l7.8,0.2L451.8,256.5z M433.2,256.3c1.1,0,1.8,0.7,1.8,1.7
		c0,1-0.6,1.6-1.7,1.6c-1.1,0-1.7-0.7-1.7-1.7C431.5,256.9,432.1,256.3,433.2,256.3"/>
	<path class="st3" d="M438.5,243.2l2.5,0.5l0.1,0.3c-0.5,0.9-0.9,1.9-0.9,2.9c0,2.1,1.6,3.4,4.6,3.4c3.1,0,4.9-1.3,4.9-3.6
		c0-1-0.4-2.2-0.9-3.2l0.2-0.3l2.5,0.3c0.4,1.1,0.7,2.4,0.7,3.7c0,3.7-2.7,6-7,6c-4.5,0-7.3-2.4-7.3-6.3
		C437.7,245.6,438,244.2,438.5,243.2"/>
	<path class="st3" d="M448.6,229.9c0.8,0,1-0.2,1-0.8c0-0.2,0-0.5-0.1-0.9l0.2-0.3l1.7,0.3c0.3,0.5,0.6,1.2,0.7,1.9
		c-0.1,1.3-0.9,2-2.1,2.2v0.2c1.1,1.2,1.8,2.4,2.1,3.6c0,3-1.5,4.6-4,4.6l-3.7-0.1l-6,0.1l-0.3-3l9.2,0.2c1.5,0,2.4-0.7,2.4-2.1
		c0-1.1-0.5-2.2-1.5-3.3h-9.7l-0.3-2.9L448.6,229.9z"/>
</g>
<polygon class="st2" points="451.8,222 451.8,225.1 446,224.9 431,225 430.7,222 445.7,222.2 "/>
<g>
	<defs>
		<rect id="SVGID_5_" x="6.4" y="3.2" width="446.1" height="336"/>
	</defs>
	<clipPath id="SVGID_6_">
		<use xlink:href="#SVGID_5_"  style="overflow:visible;"/>
	</clipPath>
	<path class="st4" d="M446.4,214.9c0.1,0.7,0.5,1,1.3,1c1.2,0,1.9-0.7,1.9-1.8c0-1-0.7-2-1.8-3l-2.3-0.1L446.4,214.9z M441.4,208.2
		c1,0,6.1,0.4,7.1,0.4c0.8,0,1-0.2,1-0.9c0-0.2,0-0.4-0.1-0.9l0.2-0.3l1.7,0.3c0.3,0.5,0.6,1.2,0.7,1.9c-0.1,1.2-0.9,2-2.2,2.2v0.2
		c1,1,1.8,2,2.2,3.1c0,2.8-1.5,4.4-3.9,4.4c-1.9,0-2.9-1-3.3-2.9l-1-4.7l-1.6,0c-1.5,0-2.2,0.8-2.2,2.2c0,1.4,0.6,2.7,1.9,4.3
		l-0.2,0.2l-2.1,0.4c-1.2-1.7-1.8-3.6-1.8-5.4C437.7,209.9,439.1,208.2,441.4,208.2"/>
	<path class="st4" d="M438.5,194.5l2.5,0.5l0.1,0.3c-0.5,0.9-0.9,1.9-0.9,2.9c0,2.1,1.6,3.4,4.6,3.4c3.1,0,4.9-1.3,4.9-3.6
		c0-1-0.4-2.2-0.9-3.2l0.2-0.3l2.5,0.3c0.4,1.1,0.7,2.4,0.7,3.7c0,3.7-2.7,6-7,6c-4.5,0-7.3-2.4-7.3-6.3
		C437.7,196.9,438,195.5,438.5,194.5"/>
	<path class="st4" d="M451.8,188.9v3.1l-5.8-0.2l-7.8,0.2l-0.3-3.1l7.8,0.2L451.8,188.9z M433.2,188.7c1.1,0,1.8,0.7,1.8,1.7
		c0,1.1-0.6,1.7-1.7,1.7c-1.1,0-1.7-0.7-1.7-1.7C431.5,189.3,432.1,188.7,433.2,188.7"/>
	<path class="st4" d="M432.2,175.3l0.3,0.1c1.4,1.9,2.5,3.6,3.7,5.4l0,0.3l-1.2,0.8c-1.4-1.8-2.8-3.4-4.4-5.1l0-0.3L432.2,175.3z
		 M444.4,182.8c3.8,0,5.5-1.1,5.5-3.4c0-2.2-1.5-3.4-4.6-3.4c-3.8,0-5.5,1.1-5.5,3.4C439.8,181.7,441.4,182.8,444.4,182.8
		 M444.7,173.1c4.7,0,7.4,2.3,7.4,6.4c0,3.9-2.5,6.1-7,6.1c-4.7,0-7.4-2.3-7.4-6.4C437.7,175.3,440.2,173.1,444.7,173.1"/>
	<path class="st4" d="M442.7,161.2c-1.5,0-2.4,0.7-2.4,2.1c0,1.2,0.7,2.4,1.8,3.6l3.7,0l6.1-0.2v3.1l-5.8-0.2l-7.8,0.2l-0.3-2.9l2,0
		v-0.2c-1-1.2-1.8-2.5-2.1-3.7c0-3.1,1.5-4.7,4-4.6l3.9,0.1l6.1-0.2v3.1L442.7,161.2z"/>
</g>
<polygon class="st5" points="129.9,83.3 129.4,89.1 101.4,89.1 101.9,74.9 101.4,41.8 129.5,41.8 130,42.5 129.4,48.3 118.2,48 
	109.2,48.1 108.9,61.8 117.5,62 125.3,61.8 125.8,62.4 125.2,68.2 116.9,68 108.9,68.1 108.8,74.2 109,82.9 118,83 129.4,82.6 "/>
<g>
	<defs>
		<rect id="SVGID_7_" x="6.4" y="3.2" width="446.1" height="336"/>
	</defs>
	<clipPath id="SVGID_8_">
		<use xlink:href="#SVGID_7_"  style="overflow:visible;"/>
	</clipPath>
	<path class="st6" d="M139.4,71.7c0.1,7.5,3.1,11.8,8,11.8c2.4,0,4.6-0.9,7.6-3.9l0.1-4.6l-0.2-13.3c-2.4-1.3-4.4-1.8-6.6-1.8
		C142.8,59.8,139.3,63.5,139.4,71.7 M162.2,55.1l-0.6,19.2l0.5,28.5h-7.4l0.4-15.9v-1.6h-0.7c-2.4,1.9-4.2,3-7.1,4.3
		c-9.7,0-15-6.5-15-17.1c0-11.7,6.4-17.9,16.5-17.9c3.1,0,6,0.6,8.9,1.4l3.8-1.3L162.2,55.1z"/>
	<path class="st6" d="M199.1,81.2c0,1.8,0.5,2.4,2,2.4c0.6,0,1.3-0.1,2.3-0.3l0.7,0.5l-0.7,4.1c-1.3,0.8-2.9,1.4-4.6,1.6
		c-3.1-0.3-4.9-2.3-5.5-5.2h-0.6c-2.9,2.7-5.9,4.4-8.9,5.2c-7.4,0-11.4-3.6-11.4-10l0.1-9.2l-0.3-14.8l7.4-0.7l-0.4,22.6
		c-0.1,3.6,1.6,5.8,5.1,5.8c2.7,0,5.5-1.3,8-3.8v-24l7.2-0.7L199.1,81.2z"/>
	<path class="st6" d="M218.1,89.1h-7.5l0.4-14.2l-0.4-19.2l7.5-0.7l-0.6,19.2L218.1,89.1z M218.5,43.3c0,2.7-1.6,4.4-4.1,4.4
		c-2.6,0-4.1-1.5-4.1-4.1c0-2.6,1.6-4.3,4.3-4.3C217.1,39.3,218.5,40.8,218.5,43.3"/>
	<path class="st6" d="M233.1,71.4c0.1,7.9,3.2,12.1,8.3,12.1c2.3,0,4.6-0.9,7.2-3.8l0.1-4.8l-0.2-13.4c-2.4-1.1-4.4-1.7-6.6-1.7
		C236.5,59.7,232.9,63.5,233.1,71.4 M255.5,81.2c0.1,1.8,0.5,2.4,1.9,2.4c0.6,0,1.3-0.1,2.3-0.3l0.7,0.5l-0.7,4.1
		c-1.3,0.8-3,1.4-4.7,1.6c-3.1-0.3-4.9-2.3-5.5-5.2h-0.6c-2.8,2.4-4.7,3.8-7.7,5.1c-9.9,0-15.3-6.4-15.3-17.3
		c0-11.4,6.3-17.7,16.7-17.7c1.8,0,3.8,0.2,5.8,0.6L248.3,38l7.5-0.6l-0.6,36.8L255.5,81.2z"/>
	<path class="st6" d="M273.7,75.9c-1.8,0.4-2.5,1.2-2.5,3.2c0,3,1.8,4.7,4.5,4.7c2.6,0,4.9-1.7,7.4-4.5l0.2-5.7L273.7,75.9z
		 M290.2,63.7c0,2.6-0.9,15-0.9,17.5c0,1.9,0.6,2.5,2.1,2.5c0.5,0,1.1-0.1,2.2-0.3l0.7,0.5l-0.7,4.1c-1.3,0.8-3,1.4-4.6,1.6
		c-3-0.3-5-2.3-5.4-5.5h-0.5c-2.4,2.5-4.9,4.4-7.7,5.5c-6.9-0.1-10.9-3.8-10.9-9.7c0-4.6,2.6-7.2,7.2-8.2l11.7-2.6l0.1-4
		c0-3.7-1.9-5.5-5.3-5.5c-3.3,0-6.6,1.5-10.5,4.7l-0.6-0.4l-1-5.2c4.2-2.9,8.8-4.4,13.3-4.4C286,54.5,290.2,57.9,290.2,63.7"/>
	<path class="st6" d="M306.1,71.4c0.1,7.9,3.2,12.1,8.3,12.1c2.3,0,4.6-0.9,7.2-3.8l0.1-4.8l-0.2-13.4c-2.4-1.1-4.4-1.7-6.6-1.7
		C309.5,59.7,305.9,63.5,306.1,71.4 M328.5,81.2c0.1,1.8,0.5,2.4,1.9,2.4c0.6,0,1.3-0.1,2.3-0.3l0.7,0.5l-0.7,4.1
		c-1.3,0.8-2.9,1.4-4.7,1.6c-3.1-0.3-4.9-2.3-5.5-5.2H322c-2.8,2.4-4.7,3.8-7.7,5.1c-9.9,0-15.3-6.4-15.3-17.3
		c0-11.4,6.3-17.7,16.7-17.7c1.8,0,3.8,0.2,5.8,0.6L321.4,38l7.5-0.6l-0.6,36.8L328.5,81.2z"/>
</g>
<polygon class="st7" points="163.3,210.8 155.5,210.8 156,196.6 155.5,163.4 163.3,163.4 162.9,195.9 "/>
<g>
	<defs>
		<rect id="SVGID_9_" x="6.4" y="3.2" width="446.1" height="336"/>
	</defs>
	<clipPath id="SVGID_10_">
		<use xlink:href="#SVGID_9_"  style="overflow:visible;"/>
	</clipPath>
	<path class="st8" d="M195.6,188.4c0.1-3.7-1.7-6-5.2-6c-2.9,0-6,1.6-8.9,4.4l-0.1,9l0.4,14.9h-7.5l0.4-14.2l-0.4-19.2l7.2-0.7
		l-0.1,4.9h0.5c3-2.6,6.1-4.4,9.1-5.2c7.6,0,11.5,3.6,11.4,10l-0.2,9.6l0.4,14.9h-7.6L195.6,188.4z"/>
	<path class="st8" d="M234.9,178l-1.3,6.3l-0.7,0.3c-2.3-1.3-4.7-2.3-7.2-2.3c-5.2,0-8.3,4.1-8.3,11.2c0,7.5,3.2,11.9,8.8,11.9
		c2.5,0,5.4-0.9,7.9-2.2l0.7,0.4l-0.7,6c-2.7,1-6,1.7-9,1.7c-9.2,0-14.7-6.6-14.7-17.3c0-11.1,5.8-18,15.6-18
		C229,176.1,232.4,176.9,234.9,178"/>
</g>
<polygon class="st7" points="248.8,210.8 241.3,210.8 241.8,196.5 241.4,159.6 248.9,159 248.3,195.8 "/>
<g>
	<defs>
		<rect id="SVGID_11_" x="6.4" y="3.2" width="446.1" height="336"/>
	</defs>
	<clipPath id="SVGID_12_">
		<use xlink:href="#SVGID_11_"  style="overflow:visible;"/>
	</clipPath>
	<path class="st9" d="M286.1,202.9c0,1.8,0.5,2.4,2,2.4c0.6,0,1.3-0.1,2.3-0.3l0.7,0.5l-0.7,4.1c-1.3,0.8-2.9,1.4-4.6,1.6
		c-3.1-0.3-4.9-2.3-5.5-5.2h-0.6c-3,2.7-5.9,4.4-8.9,5.2c-7.5,0-11.4-3.6-11.4-10l0.1-9.2l-0.3-14.8l7.4-0.7l-0.4,22.6
		c-0.1,3.6,1.6,5.8,5.1,5.8c2.7,0,5.5-1.3,8-3.8v-24l7.2-0.7L286.1,202.9z"/>
	<path class="st9" d="M316.5,177.9l-1,5.9l-1,0.2c-2.7-1.8-5.2-2.6-7.5-2.6c-3,0-4.8,1.9-4.8,4.1c0,6.2,15.3,4.9,15.3,15.3
		c0,5.5-4.3,10.7-12.8,10.7c-3.2,0-6.9-0.8-10.3-2.3l0.9-6.3l0.8-0.5c3,2.6,6.7,4,9.4,4c3.3,0,5.2-2.1,5.2-4.4
		c0-6.3-15.3-4.9-15.3-15.6c0-5.8,4.6-10.3,12.4-10.3C310.8,176.2,313.8,176.8,316.5,177.9"/>
	<path class="st9" d="M332.9,210.8h-7.5l0.4-14.2l-0.4-19.2l7.5-0.7l-0.6,19.2L332.9,210.8z M333.3,165c0,2.7-1.6,4.4-4.1,4.4
		c-2.6,0-4.1-1.5-4.1-4.1c0-2.6,1.6-4.3,4.3-4.3C331.9,160.9,333.3,162.5,333.3,165"/>
	<path class="st9" d="M366.5,162.6l-0.1,0.7c-4.6,3.4-8.9,6.3-13.4,9.1l-0.7-0.1l-1.9-2.9c4.4-3.5,8.3-6.9,12.6-10.9l0.7,0.1
		L366.5,162.6z M347.9,192.7c0,9.4,2.8,13.6,8.3,13.6c5.5,0,8.3-3.6,8.3-11.4c0-9.3-2.8-13.6-8.3-13.6
		C350.7,181.4,347.9,185.1,347.9,192.7 M371.7,193.2c0,11.7-5.7,18.2-15.9,18.2c-9.5,0-14.9-6.2-14.9-17.1
		c0-11.7,5.7-18.2,15.9-18.2C366.3,176.1,371.7,182.3,371.7,193.2"/>
	<path class="st9" d="M401,188.4c0.1-3.7-1.7-6-5.2-6c-2.9,0-6,1.6-8.8,4.4l-0.1,9l0.4,14.9h-7.5l0.4-14.2l-0.4-19.2l7.2-0.7
		l-0.1,4.9h0.5c3-2.6,6.1-4.4,9.1-5.2c7.6,0,11.5,3.6,11.4,10l-0.2,9.6l0.4,14.9h-7.6L401,188.4z"/>
	<path class="st10" d="M123.4,282.7l2.4,0.5l0.1,0.3c-0.9,1.1-1.4,2.4-1.4,4c0,3.1,2.1,4.8,6.3,4.8c4.4,0,6.6-1.8,6.6-4.8
		c0-1.5-0.5-3-1.5-4.3l0.2-0.3l2.5,0.2c0.7,1.5,1.1,2.9,1.1,4.5c0,4.8-3.1,7.5-8.6,7.5c-5.7,0-8.9-2.9-8.9-7.8
		C122.2,285.5,122.7,284,123.4,282.7"/>
	<path class="st10" d="M133,279.2c3.4,0,4.9-1,4.9-3c0-2-1.3-3-4.1-3c-3.4,0-4.9,1-4.9,3C128.9,278.1,130.3,279.2,133,279.2
		 M133.2,270.6c4.2,0,6.6,2.1,6.6,5.7c0,3.4-2.2,5.4-6.2,5.4c-4.2,0-6.6-2.1-6.6-5.7C127,272.5,129.2,270.6,133.2,270.6"/>
	<path class="st10" d="M133,266c3.4,0,4.9-1,4.9-3c0-2-1.3-3-4.1-3c-3.4,0-4.9,1-4.9,3C128.9,265,130.3,266,133,266 M133.2,257.4
		c4.2,0,6.6,2.1,6.6,5.7c0,3.4-2.2,5.4-6.2,5.4c-4.2,0-6.6-2.1-6.6-5.7C127,259.4,129.2,257.4,133.2,257.4"/>
	<path class="st10" d="M127.3,247.7h2.6l0.1,0.3c-0.1,0.4-0.1,0.7-0.1,1c0,1.1,0.7,2,2.6,3l1.8,0l5.4-0.2v2.7l-5.2-0.2l-7,0.2
		l-0.2-2.6l2.5,0v-0.2c-1.8-1-2.4-2.3-2.4-3.4C127.2,248.2,127.2,247.9,127.3,247.7"/>
	<path class="st10" d="M133.1,244.3c2.9,0,4.4-1.1,4.4-3c0-0.8-0.3-1.7-1.4-2.6l-1.7-0.1l-4.9,0.1c-0.4,0.9-0.6,1.6-0.6,2.4
		C128.9,243,130.3,244.3,133.1,244.3 M136.7,236.1c0.7,0,0.9-0.2,0.9-0.7c0-0.2,0-0.5-0.1-0.8l0.2-0.2l1.5,0.2
		c0.3,0.5,0.5,1.1,0.6,1.7c-0.1,1.1-0.8,1.8-1.9,2v0.2c0.9,1,1.4,1.7,1.8,2.8c0,3.6-2.3,5.5-6.3,5.5c-4.1,0-6.4-2.3-6.4-6.1
		c0-0.7,0.1-1.4,0.2-2.1l-6.2,0.1l-0.2-2.7l13.3,0.2L136.7,236.1z"/>
	<path class="st10" d="M139.6,229.3v2.7l-5.2-0.2l-7,0.1l-0.2-2.7l7,0.2L139.6,229.3z M123,229.1c1,0,1.6,0.6,1.6,1.5
		c0,0.9-0.6,1.5-1.5,1.5c-0.9,0-1.5-0.6-1.5-1.5C121.5,229.6,122.1,229.1,123,229.1"/>
	<path class="st10" d="M131.5,217.7c-1.3,0-2.2,0.6-2.2,1.9c0,1.1,0.6,2.2,1.6,3.2l3.3,0l5.4-0.2v2.7l-5.2-0.2l-7,0.1l-0.2-2.6
		l1.8,0v-0.2c-0.9-1.1-1.6-2.2-1.9-3.3c0-2.8,1.3-4.2,3.6-4.1l3.5,0.1l5.4-0.1v2.8L131.5,217.7z"/>
	<path class="st10" d="M134.8,209.1c0.1,0.6,0.4,0.9,1.1,0.9c1.1,0,1.7-0.6,1.7-1.6c0-0.9-0.6-1.8-1.6-2.7l-2.1-0.1L134.8,209.1z
		 M130.3,203.1c0.9,0,5.4,0.3,6.3,0.3c0.7,0,0.9-0.2,0.9-0.8c0-0.2,0-0.4-0.1-0.8l0.2-0.2l1.5,0.3c0.3,0.5,0.5,1.1,0.6,1.7
		c-0.1,1.1-0.8,1.8-2,1.9v0.2c0.9,0.9,1.6,1.8,2,2.8c0,2.5-1.4,4-3.5,4c-1.7,0-2.6-0.9-3-2.6l-0.9-4.2l-1.4,0c-1.3,0-2,0.7-2,1.9
		c0,1.2,0.5,2.4,1.7,3.8l-0.1,0.2l-1.9,0.3c-1-1.5-1.6-3.2-1.6-4.8C127,204.7,128.2,203.1,130.3,203.1"/>
	<path class="st10" d="M127.7,191l2.3,0.5l0.1,0.3c-0.5,0.8-0.8,1.7-0.8,2.6c0,1.9,1.5,3,4.1,3c2.7,0,4.3-1.1,4.3-3.2
		c0-0.9-0.3-1.9-0.8-2.9l0.2-0.2l2.2,0.3c0.4,1,0.6,2.2,0.6,3.3c0,3.3-2.4,5.3-6.3,5.3c-4,0-6.5-2.1-6.5-5.6
		C127,193.1,127.3,191.9,127.7,191"/>
	<path class="st10" d="M139.6,186v2.7l-5.2-0.2l-7,0.1l-0.2-2.7l7,0.2L139.6,186z M123,185.8c1,0,1.6,0.6,1.6,1.5
		c0,0.9-0.6,1.5-1.5,1.5c-0.9,0-1.5-0.6-1.5-1.5C121.5,186.3,122.1,185.8,123,185.8"/>
	<path class="st10" d="M122.1,173.9l0.3,0.1c1.2,1.7,2.3,3.2,3.3,4.8l0,0.3l-1.1,0.7c-1.3-1.6-2.5-3-4-4.6l0-0.3L122.1,173.9z
		 M133,180.6c3.4,0,4.9-1,4.9-3s-1.3-3-4.1-3c-3.4,0-4.9,1-4.9,3S130.3,180.6,133,180.6 M133.2,172c4.2,0,6.6,2.1,6.6,5.7
		c0,3.4-2.2,5.4-6.2,5.4c-4.2,0-6.6-2.1-6.6-5.7C127,173.9,129.2,172,133.2,172"/>
	<path class="st10" d="M131.5,161.4c-1.3,0-2.2,0.6-2.2,1.9c0,1.1,0.6,2.2,1.6,3.2l3.3,0l5.4-0.2v2.7l-5.2-0.2l-7,0.1l-0.2-2.6
		l1.8,0v-0.2c-0.9-1.1-1.6-2.2-1.9-3.3c0-2.8,1.3-4.2,3.6-4.1l3.5,0.1l5.4-0.1v2.8L131.5,161.4z"/>
</g>
<polygon class="st11" points="57.9,147.5 48,147.5 48.7,129.4 48,87.5 57.9,87.5 57.4,128.6 "/>
<g>
	<defs>
		<rect id="SVGID_13_" x="6.4" y="3.2" width="446.1" height="336"/>
	</defs>
	<clipPath id="SVGID_14_">
		<use xlink:href="#SVGID_13_"  style="overflow:visible;"/>
	</clipPath>
	<path class="st12" d="M98.9,119.2c0.1-4.7-2.2-7.6-6.6-7.6c-3.7,0-7.6,2.1-11.2,5.6l-0.1,11.4l0.6,18.9H72l0.6-18l-0.5-24.4
		l9.1-0.8l-0.1,6.3h0.7c3.7-3.3,7.8-5.5,11.5-6.6c9.6,0,14.6,4.6,14.5,12.6l-0.3,12.1l0.5,18.9h-9.6L98.9,119.2z"/>
	<path class="st12" d="M142.3,138.6l0.9,0.7l-0.9,6c-3.4,1.6-6.3,2.5-9.5,2.8c-7.8-1.2-11-5-11-12.4l0.4-6.7l-0.1-18.2h-5.9
		l-0.4-0.6l0.5-5.5h5.7v-6.8l8.4-3.2l0.8,0.7l-0.2,9.2h12l0.4,0.7l-0.5,5.4h-12.1l-0.5,23.4c-0.1,4.7,1.6,6.2,5.4,6.2
		C137.7,140.3,139.8,139.8,142.3,138.6"/>
	<path class="st12" d="M174.4,119c0-6.1-3.1-8.8-7.8-8.8c-5.7,0-9.6,3.7-10.8,10.4l18.4-0.5L174.4,119z M155.4,126.4
		c0.2,9.2,4.1,14.6,12.3,14.6c3.8,0,8.4-1.4,12.6-3.9l0.8,0.6l-1.1,7.6c-4,2-8.6,3.2-13.1,3.2c-12.9,0-20.4-8.5-20.4-22.1
		c0-14,8.1-22.5,20.6-22.5c10,0,15.7,6.3,15.7,16.5c0,1.3-0.2,3.6-0.4,4.7l-1.6,1.5H155.4z"/>
	<path class="st12" d="M216.6,118.3c0-5.3-2.8-8.3-8.5-8.3c-5.8,0-9,3-9,8.6c0,5.5,3,8.7,8.6,8.7C213.4,127.3,216.6,124,216.6,118.3
		 M204.1,146.4c-3.8,2.4-6,4.7-6,7.3c0,3.3,3.2,5.8,9.5,5.8c6.5,0,11.3-2.7,11.3-6.7C218.9,147.8,211.4,147.5,204.1,146.4
		 M231.4,109c-2.5,0.8-5.2,1.3-8,1.8l-0.2,0.4c1.2,2.1,1.8,4.5,1.8,7.2c0,9.2-6.7,15-17.7,15c-2.1,0-3.9-0.2-5.7-0.6
		c-1.5,1.2-2,2.1-2,3.1c0,6.6,27.5,0.7,27.5,15c0,8.3-8.9,14.7-20.6,14.7c-10.8,0-16.5-5.3-16.5-12.5c2-3.3,4.9-5.5,8-7.6V145
		c-3.9-1.3-6.8-3.5-6.8-7.8c1.5-2.1,3.5-4.1,6-5.7V131c-4.2-2.3-6.4-6.5-6.4-12c0-9.6,6.9-15.2,17.5-15.2c3.4,0,6.2,0.6,8.6,1.6
		c4.7-0.7,9.3-1.9,13.8-3.3l0.8,0.6V109z"/>
	<path class="st12" d="M261.6,104.5v9.1l-1,0.3c-1.3-0.4-2.6-0.5-3.5-0.5c-3.8,0-7.1,2.6-10.4,9.1l-0.1,6.2l0.7,18.9h-9.5l0.7-18
		l-0.6-24.4l9.1-0.8l-0.1,8.6h0.7c3.6-6.4,8-8.5,11.8-8.5C260,104.3,261,104.4,261.6,104.5"/>
	<path class="st12" d="M276.4,130.7c-2.2,0.5-3.2,1.5-3.2,4c0,3.8,2.2,6,5.7,6c3.3,0,6.3-2.2,9.3-5.7l0.3-7.2L276.4,130.7z
		 M297.3,115.2c0,3.3-1.1,19-1.1,22.1c0,2.4,0.7,3.2,2.7,3.2c0.7,0,1.4-0.1,2.8-0.4l0.8,0.7l-0.9,5.2c-1.7,1-3.7,1.8-5.9,2.1
		c-3.8-0.4-6.4-2.9-6.8-6.9h-0.7c-3,3.2-6.2,5.6-9.7,7c-8.7-0.1-13.8-4.8-13.8-12.2c0-5.9,3.3-9.1,9.1-10.4l14.8-3.3l0.1-5
		c0-4.7-2.4-7-6.7-7c-4.2,0-8.3,1.9-13.4,6l-0.7-0.5l-1.2-6.6c5.3-3.6,11.1-5.6,16.8-5.6C291.9,103.6,297.3,107.9,297.3,115.2"/>
	<path class="st12" d="M339.8,106l-1.6,7.9l-0.9,0.4c-2.9-1.7-6-2.9-9.2-2.9c-6.6,0-10.6,5.1-10.6,14.2c0,9.5,4,15.1,11.1,15.1
		c3.2,0,6.8-1.1,10-2.8l0.8,0.6l-0.9,7.7c-3.5,1.3-7.6,2.2-11.4,2.2c-11.7,0-18.6-8.3-18.6-22c0-14.1,7.4-22.8,19.7-22.8
		C332.3,103.6,336.7,104.5,339.8,106"/>
	<path class="st12" d="M357.3,147.5h-9.5l0.6-18l-0.5-24.4l9.5-0.8l-0.7,24.4L357.3,147.5z M357.8,89.5c0,3.4-2.1,5.5-5.2,5.5
		c-3.3,0-5.1-2-5.1-5.2c0-3.3,2.1-5.4,5.4-5.4C356.1,84.3,357.8,86.3,357.8,89.5"/>
	<path class="st12" d="M399.8,86.5l-0.2,0.9c-5.9,4.3-11.3,7.9-16.9,11.6l-0.9-0.1l-2.4-3.7c5.5-4.5,10.6-8.7,16-13.8l0.9,0.1
		L399.8,86.5z M376.3,124.6c0,11.9,3.6,17.2,10.6,17.2s10.6-4.6,10.6-14.4c0-11.8-3.5-17.2-10.6-17.2S376.3,115,376.3,124.6
		 M406.4,125.2c0,14.8-7.2,23.1-20.1,23.1c-12.1,0-18.9-7.8-18.9-21.7c0-14.8,7.2-23.1,20.1-23.1
		C399.6,103.6,406.4,111.4,406.4,125.2"/>
	<path class="st12" d="M443.5,119.2c0.1-4.7-2.1-7.6-6.6-7.6c-3.7,0-7.6,2.1-11.2,5.6l-0.1,11.4l0.6,18.9h-9.5l0.6-18l-0.5-24.4
		l9.1-0.8l-0.1,6.3h0.7c3.7-3.3,7.8-5.5,11.5-6.6c9.6,0,14.6,4.6,14.5,12.6l-0.3,12.1l0.5,18.9h-9.6L443.5,119.2z"/>
</g>
<polygon class="st13" points="234.9,32.5 230.6,32.5 230.9,24.5 230.6,5.9 235,5.9 234.7,24.1 "/>
<g>
	<defs>
		<rect id="SVGID_15_" x="6.4" y="3.2" width="446.1" height="336"/>
	</defs>
	<clipPath id="SVGID_16_">
		<use xlink:href="#SVGID_15_"  style="overflow:visible;"/>
	</clipPath>
	<path class="st14" d="M253.1,20c0-2.1-1-3.4-2.9-3.4c-1.7,0-3.4,0.9-5,2.5l0,5l0.2,8.4h-4.2l0.2-8l-0.2-10.8l4-0.4l0,2.8h0.3
		c1.7-1.4,3.4-2.4,5.1-2.9c4.3,0,6.5,2,6.4,5.6l-0.1,5.4l0.2,8.4h-4.3L253.1,20z"/>
	<path class="st14" d="M274.5,3.8l-0.2,3.2l-0.3,0.2c-1.3-0.6-2.2-0.8-3.2-0.8c-1.9,0-3.1,1.2-3.1,3.6l0,3.6h4.9l0.1,0.3l-0.2,2.4
		h-4.8l-0.1,7.9l0.3,8.4h-4.2l0.2-8l-0.1-8.3h-2.9l-0.2-0.2l0.2-2.4h2.8l0-2.9c0-4.7,2.7-7.3,7.5-7.3C272.2,3.4,273.3,3.5,274.5,3.8
		"/>
	<path class="st14" d="M277.2,22.4c0,5.3,1.6,7.6,4.7,7.6c3.1,0,4.7-2,4.7-6.4c0-5.2-1.6-7.6-4.7-7.6
		C278.8,16,277.2,18.1,277.2,22.4 M290.5,22.7c0,6.5-3.2,10.2-8.9,10.2c-5.3,0-8.4-3.5-8.4-9.6c0-6.5,3.2-10.2,8.9-10.2
		C287.5,13.1,290.5,16.5,290.5,22.7"/>
	<path class="st14" d="M305.6,13.5v4l-0.5,0.1c-0.6-0.2-1.2-0.2-1.5-0.2c-1.7,0-3.1,1.2-4.6,4l0,2.7l0.3,8.4H295l0.3-8l-0.2-10.8
		l4-0.4l0,3.8h0.3c1.6-2.9,3.6-3.8,5.2-3.8C304.9,13.4,305.3,13.4,305.6,13.5"/>
	<path class="st14" d="M332.4,20c0-2.1-1-3.4-2.9-3.4c-1.7,0-3.3,0.9-4.9,2.4l-0.1,5.1l0.2,8.4h-4.2l0.3-12.5c0-2.1-1-3.4-2.9-3.4
		c-1.7,0-3.4,0.9-5,2.5l0,5l0.2,8.4h-4.2l0.2-8l-0.2-10.8l4-0.4l0,2.8h0.3c1.7-1.4,3.4-2.4,5.1-2.9c3.1,0,5.1,1.1,6,3.1h0.2
		c1.7-1.5,3.7-2.6,5.5-3.1c4.3,0,6.5,2,6.4,5.6l-0.1,5.4l0.2,8.4h-4.3L332.4,20z"/>
	<path class="st14" d="M345.6,25.1c-1,0.2-1.4,0.7-1.4,1.8c0,1.7,1,2.6,2.5,2.6c1.4,0,2.8-1,4.1-2.5l0.1-3.2L345.6,25.1z
		 M354.9,18.2c0,1.4-0.5,8.4-0.5,9.8c0,1.1,0.3,1.4,1.2,1.4c0.3,0,0.6,0,1.2-0.2l0.4,0.3l-0.4,2.3c-0.7,0.5-1.7,0.8-2.6,0.9
		c-1.7-0.2-2.8-1.3-3-3.1h-0.3c-1.3,1.4-2.7,2.5-4.3,3.1c-3.8,0-6.1-2.1-6.1-5.4c0-2.6,1.4-4,4-4.6l6.5-1.4l0-2.2
		c0-2.1-1.1-3.1-3-3.1c-1.9,0-3.7,0.8-5.9,2.6l-0.3-0.2l-0.5-2.9c2.4-1.6,4.9-2.5,7.4-2.5C352.5,13.1,354.9,15,354.9,18.2"/>
	<path class="st14" d="M373.7,14.1l-0.7,3.5l-0.4,0.2c-1.3-0.7-2.6-1.3-4.1-1.3c-2.9,0-4.7,2.3-4.7,6.3c0,4.2,1.8,6.7,4.9,6.7
		c1.4,0,3-0.5,4.4-1.2l0.4,0.2l-0.4,3.4c-1.5,0.6-3.4,1-5,1c-5.2,0-8.2-3.7-8.2-9.7c0-6.2,3.3-10.1,8.7-10.1
		C370.4,13.1,372.3,13.5,373.7,14.1"/>
	<path class="st14" d="M381.4,32.5h-4.2l0.2-8l-0.2-10.8l4.2-0.4l-0.3,10.8L381.4,32.5z M381.7,6.8c0,1.5-0.9,2.4-2.3,2.4
		c-1.4,0-2.3-0.9-2.3-2.3s0.9-2.4,2.4-2.4C380.9,4.5,381.7,5.4,381.7,6.8"/>
	<path class="st14" d="M400.2,5.5l-0.1,0.4c-2.6,1.9-5,3.5-7.5,5.1l-0.4,0l-1.1-1.7c2.4-2,4.7-3.8,7.1-6.1l0.4,0L400.2,5.5z
		 M389.9,22.4c0,5.3,1.6,7.6,4.7,7.6c3.1,0,4.7-2,4.7-6.4c0-5.2-1.6-7.6-4.7-7.6C391.4,16,389.9,18.1,389.9,22.4 M403.2,22.7
		c0,6.5-3.2,10.2-8.9,10.2c-5.3,0-8.4-3.5-8.4-9.6c0-6.5,3.2-10.2,8.9-10.2C400.2,13.1,403.2,16.5,403.2,22.7"/>
	<path class="st14" d="M419.6,20c0-2.1-1-3.4-2.9-3.4c-1.7,0-3.4,0.9-5,2.5l0,5l0.2,8.4h-4.2l0.2-8l-0.2-10.8l4-0.4l0,2.8h0.3
		c1.7-1.4,3.4-2.4,5.1-2.9c4.3,0,6.5,2,6.4,5.6l-0.1,5.4l0.2,8.4h-4.3L419.6,20z"/>
</g>
<polygon class="st15" points="66.8,321.2 66.8,339.2 88,338.9 97.1,339.2 97.1,321.3 93.3,321 92.9,321.3 93.1,328.6 93.1,334.4 
	87.5,334.5 83.6,334.4 83.5,329.3 83.7,324 79.9,323.6 79.6,323.9 79.7,328.9 79.6,334.4 70.8,334.3 70.7,328.5 70.9,321.3 
	67.2,320.9 "/>
<g>
	<defs>
		<rect id="SVGID_17_" x="6.4" y="3.2" width="446.1" height="336"/>
	</defs>
	<clipPath id="SVGID_18_">
		<use xlink:href="#SVGID_17_"  style="overflow:visible;"/>
	</clipPath>
	<path class="st16" d="M85.7,314.9c5.1,0,7.7-2,7.7-5.3c0-1.5-0.6-2.9-2.5-4.6l-3.1-0.1l-8.6,0.1c-0.7,1.5-1.1,2.8-1.1,4.2
		C78.2,312.7,80.6,315,85.7,314.9 M92,300.6c1.2,0,1.6-0.3,1.6-1.2c0-0.4,0-0.8-0.2-1.5l0.3-0.4l2.6,0.4c0.5,0.9,0.9,1.9,1,3
		c-0.2,2-1.5,3.2-3.3,3.5v0.4c1.5,1.8,2.4,3,3.3,4.9c0,6.3-4.1,9.8-11.1,9.8c-7.3,0-11.3-4.1-11.3-10.7c0-1.2,0.1-2.5,0.4-3.7
		l-11,0.1l-0.4-4.8l23.6,0.4L92,300.6z"/>
	<path class="st16" d="M92,276.2c1.2,0,1.6-0.3,1.6-1.3c0-0.4,0-0.8-0.2-1.5l0.3-0.4l2.6,0.5c0.5,0.9,0.9,1.8,1,3
		c-0.2,2-1.5,3.1-3.4,3.5v0.4c1.7,1.9,2.8,3.8,3.3,5.7c0,4.8-2.3,7.3-6.4,7.3l-5.9-0.1l-9.4,0.2l-0.4-4.8l14.4,0.2
		c2.3,0,3.7-1,3.7-3.3c0-1.7-0.8-3.5-2.4-5.1H75.6l-0.4-4.6L92,276.2z"/>
	<path class="st16" d="M76.1,254.7l4,0.8l0.2,0.5c-0.8,1.5-1.5,3-1.5,4.6c0,3.4,2.6,5.3,7.2,5.3c4.8,0,7.6-2,7.6-5.6
		c0-1.6-0.6-3.4-1.4-5.1l0.3-0.4l3.9,0.5c0.7,1.7,1.1,3.8,1.1,5.8c0,5.9-4.2,9.4-11.1,9.4c-7.1,0-11.5-3.7-11.5-10
		C74.9,258.5,75.3,256.3,76.1,254.7"/>
	<path class="st16" d="M88.6,246.9c0.2,1.1,0.8,1.6,2,1.6c1.9,0,3-1.1,3-2.9c0-1.7-1.1-3.2-2.9-4.7l-3.6-0.1L88.6,246.9z
		 M80.8,236.3c1.7,0,9.6,0.6,11.2,0.6c1.2,0,1.6-0.4,1.6-1.4c0-0.3,0-0.7-0.2-1.4l0.3-0.4l2.6,0.5c0.5,0.8,0.9,1.9,1,3
		c-0.2,1.9-1.5,3.2-3.5,3.4v0.3c1.6,1.5,2.8,3.1,3.5,4.9c0,4.4-2.4,7-6.2,7c-3,0-4.6-1.7-5.2-4.6l-1.7-7.5l-2.5,0
		c-2.4,0-3.5,1.2-3.5,3.4c0,2.1,0.9,4.2,3,6.8l-0.2,0.4l-3.4,0.6c-1.8-2.7-2.8-5.6-2.8-8.5C74.9,239,77,236.3,80.8,236.3"/>
	<path class="st16" d="M76.1,214.8l4,0.8l0.2,0.5c-0.8,1.5-1.5,3-1.5,4.6c0,3.4,2.6,5.3,7.2,5.3c4.8,0,7.6-2,7.6-5.6
		c0-1.6-0.6-3.4-1.4-5.1l0.3-0.4l3.9,0.5c0.7,1.7,1.1,3.8,1.1,5.8c0,5.9-4.2,9.4-11.1,9.4c-7.1,0-11.5-3.7-11.5-10
		C74.9,218.6,75.3,216.4,76.1,214.8"/>
	<path class="st16" d="M97.1,206v4.8l-9.1-0.3l-12.3,0.2l-0.4-4.8l12.3,0.4L97.1,206z M67.7,205.7c1.7,0,2.8,1,2.8,2.6
		c0,1.7-1,2.6-2.6,2.6c-1.7,0-2.7-1-2.7-2.7C65.2,206.6,66.1,205.7,67.7,205.7"/>
	<path class="st16" d="M66.2,184.5l0.5,0.1c2.2,3,4,5.7,5.9,8.5l0,0.5l-1.9,1.2c-2.3-2.8-4.4-5.3-7-8.1l0-0.5L66.2,184.5z
		 M85.5,196.4c6,0,8.7-1.8,8.7-5.3c0-3.5-2.3-5.3-7.3-5.3c-5.9,0-8.7,1.8-8.7,5.3C78.2,194.6,80.6,196.4,85.5,196.4 M85.8,181.2
		c7.5,0,11.7,3.6,11.7,10.2c0,6.1-4,9.5-11,9.5c-7.5,0-11.7-3.6-11.7-10.1C74.9,184.6,78.8,181.2,85.8,181.2"/>
	<path class="st16" d="M82.8,162.4c-2.4,0-3.8,1.1-3.8,3.4c0,1.9,1,3.8,2.8,5.7l5.8,0l9.5-0.3v4.8l-9.1-0.3L75.6,176l-0.4-4.6l3.2,0
		v-0.3c-1.7-1.9-2.8-3.9-3.4-5.8c0-4.9,2.3-7.4,6.4-7.3l6.1,0.1l9.5-0.2v4.9L82.8,162.4z"/>
</g>
<polygon class="st17" points="104.7,23.8 107.2,23.8 109.8,23.8 110,24 109.8,25.9 107,25.8 104.7,25.9 104.7,27.5 104.8,32.5 
	102.2,32.5 102.4,27.8 102.2,16.8 111,16.8 111.2,17 111,19 107.3,18.8 104.8,18.8 "/>
<g>
	<defs>
		<rect id="SVGID_19_" x="6.4" y="3.2" width="446.1" height="336"/>
	</defs>
	<clipPath id="SVGID_20_">
		<use xlink:href="#SVGID_19_"  style="overflow:visible;"/>
	</clipPath>
	<path class="st18" d="M113.4,26.5c0,3.1,0.9,4.5,2.8,4.5c1.8,0,2.8-1.2,2.8-3.8c0-3.1-0.9-4.5-2.8-4.5
		C114.4,22.7,113.4,24,113.4,26.5 M121.3,26.7c0,3.9-1.9,6.1-5.3,6.1c-3.2,0-5-2.1-5-5.7c0-3.9,1.9-6.1,5.3-6.1
		C119.5,21,121.3,23,121.3,26.7"/>
	<path class="st18" d="M131.4,21.6l-0.4,2.1l-0.2,0.1c-0.8-0.4-1.6-0.8-2.4-0.8c-1.7,0-2.8,1.3-2.8,3.7c0,2.5,1.1,4,2.9,4
		c0.8,0,1.8-0.3,2.6-0.7l0.2,0.1l-0.2,2c-0.9,0.3-2,0.6-3,0.6c-3.1,0-4.9-2.2-4.9-5.8c0-3.7,1.9-6,5.2-6
		C129.4,21,130.6,21.2,131.4,21.6"/>
	<path class="st18" d="M135.4,28.1c-0.6,0.1-0.8,0.4-0.8,1.1c0,1,0.6,1.6,1.5,1.6c0.9,0,1.6-0.6,2.5-1.5l0.1-1.9L135.4,28.1z
		 M140.9,24c0,0.9-0.3,5-0.3,5.8c0,0.6,0.2,0.8,0.7,0.8c0.2,0,0.4,0,0.7-0.1l0.2,0.2l-0.2,1.4c-0.4,0.3-1,0.5-1.5,0.5
		c-1-0.1-1.7-0.8-1.8-1.8h-0.2c-0.8,0.8-1.6,1.5-2.5,1.8c-2.3,0-3.6-1.3-3.6-3.2c0-1.5,0.9-2.4,2.4-2.7l3.9-0.9l0-1.3
		c0-1.2-0.6-1.8-1.8-1.8c-1.1,0-2.2,0.5-3.5,1.6l-0.2-0.1l-0.3-1.7c1.4-1,2.9-1.5,4.4-1.5C139.5,21,140.9,22.1,140.9,24"/>
</g>
<polygon class="st17" points="147.4,32.5 144.8,32.5 145,27.7 144.9,15.5 147.4,15.3 147.2,27.5 "/>
<g>
	<defs>
		<rect id="SVGID_21_" x="6.4" y="3.2" width="446.1" height="336"/>
	</defs>
	<clipPath id="SVGID_22_">
		<use xlink:href="#SVGID_21_"  style="overflow:visible;"/>
	</clipPath>
	<path class="st19" d="M153.5,32.5H151l0.1-4.7l-0.1-6.4l2.5-0.2l-0.2,6.4L153.5,32.5z M153.6,17.3c0,0.9-0.5,1.4-1.4,1.4
		c-0.9,0-1.3-0.5-1.3-1.4c0-0.9,0.5-1.4,1.4-1.4C153.1,15.9,153.6,16.4,153.6,17.3"/>
</g>
<polygon class="st17" points="163.5,21.2 164.5,21.2 164.6,22.7 158.6,30.8 162.6,30.8 164.6,30.6 164.7,30.8 164.5,32.5 162,32.5 
	157.3,32.5 156,32.5 156,31.1 162,22.9 158.1,22.9 156.3,23.1 156.1,22.9 156.3,21.1 158.5,21.2 "/>
<g>
	<defs>
		<rect id="SVGID_23_" x="6.4" y="3.2" width="446.1" height="336"/>
	</defs>
	<clipPath id="SVGID_24_">
		<use xlink:href="#SVGID_23_"  style="overflow:visible;"/>
	</clipPath>
	<path class="st20" d="M169.4,28.1c-0.6,0.1-0.8,0.4-0.8,1.1c0,1,0.6,1.6,1.5,1.6c0.9,0,1.6-0.6,2.5-1.5l0.1-1.9L169.4,28.1z
		 M174.9,24c0,0.9-0.3,5-0.3,5.8c0,0.6,0.2,0.8,0.7,0.8c0.2,0,0.4,0,0.7-0.1l0.2,0.2l-0.2,1.4c-0.4,0.3-1,0.5-1.5,0.5
		c-1-0.1-1.7-0.8-1.8-1.8h-0.2c-0.8,0.8-1.6,1.5-2.5,1.8c-2.3,0-3.6-1.3-3.6-3.2c0-1.5,0.9-2.4,2.4-2.7l3.9-0.9l0-1.3
		c0-1.2-0.6-1.8-1.8-1.8c-1.1,0-2.2,0.5-3.5,1.6l-0.2-0.1l-0.3-1.7c1.4-1,2.9-1.5,4.4-1.5C173.5,21,174.9,22.1,174.9,24"/>
	<path class="st20" d="M186.1,21.6l-0.4,2.1l-0.2,0.1c-0.8-0.4-1.6-0.8-2.4-0.8c-1.7,0-2.8,1.3-2.8,3.7c0,2.5,1.1,4,2.9,4
		c0.8,0,1.8-0.3,2.6-0.7l0.2,0.1l-0.2,2c-0.9,0.3-2,0.6-3,0.6c-3.1,0-4.9-2.2-4.9-5.8c0-3.7,1.9-6,5.2-6
		C184.1,21,185.3,21.2,186.1,21.6"/>
	<path class="st20" d="M190.7,32.5h-2.5l0.1-4.7l-0.1-6.4l2.5-0.2l-0.2,6.4L190.7,32.5z M190.8,17.3c0,0.9-0.5,1.4-1.4,1.4
		c-0.9,0-1.3-0.5-1.3-1.4c0-0.9,0.5-1.4,1.4-1.4C190.3,15.9,190.8,16.4,190.8,17.3"/>
	<path class="st20" d="M201.8,16.5l0,0.2c-1.5,1.1-3,2.1-4.4,3l-0.2,0l-0.6-1c1.4-1.2,2.8-2.3,4.2-3.6l0.2,0L201.8,16.5z
		 M195.7,26.5c0,3.1,0.9,4.5,2.8,4.5c1.8,0,2.8-1.2,2.8-3.8c0-3.1-0.9-4.5-2.8-4.5C196.6,22.7,195.7,24,195.7,26.5 M203.5,26.7
		c0,3.9-1.9,6.1-5.3,6.1c-3.2,0-5-2.1-5-5.7c0-3.9,1.9-6.1,5.3-6.1C201.8,21,203.5,23,203.5,26.7"/>
	<path class="st20" d="M213.3,25.1c0-1.2-0.6-2-1.7-2c-1,0-2,0.5-2.9,1.5l0,3l0.1,5h-2.5l0.1-4.7l-0.1-6.4l2.4-0.2l0,1.6h0.2
		c1-0.9,2-1.4,3-1.7c2.5,0,3.8,1.2,3.8,3.3l-0.1,3.2l0.1,5h-2.5L213.3,25.1z"/>
	<path class="st21" d="M349.9,65.7c2.2-0.4,3.4-1.9,3.4-4.4c0-2.4-1.3-3.5-3.7-3.6l-2.6,0.1l-0.1,7.8L349.9,65.7z M350.4,55.3
		c3.9,0,6.1,2,6.1,5.8c0,4.3-2.8,7-7.5,7h-2.1v0.4l0.2,6.1h-3.2l0.2-5.8l-0.2-13.5L350.4,55.3z"/>
	<path class="st21" d="M366.7,60.8v2.9l-0.3,0.1c-0.4-0.1-0.8-0.1-1.1-0.1c-1.2,0-2.3,0.8-3.3,2.9l0,2l0.2,6.1H359l0.2-5.8l-0.2-7.8
		l2.9-0.3l0,2.8h0.2c1.1-2.1,2.6-2.7,3.8-2.7C366.2,60.7,366.5,60.7,366.7,60.8"/>
	<path class="st21" d="M372.1,74.6H369l0.2-5.8l-0.2-7.8l3.1-0.3l-0.2,7.8L372.1,74.6z M372.2,55.9c0,1.1-0.7,1.8-1.7,1.8
		c-1.1,0-1.7-0.6-1.7-1.7c0-1.1,0.7-1.7,1.7-1.7C371.7,54.3,372.2,54.9,372.2,55.9"/>
	<path class="st21" d="M378.2,67.2c0,3.8,1.1,5.5,3.4,5.5c2.3,0,3.4-1.5,3.4-4.6c0-3.8-1.1-5.5-3.4-5.5
		C379.3,62.6,378.2,64.1,378.2,67.2 M387.8,67.4c0,4.7-2.3,7.4-6.5,7.4c-3.9,0-6.1-2.5-6.1-7c0-4.7,2.3-7.4,6.5-7.4
		C385.7,60.5,387.8,63,387.8,67.4"/>
	<path class="st21" d="M398.8,60.8v2.9l-0.3,0.1c-0.4-0.1-0.8-0.1-1.1-0.1c-1.2,0-2.3,0.8-3.3,2.9l0,2l0.2,6.1h-3.1l0.2-5.8
		l-0.2-7.8l2.9-0.3l0,2.8h0.2c1.1-2.1,2.6-2.7,3.8-2.7C398.3,60.7,398.6,60.7,398.8,60.8"/>
	<path class="st21" d="M404.1,74.6h-3.1l0.2-5.8l-0.2-7.8l3.1-0.3l-0.2,7.8L404.1,74.6z M404.3,55.9c0,1.1-0.7,1.8-1.7,1.8
		c-1,0-1.7-0.6-1.7-1.7c0-1.1,0.7-1.7,1.7-1.7C403.8,54.3,404.3,54.9,404.3,55.9"/>
	<path class="st21" d="M410.2,67.3c0,3.2,1.3,4.9,3.4,4.9c0.9,0,1.9-0.4,2.9-1.6l0.1-2l-0.1-5.5c-1-0.5-1.8-0.7-2.7-0.7
		C411.6,62.6,410.2,64.1,410.2,67.3 M419.4,71.4c0,0.8,0.2,1,0.8,1c0.2,0,0.5,0,0.9-0.1l0.3,0.2l-0.3,1.7c-0.5,0.3-1.2,0.6-1.9,0.7
		c-1.3-0.1-2-0.9-2.2-2.1h-0.2c-1.1,1-1.9,1.5-3.1,2.1c-4,0-6.2-2.6-6.2-7.1c0-4.6,2.6-7.2,6.8-7.2c0.8,0,1.6,0.1,2.3,0.2l-0.1-7
		l3.1-0.2l-0.2,15L419.4,71.4z"/>
	<path class="st21" d="M426.8,69.2c-0.7,0.1-1,0.5-1,1.3c0,1.2,0.7,1.9,1.8,1.9c1.1,0,2-0.7,3-1.8l0.1-2.3L426.8,69.2z M433.5,64.2
		c0,1.1-0.4,6.1-0.4,7.1c0,0.8,0.2,1,0.9,1c0.2,0,0.5,0,0.9-0.1l0.3,0.2l-0.3,1.7c-0.5,0.3-1.2,0.6-1.9,0.7c-1.2-0.1-2-0.9-2.2-2.2
		h-0.2c-1,1-2,1.8-3.1,2.3c-2.8,0-4.4-1.5-4.4-3.9c0-1.9,1-2.9,2.9-3.3l4.7-1.1l0-1.6c0-1.5-0.8-2.3-2.2-2.3c-1.4,0-2.7,0.6-4.3,1.9
		l-0.2-0.1l-0.4-2.1c1.7-1.2,3.6-1.8,5.4-1.8C431.8,60.5,433.5,61.8,433.5,64.2"/>
	<path class="st21" d="M440,67.3c0,3.2,1.3,4.9,3.4,4.9c0.9,0,1.9-0.4,2.9-1.6l0.1-2l-0.1-5.5c-1-0.5-1.8-0.7-2.7-0.7
		C441.4,62.6,439.9,64.1,440,67.3 M449.1,71.4c0,0.8,0.2,1,0.8,1c0.2,0,0.5,0,0.9-0.1l0.3,0.2l-0.3,1.7c-0.5,0.3-1.2,0.6-1.9,0.7
		c-1.3-0.1-2-0.9-2.2-2.1h-0.2c-1.1,1-1.9,1.5-3.1,2.1c-4,0-6.2-2.6-6.2-7.1c0-4.6,2.6-7.2,6.8-7.2c0.8,0,1.6,0.1,2.3,0.2l-0.1-7
		l3.1-0.2l-0.2,15L449.1,71.4z"/>
</g>
</svg>
