<?xml version="1.0" encoding="utf-8"?>
<!-- Generator: Adobe Illustrator 24.2.3, SVG Export Plug-In . SVG Version: 6.00 Build 0)  -->
<svg version="1.1" id="Capa_1" xmlns="http://www.w3.org/2000/svg" xmlns:xlink="http://www.w3.org/1999/xlink" x="0px" y="0px"
	 viewBox="0 0 341.5 313.1" style="enable-background:new 0 0 341.5 313.1;" xml:space="preserve">
<style type="text/css">
	.st0{fill:#FFFFFF;}
	.st1{fill:none;}
</style>
<g>
	<path class="st0" d="M167.1,282.8c-1.9,0.9-3.4,1.3-5.2,1.3c-4.1,0-6.1-2.9-6.1-7.3c0-4.2,2.1-7.1,6.4-7.1c2.1,0,3.5,0.5,4.6,1.2
		l-1.1,2c-0.8-0.5-1.9-0.9-3.4-0.9c-2.5,0-3.6,1.9-3.6,4.6c0,3.3,1.2,5.1,3.5,5.1c0.9,0,1.8-0.2,2.4-0.5v-2.5h-1.9l-0.1-2h4.5V282.8
		z"/>
	<path class="st0" d="M178.3,278.8c0,3.4-1.7,5.3-4.7,5.3c-3,0-4.7-1.8-4.7-5.3c0-3,1.6-5.2,4.7-5.2
		C176.7,273.6,178.3,275.9,178.3,278.8 M175.6,278.8c0-2.4-0.7-3.3-2-3.3c-1.3,0-1.9,0.9-1.9,3.3c0,2.3,0.6,3.3,1.9,3.3
		C174.9,282.1,175.6,281.2,175.6,278.8"/>
	<path class="st0" d="M182.8,274.8c0.5-0.6,1.5-1.2,2.7-1.2c2.4,0,4.1,1.7,4.1,5.2c0,3.5-2.1,5.3-4.4,5.3c-1.4,0-2.3-0.6-2.9-1.4
		l-0.5,1.2h-1.4v-14.2h2.7v3.5L182.8,274.8z M183,281.1c0.4,0.6,1.1,1,1.8,1c1.2,0,2-0.9,2-3.3c0-2.4-0.8-3.2-2-3.2
		c-0.7,0-1.4,0.4-1.9,0.8V281.1z"/>
	<path class="st0" d="M192.4,283.9v-8.1l-1.1-0.2v-1.7h3.8v10.1H192.4z M192.4,269.7h2.7v2.4h-2.7V269.7z"/>
	<path class="st0" d="M199.8,279.6c0,1.6,0.9,2.5,2.6,2.5c1,0,2.1-0.4,2.9-0.9l0.5,1.9c-0.8,0.4-2.2,1-3.8,1c-3.1,0-5-1.9-5-5.3
		c0-3.1,1.5-5.2,4.7-5.2c3,0,4.3,2.3,4.3,4.8v1.2H199.8z M201.7,275.6c-1.3,0-1.9,1.2-1.9,2.4h3.7
		C203.5,276.7,203.1,275.6,201.7,275.6"/>
	<path class="st0" d="M213.8,276c-0.3-0.1-0.8-0.2-1.3-0.2c-0.7,0-1.4,0.3-1.8,0.7v7.3h-2.7v-10.1h1.9c0.1,0.5,0.2,0.9,0.3,1.4h0.1
		c0.3-0.7,1.2-1.5,2.4-1.5c0.5,0,0.9,0.1,1.2,0.1C213.9,274.5,213.9,275.3,213.8,276"/>
	<path class="st0" d="M221.7,283.9v-6c0-1.5-0.6-2.2-1.8-2.2c-0.7,0-1.3,0.3-1.8,0.6v7.6h-2.7v-10.1h1.8l0.4,1.1
		c0.6-0.7,1.7-1.4,3.2-1.4c2.5,0,3.5,1.5,3.5,4v6.2H221.7z"/>
	<path class="st0" d="M235.7,278.8c0,3.4-1.7,5.3-4.7,5.3c-3,0-4.7-1.8-4.7-5.3c0-3,1.6-5.2,4.7-5.2
		C234,273.6,235.7,275.9,235.7,278.8 M232.9,278.8c0-2.4-0.7-3.3-2-3.3c-1.2,0-1.9,0.9-1.9,3.3c0,2.3,0.6,3.3,1.9,3.3
		C232.3,282.1,232.9,281.2,232.9,278.8"/>
	<path class="st0" d="M248.7,274.6c-0.2-0.6-0.3-1.1-0.3-1.8v-3h2.7v14.2H249l-0.3-1.1c-0.4,0.6-1.4,1.3-2.7,1.3
		c-2.3,0-4.1-1.6-4.1-5.2c0-3.3,1.9-5.2,4.3-5.2C247.3,273.6,248.2,274,248.7,274.6 M248.5,276.1c-0.4-0.2-1-0.5-1.8-0.5
		c-1.3,0-2.1,0.9-2.1,3.2c0,2.4,0.8,3.3,2,3.3c0.7,0,1.4-0.3,1.9-0.9V276.1z"/>
	<path class="st0" d="M255.9,279.6c0,1.6,0.9,2.5,2.6,2.5c1,0,2.1-0.4,2.9-0.9l0.5,1.9c-0.8,0.4-2.2,1-3.8,1c-3.1,0-5-1.9-5-5.3
		c0-3.1,1.5-5.2,4.7-5.2c3,0,4.2,2.3,4.2,4.8v1.2H255.9z M257.7,275.6c-1.3,0-1.9,1.2-1.9,2.4h3.7
		C259.6,276.7,259.1,275.6,257.7,275.6"/>
	<path class="st0" d="M274.3,284.1c-3.9,0-6-2.6-6-7.2c0-4.3,2.1-7.1,6-7.1c1.9,0,3.6,0.4,4.7,1.2l-1,2.1c-0.7-0.5-2-0.9-3.4-0.9
		c-2.3,0-3.4,1.7-3.4,4.7c0,3.2,1.1,4.9,3.4,4.9c1.4,0,2.7-0.6,3.7-1.3l0.9,2.2C277.7,283.5,276.2,284.1,274.3,284.1"/>
	<path class="st0" d="M281,283.9v-14.2h2.7v3.7c0,0.7-0.2,1.4-0.3,1.6c0.6-0.7,1.4-1.4,2.8-1.4c2.9,0,3.7,1.5,3.7,4v6.2h-2.7v-6
		c0-0.3,0-0.5-0.1-0.6c-0.1-1.1-0.7-1.6-1.7-1.6c-0.7,0-1.3,0.3-1.8,0.6v7.6H281z"/>
	<path class="st0" d="M293,283.9v-8.1l-1.2-0.2v-1.7h3.8v10.1H293z M292.9,269.7h2.7v2.4h-2.7V269.7z"/>
	<path class="st0" d="M298.1,281.2v-11.5h2.6v11.4c0,0.8,0.5,1,1.6,1v1.9c0,0-0.8,0.2-1.5,0.2C298.8,284.1,298.1,283,298.1,281.2"/>
	<path class="st0" d="M306.4,279.6c0,1.6,0.9,2.5,2.6,2.5c1,0,2.1-0.4,2.9-0.9l0.5,1.9c-0.8,0.4-2.2,1-3.8,1c-3.1,0-5-1.9-5-5.3
		c0-3.1,1.5-5.2,4.7-5.2c3,0,4.2,2.3,4.2,4.8v1.2H306.4z M308.3,275.6c-1.3,0-1.9,1.2-1.9,2.4h3.7
		C310.1,276.7,309.7,275.6,308.3,275.6"/>
	<path class="st0" d="M326.7,9.8H14.8h-5v5l0,283.5v5h5h311.8h5v-5l0-283.5v-5H326.7z M14.8,14.8h125.2l0,283.5H14.8L14.8,14.8z
		 M326.7,298.3H145.1l0-283.5h181.6L326.7,298.3z"/>
	<g>
		<g>
			<g>
				<path class="st0" d="M81.4,53.7c0.3-0.2,0.9-0.7,0.4-1.7c-0.2-0.5-0.8-0.5-0.6-0.5c3.2-0.8,4.9-5.4,4.8-7.2c1.6,1.5,5.3,2,8-0.3
					c1.7-1.7,2.6-6-0.4-8.2c-1.5-1.1-4.2-1.2-5.9,0.1c-0.5-0.9-1.5-1.5-2.4-1.5c0-0.3,0-2.4-1.2-3.8c-1.6-1.7-6.1-1.9-7.7,0
					c-3.2-0.8-7.4,0.7-7.2,5.7c-2.3-0.9-3.6-0.9-4.8-0.8c-1.1,0.1-2.6,1.1-3.2,1.8c-0.2,0.3-0.5,0.7-0.7,1.1C60.2,39,59.9,40,60,41
					c0.2,1.8,1.1,3.3,2.4,4c1.8,1,4.1,0.9,4.9,0.7c0.6-0.1,1.3-0.4,2-1.1c0.2-0.2,0.4-0.6,0.7-0.6c0,0.5-0.2,2.9,2.5,4
					c0,0.1,0.1,0.2,0.1,0.4c0.9,3.3,3.1,2.9,3.1,3.2c-1,0.6-0.6,1.5-0.3,1.9c1.5-0.5,2.6-0.5,3-0.5S79.9,53.2,81.4,53.7z"/>
				<g>
					<polygon class="st1" points="78,57 76,63.7 68.8,63.7 68.8,63.7 74.7,67.9 72.4,74.5 78,70.2 83.6,74.5 81.4,67.9 87.2,63.7 
						87.2,63.7 80,63.7 					"/>
					<path class="st0" d="M89,63.7c0-3.3,2.3-5.9,2.3-6c0.2-0.3,0.3-0.5,0.3-0.7c0-0.3-0.3-0.5-0.3-0.5c-0.6-0.4-2.1-1.3-2.1-1.3
						L89,55.1h-0.1c-0.2,0-0.3,0.1-0.5,0.2c-0.4,0.3-1.1,0.9-2.4,0.9c-0.2,0-0.5,0-0.7-0.1c-0.7-0.1-1.8-0.7-1.8-0.7
						c-0.4-0.2-0.8-0.4-1-0.5l-0.1,0c-1.9-0.8-3.5-0.8-3.9-0.8c-0.4,0-2,0.1-3.9,0.8l-0.1,0c-0.1,0-0.3,0.1-0.5,0.2l-1.1,0.5
						c-0.4,0.2-0.9,0.4-1.2,0.4c-0.2,0-0.5,0.1-0.7,0.1c-1.3,0-2-0.6-2.5-0.9c-0.2-0.1-0.3-0.2-0.5-0.2l-0.1,0l-0.1,0
						c0,0-1.5,0.9-2.1,1.3c-0.1,0-0.3,0.2-0.4,0.6c0,0.2,0,0.4,0.3,0.7c0.1,0.1,2.3,2.7,2.3,6c0.1,0.4,0.2,2.4-1.5,5.4
						c-0.1,0.2-2,3.6,0.1,6.6c0,0,1.6,2.9,6.1,2.9c0.4,0,3.7,0.1,4.9,2.2c0,0.1,0.6,0.9,0.8,1.4l0.3,0.5l0.3-0.5
						c0.2-0.4,0.7-1.3,0.8-1.4c1.1-2.1,4.5-2.2,4.8-2.2c4.5,0,6.1-2.8,6.1-2.8c2.1-3.1,0.1-6.7,0.1-6.7C88.8,66.2,88.9,64.2,89,63.7
						z M87.2,63.7l-5.8,4.2l2.2,6.6L78,70.2l-5.6,4.3l2.2-6.6l-5.8-4.2l0,0H76l2-6.7l2,6.7L87.2,63.7L87.2,63.7z"/>
					<g>
						<path class="st1" d="M58.5,95.9c3.2,3.3,7.8,1.5,7.8,1.5c0.7-0.1,1.1-2.4,1.3-4.1c-2.8-0.4-5.4-0.8-8-1.5
							C58.7,93.9,58.5,95.9,58.5,95.9z"/>
						<path class="st1" d="M57.6,82.1c-0.1-0.1-0.2-0.2-0.4-0.2c-0.4-0.1-0.7,0.3-1.2,0.2c-0.4-0.1-3.7-2.6-3.9-2.7
							c-0.7-0.5-1.8-1.1-2.4-1.8c-0.4-0.5-0.1-1.1-0.1-1.7c0-0.4-0.6-1.5-1.5-1.8c-0.2,1-1.6,4.7-6,5.6c-0.6,2.4,0.3,7,0.9,7.6
							c0.4,0.1,0.8,0.3,1.1,0.5c0-0.9,0.3-1.5,0.3-1.5c1.2-2.5,4.1-1.7,4.1-1.7c1,0.3,1.2,1.2,1.2,1.2c0.4,2-1.3,2.2-1.3,2.2
							c-1.2,0.1-1.2-0.9-1.2-0.9c-0.1-0.9,1.2-1,1.2-1C47.5,84,44,87.2,46.3,90c0.2,0.3,0.5,0.1,0.5,0.1c6.9-3.4,8-4.9,8-4.9
							c1.5-1.3,2.6-2.1,3.4-2.7C57.9,82.3,57.6,82.1,57.6,82.1z"/>
						<path class="st1" d="M90.3,54.6c0.1,0.1,0.3,0.2,0.4,0.3C90.6,54.8,90.4,54.7,90.3,54.6z"/>
						<path class="st1" d="M92.5,56.3c-0.2-0.2-0.5-0.4-0.7-0.6C92,55.9,92.3,56.1,92.5,56.3L92.5,56.3z"/>
						<path class="st1" d="M91,55.1c0.2,0.2,0.4,0.3,0.7,0.5C91.4,55.4,91.2,55.3,91,55.1z"/>
						<path class="st1" d="M57.1,94.7c0.2-0.3,0.5-1.5,0.5-1.5c0.2-0.7,0.4-1.2,0.7-1.8c-0.8-0.2-1.5-0.5-2.2-0.7
							C56.1,93,57.1,94.7,57.1,94.7z"/>
						<path class="st1" d="M89.7,93.3c0.2,1.8,0.6,4,1.3,4.1c0,0,4.6,1.8,7.8-1.5c0,0-0.2-2-1.1-4.2C95.1,92.4,92.4,92.9,89.7,93.3z
							"/>
						<path class="st1" d="M99.6,93.3c0,0,0.3,1.2,0.5,1.5c0,0,1-1.7,1-4c-0.7,0.2-1.5,0.5-2.2,0.7C99.2,92,99.5,92.6,99.6,93.3z"/>
						<path class="st1" d="M65.3,86.9c-1.5,0-2.7,0.6-3.6,1.5c1.7,0.4,3.8,0.8,6,1.1C67.3,86.9,65.3,86.9,65.3,86.9z"/>
						<path class="st1" d="M96.7,88.1c1.4-0.3,2.6-0.7,3.6-1c-0.2-0.4-0.4-0.8-0.7-1.2c0,0-3.9-4.7-10.9-2.1c-0.1,0,0.3,1.2,2.2,1.6
							C91.2,85.5,94.2,85.7,96.7,88.1z"/>
						<path class="st1" d="M92,86.9c0,0-2.1,0-2.4,2.6c2.2-0.3,4.3-0.7,6-1.1C94.6,87.6,93.5,87,92,86.9z"/>
						<path class="st1" d="M72.3,85.3c-0.5-0.7-1.2-0.7-1.2-0.7c-1,0-1.2,2.4-1.5,5.1c2.2,0.2,4.5,0.4,7.1,0.5
							C75.5,88,73.2,86.5,72.3,85.3z"/>
						<path class="st1" d="M57.6,86c-0.3,0.4-0.5,0.8-0.7,1.2c1,0.3,2.2,0.7,3.6,1c2.5-2.4,5.5-2.6,5.8-2.6c1.9-0.4,2.4-1.6,2.2-1.6
							C61.5,81.2,57.6,86,57.6,86z"/>
						<path class="st1" d="M86.2,84.6c0,0-0.7,0-1.2,0.7c-0.9,1.2-3.3,2.7-4.3,4.9c2.5-0.1,4.9-0.2,7.1-0.5
							C87.4,87,87.2,84.6,86.2,84.6z"/>
						<path class="st0" d="M128,91.5c-0.7-0.9-2.7-0.4-2.7-0.4c1-3.1-1.8-3.9-1.8-3.9c-1-0.3-1.7-0.1-2.1,0.2c0,0,0,0,0,0
							c0,0,0,0,0,0c-0.1,0.1-0.1,0.1-0.2,0.2c-0.3,0.3-0.4,0.6-0.4,1c0,0.8,0.7,1.5,1.5,1.5c0.3,0,0.6-0.1,0.9-0.3
							c0.3-0.2,0.5-0.5,0.6-0.9c0.4,0.3,0.6,0.7,0.6,0.7c0.8,2.6-2.1,3.6-2.1,3.6c-6.6,2-10.6-1.4-10.6-1.4l1.1-0.6
							c0.4-0.2,0.8-0.2,1-0.2c0,0.1,0,0.1,0,0.2c0,0.7,0.6,1.3,1.3,1.3c0.7,0,1.3-0.6,1.3-1.3c0-0.5-0.3-0.8-0.3-0.8
							c-0.8-1.2-3.4-0.4-3.4-0.4c0.9-2.2,0.1-3.7,0.1-3.7c-1.2-2.5-4.1-1.7-4.1-1.7c-1,0.3-1.2,1.2-1.2,1.2c-0.4,2,1.3,2.2,1.3,2.2
							c1.2,0.1,1.2-0.9,1.2-0.9c0.2-0.9-1.2-1-1.2-1c1.1-1.9,4.6,1.2,2.3,4.1c-0.2,0.3-0.5,0.1-0.5,0.1c-4.1-2-6.1-3.3-7.1-4.1
							c-0.1-1.1-1.1-1.7-0.9-2c0.2-0.1,0.7,0.2,1.1-0.3c0.1-0.2,0.4-1.9,0.6-3.2c3.6,1.7,6.7,1.2,7.3,1c0.3-0.1,0.6-0.4,0.6-0.8
							c0.1-1.4-3.5-9.5-3.6-12.4c1.7,0.8,2.7-1.8,3-2.6c2.3,1,3,22.1,4.8,22.8c0.9,0.4,1.2-1.1,1.3-1.3c2.8-9.4,2.9-18.5,2.7-21.6
							c-0.3-4.8-0.7-9.1-1.8-13c-0.7-2.4-2.1-7.4-5.3-8.1c-1.5-0.3-2.6,1.1-2.6,2.3c0,1.1,0.8,1.6,0.4,2.7c-0.4,0.7-0.8,1.5-1,2.2
							c-0.2,0.8,0.5,1.1,0.3,1.9c-1-0.2-1.5,0.7-3.1,0.3c1-0.5,1.1-3.5-0.2-4c-0.2-0.1-0.4-0.1-0.4-0.3c0,0,0.4-0.4,0.6-0.9
							c0.7-1.5,0.7-2.8,0.1-3.8c0.5,0,1.1-0.9,1.2-1.7l0,0c0,0,0,0,0-0.1v0c0-0.2,0-0.9,0.3-1.5c0.1-0.2,0-0.4-0.2-0.5
							c-0.2-0.1-0.4,0-0.5,0.2c-0.3,0.7-1.1,0.3-0.7-0.4c0.1-0.2,0-0.4-0.2-0.5c-0.2-0.1-0.4,0-0.5,0.2c-0.3,0.6-1,0.3-0.7-0.4
							c0.1-0.2,0-0.4-0.2-0.5c-0.2-0.1-0.4,0-0.5,0.2c-0.3,0.7-1.1,0.3-0.8-0.4c0.1-0.2,0-0.5-0.2-0.5c-0.2-0.1-0.4,0-0.5,0.2
							c-0.3,0.7-0.6,1-0.9,1.3c-0.7,0.1-0.5,0.9-0.4,1.5c-1.3-0.3-2.3,0.7-2.4,1.6h-0.1c-1.1,0-2.1,0.6-2.1,1.6c0,0.6,0.7,1.3,1,1.3
							c0.1,0-0.1-0.6,0.5-0.6c0.5,0,1.3,0.4,1.4,0.9c0.1,0.6-0.3,1.9,1.4,2.1c0,0,0,0.3,0,0.6c-0.6,0-0.8-0.1-1.4,0
							c-1.1,0.2-2.7,0.8-3.1,1.9c-0.1,0.2-0.1,0.6-0.1,0.9c0,0.2,0.2,0.5,0.2,0.8c0,0.1-0.3,0.4-0.4,0.5c-0.5,0.5-1.3,1-2.1,1
							c-0.9,0-1.7-0.5-2-1c-1.1-1.5,0.3-4.2,0.3-5.2c-0.1-2.6-3.4-1.1-4.7-0.4c-1.6,0.8-2.8,2.1-3.9,3.5c-0.6,0.7-1.2,1.6-1.5,2.4
							c-0.1,0.1-0.2,0.2-0.3,0.2c0.7,0.3,1.9,0.7,2.8,0.8c0,0,1.8,0.2,3.1-0.8c0,0,0.2-0.2,0.5-0.2c0.2,0,0.4,0.1,0.5,0.2
							c0,0,0.2,0.2,0.4,0.3c0.1,0.1,0.3,0.2,0.4,0.3c0.1,0.1,0.2,0.1,0.2,0.2c0.2,0.2,0.5,0.4,0.7,0.5c0,0,0.1,0.1,0.1,0.1
							c0.3,0.2,0.5,0.4,0.7,0.6l0,0c0.3,0.2,0.5,0.4,0.7,0.5l0,0c0,0,0.1,0.1,0.1,0.2c0,0.1,0,0.2-0.1,0.3c0,0-0.1,0.2-0.4,0.4
							c-0.4,0.6-1.2,1.7-1.7,3c0.6,1.1,1.7,2.4,3.2,2.4c1.2,0,1.7-0.6,1.9-1.3c0,0,0.1,0.1,0.1,0.1c0.1-0.1,0.8,3.4,1.7,4.4
							c-0.8,0.4-2.1,1.7-1.4,5.2c-0.7-0.5-1.9-1.5-2.5-2.1c-0.4-0.7-1-2.4-3-2.6c0.3,0.9,0.7,1.9,1.3,3c0,0,1.2,2.3,0.8,4.8
							c0.8-0.9,0.7-3.2,0.7-3.2c0,0,0.1-0.1,0.2-0.1c0.2,0,1,1.6,2.4,2c1.9,3.2,4,5.2,6,6.5c0,0.8,0.1,2.6-0.4,2.6
							c-1.6,0.4-3.1-0.7-4.5-0.7c-0.1-0.1-0.2-0.1-0.2-0.1c-6.1-2.9-14.1,3.4-15.4,4.6c-0.7,0.6-1.5-0.2-1.5-0.2
							c-0.5-0.6-1.1-0.9-1.7-0.8c-0.6-0.1-1.2,0.2-1.7,0.8c0,0-0.8,0.9-1.5,0.2c-1.3-1.2-8.5-6.8-14.5-4.9c0-0.3-0.8-0.5-1-0.6
							c-0.5-0.1-0.9-0.5-1.2-0.7c-0.6-0.3-1.7-0.1-2.4-0.2c-0.3,0-0.7-0.2-0.9-0.3c-1-0.6-2-1.3-2.6-2.2c-0.1-0.1-0.3-0.5-0.4-0.5
							c-0.3-0.4-0.4-0.6-0.7-1.3c-0.3-1.2,0.2-2.4,0.4-3.6c0.1-0.9,0.1-0.9,0.2-1.9c3.8-1.3,5.3-4.1,6.2-5.6
							c0.1-0.1,0.3-0.6,0.3-0.6c0.2,0,0.3,0,0.5,0c1.5,0,2.5-0.8,4.2-0.6c0,0.1,0.2,0.8,1.3,1.2c0,1.1,0.1,2,0.5,2.8
							c0.1,0.1,0.2,0.3,0.3,0.4c0.7-1.7,0.9-3.1,0.9-3.9c-0.1-0.1-0.1-0.2-0.1-0.3c-0.4-1.8-1.2-2.3-2-2.8c-0.4-0.2-0.8-0.3-1.2-0.6
							c-0.6-0.4-1.2-0.8-1.6-1.6c0,0,0.2-0.2,0.4-0.4c1.1-1.1,1.6-2.7,2-4.5c0.8-1.1,3-0.7,3.9-0.5c0.2,0,0.6,0.1,0.8,0.2
							c0.2,0.2,0.3,0.5,0.6,0.7c0.4,0.1,0.8,0,1.2,0c0.2,0.2,0.2,0.4,0.4,0.7c0,0,0.1,0.2,0.3,0.4c1,0,2.5-0.6,3-0.9
							c-0.1,0-0.1-0.1-0.2-0.1c-0.5-0.6-1.2-1.3-1.8-1.4c-0.8-0.1-1-0.9-1.8-1c-0.2-0.1-0.9-0.2-1.2-0.1c-1.8,0.2-3-0.4-4.7-0.6
							c-1.6-0.1-1.6,1-2.2,1.8c-0.2,0.3-0.5,0.7-0.7,1c-0.4,0.4-0.9,0.4-1.5,0.8L59.7,54c-0.1-0.5-0.3-1.1-0.7-1.6
							c-0.9-1.3-1.8-2.4-3.7-2.8c-0.4-0.1-0.4-0.2-0.7-0.4c-0.3-0.2-0.1-0.5,0-0.6c0.5-0.3,1.5-0.2,2.1-0.5c1.5-0.7,1-2,0.4-2.1
							c-0.8-0.1-2.1-0.5-2.4-0.7c-0.4-0.2-1-1.4-1.6-1.7c-0.7-0.2-0.4-1.3-1-1.5c-0.3,0-0.7,0.1-1.1,0.3c0-0.2-0.2-1.5-0.9-1.9
							c-0.5-0.3-0.7,0.2-0.7,0.5c0,0.3,0.7,0.6,0.9,1.8C50.2,43,50.1,43,50,43.1c-0.1-0.5-0.3-1.2-0.8-1.5c-0.5-0.3-0.7,0.2-0.7,0.5
							c0,0.3,0.7,0.6,0.9,1.6c-0.2,0.1-0.3,0.2-0.4,0.4c-1-0.3-1.3-1-1.5-1c-0.3-0.1-0.7,0.1-0.5,0.6c0.2,0.5,1,0.8,1.5,1
							c-0.1,0.1-0.2,0.2-0.3,0.3c-1.2-0.2-1.5-1-1.7-1.1c-0.3-0.1-0.8,0.1-0.5,0.6c0.3,0.7,1.7,1,1.8,1.1c-0.2,0.3-0.3,0.6-0.3,0.8
							c-0.9-0.1-2.5,0.4-2.2,1.5c0.3,0.2,1.4-0.7,2.4-0.2c0.7,1,1.7,1.1,1.9,1.3c0.4,0.3,0.4,0.8,0.6,1.3c0.3,0.9,0.9,1.6,1.4,2.4
							c0.6,0.9,1.2,1.8,1.7,2.5c0.1,0.2,0.1,0.4,0.1,0.7c-0.7,1.1-2.7,2.3-3.5,3.1c-0.8,0.8-8.7,6.8-9.7,9.4
							c-0.2,0.6-0.3,1.3-0.3,2.1c-0.5,0.3-1.5,0.7-1.9,0.2c-0.6-0.8,0.6-1.5,0.3-2.3c-0.1-0.3-0.6-0.5-0.9-0.3c-2,1.4-1,3.9,0.3,4.5
							c1.4,0.6,1.6-0.9,2.6-0.3c0.3,0.1,2.8,2.4,2.3,4.1c0,0.1-0.1,0.3-0.2,0.4c-0.5,0.7-1.5,1.2-2.1,1.8c-1.3,0.8,1.2,6,1,8.7
							c-0.1,1,0.8,0.9,1.4,2.5c-0.6,0-1.2,0.2-1.5,0.6c0,0-0.3,0.3-0.3,0.8c0,0.7,0.6,1.3,1.3,1.3c0.7,0,1.3-0.6,1.3-1.3
							c0-0.1,0-0.1,0-0.2c0.3,0,0.6,0.1,1,0.2l1.1,0.6c0,0-4,3.4-10.6,1.4c0,0-3-0.9-2.1-3.6c0,0,0.1-0.4,0.6-0.7
							c0.1,0.4,0.3,0.7,0.6,0.9c0.2,0.2,0.5,0.3,0.9,0.3c0.8,0,1.5-0.7,1.5-1.5c0-0.4-0.2-0.8-0.4-1c-0.1-0.1-0.1-0.1-0.2-0.2
							c0,0,0,0,0,0c0,0,0,0,0,0c-0.4-0.3-1.1-0.5-2.2-0.2c0,0-2.9,0.8-1.8,3.9c0,0-1.9-0.4-2.7,0.4c0,0-0.3,0.3-0.2,0.7v0v0
							c0,0.2,0.1,0.4,0.2,0.6c0.2,0.3,0.5,0.5,0.9,0.5c0.4,0,0.7-0.2,0.9-0.4c0,0,0,0,0,0c0.1-0.1,0.3-0.2,0.7,0.1
							c4.4,4.5,11.5,2.7,15.4-0.4c0,0,2.2-2.2,4.6-3.5c0.9,0.4,2,0.7,2.9,1.1c-0.1,1.4,0.2,3.4,1.8,5.8c0,0-1.1,2.1-3,0.9
							c0,0-1.4-1.1-0.2-2.4c0,0,0.8-0.7,1.1,0.2c-0.4,0-0.7,0.4-0.7,0.8c0,0.4,0.3,0.8,0.8,0.8c0.4,0,0.7-0.3,0.8-0.7
							c0-0.3,0.1-1.1-0.6-1.7c0,0-0.6-0.6-1.7-0.5c-1.7,0.3-2.6,3.7,0.7,5.1c0,0,2.6,1.2,3.9-0.7c0,0,0-0.3,0.5,0.2
							c2.7,2.6,8.8,1.9,11.2,0.1c0,0,0.6-0.4,1.3-0.7c0,1,0.9,1.8,1.9,1.8c1,0,1.9-0.9,1.9-1.9c0-0.9-0.7-1.7-1.6-1.9
							c0,0-1.2-0.4-3,0.7c0,0-1.9,1.2-1.8,1c0.6-1,1-2.3,1.3-3.7c2.6,0.3,5.4,0.5,8.2,0.5c0,0.8-0.1,1.8-0.5,2.6c0,0-1,0.4-1,1.1
							c0,0-0.1,0.5,0.8,1.2c0,0,0.6,0.7,0.8,1.3c0,0,0.1,0.8,1.1,0.8c0.1,0,0.1,0,0.2,0c0.1,0,0.1,0,0.2,0c1.1,0,1.1-0.8,1.1-0.8
							c0.2-0.6,0.8-1.3,0.8-1.3c0.9-0.7,0.8-1.2,0.8-1.2c0-0.7-1-1.1-1-1.1c-0.3-0.8-0.4-1.8-0.5-2.6c2.8-0.1,5.5-0.3,8.2-0.5
							c0.3,1.4,0.7,2.7,1.3,3.7c0.1,0.2-1.7-1-1.7-1c-1.8-1.1-3-0.7-3-0.7c-0.9,0.2-1.6,0.9-1.6,1.9c0,1,0.8,1.9,1.9,1.9
							c1,0,1.9-0.8,1.9-1.8c0.7,0.3,1.3,0.7,1.3,0.7c2.4,1.8,8.5,2.6,11.2-0.1c0.5-0.5,0.5-0.2,0.5-0.2c1.3,1.9,3.9,0.7,3.9,0.7
							c3.3-1.4,2.3-4.9,0.7-5.1c-1.1-0.2-1.7,0.5-1.7,0.5c-0.7,0.6-0.7,1.4-0.6,1.7c0,0.4,0.3,0.7,0.8,0.7c0.4,0,0.8-0.3,0.8-0.8
							c0-0.4-0.3-0.7-0.7-0.8c0.3-0.8,1.1-0.2,1.1-0.2c1.2,1.3-0.2,2.4-0.2,2.4c-1.9,1.1-3-0.9-3-0.9c1.6-2.3,1.9-4.4,1.8-5.8
							c1-0.4,2-0.7,2.9-1.1c2.4,1.3,4.6,3.5,4.6,3.5c3.9,3,11,4.9,15.4,0.4c0.3-0.4,0.6-0.2,0.7-0.1c0,0,0,0,0,0
							c0.2,0.3,0.5,0.4,0.9,0.4c0.4,0,0.7-0.2,0.9-0.5c0.1-0.2,0.2-0.5,0.2-0.6v0v0C128.3,91.8,128,91.5,128,91.5z M46.7,90.1
							c0,0-0.2,0.2-0.5-0.1c-2.3-2.8,1.2-6,2.3-4.1c0,0-1.3,0-1.2,1c0,0,0,1,1.2,0.9c0,0,1.7-0.2,1.3-2.2c0,0-0.2-0.9-1.2-1.2
							c0,0-2.9-0.8-4.1,1.7c0,0-0.3,0.6-0.3,1.5c-0.3-0.3-0.7-0.5-1.1-0.5c-0.5-0.6-1.5-5.2-0.9-7.6c4.4-0.9,5.8-4.6,6-5.6
							c0.9,0.3,1.4,1.3,1.5,1.8c0.1,0.6-0.2,1.2,0.1,1.7c0.5,0.7,1.7,1.4,2.4,1.8c0.2,0.2,3.5,2.7,3.9,2.7c0.5,0.1,0.7-0.2,1.2-0.2
							c0.1,0,0.2,0.1,0.4,0.2c0,0,0.2,0.2,0.6,0.5c-0.9,0.6-2,1.4-3.4,2.7C54.8,85.3,53.6,86.7,46.7,90.1z M57.6,93.3
							c0,0-0.3,1.2-0.5,1.5c0,0-1-1.7-1.1-4c0.7,0.2,1.5,0.5,2.2,0.7C58,92,57.8,92.6,57.6,93.3z M66.3,97.4c0,0-4.6,1.8-7.8-1.5
							c0,0,0.2-2,1.1-4.2c2.6,0.7,5.2,1.2,8,1.5C67.4,95,67,97.3,66.3,97.4z M61.7,88.4c0.9-0.9,2.1-1.4,3.6-1.5c0,0,2.1,0,2.4,2.6
							C65.5,89.2,63.4,88.8,61.7,88.4z M66.3,85.5c-0.3,0.1-3.3,0.3-5.8,2.6c-1.4-0.3-2.6-0.7-3.6-1c0.2-0.4,0.4-0.8,0.7-1.2
							c0,0,3.9-4.7,10.9-2.1C68.7,83.9,68.2,85.1,66.3,85.5z M69.5,89.8c0.3-2.8,0.5-5.2,1.5-5.1c0,0,0.7,0,1.2,0.7
							c0.9,1.2,3.3,2.7,4.3,4.9C74.1,90.1,71.7,90,69.5,89.8z M80.6,90.2c1.1-2.2,3.5-3.7,4.3-4.9c0.5-0.7,1.2-0.7,1.2-0.7
							c1,0,1.2,2.4,1.5,5.2C85.6,90,83.2,90.1,80.6,90.2z M88.7,83.9c7-2.7,10.9,2.1,10.9,2.1c0.3,0.4,0.5,0.8,0.7,1.2
							c-1,0.3-2.2,0.7-3.6,1c-2.5-2.4-5.5-2.6-5.8-2.6C89,85.1,88.6,83.9,88.7,83.9z M92,86.9c1.5,0,2.7,0.6,3.6,1.5
							c-1.7,0.4-3.8,0.8-6,1.1C89.9,86.9,92,86.9,92,86.9z M91,97.4c-0.7-0.1-1.1-2.4-1.3-4.1c2.8-0.4,5.4-0.8,8-1.5
							c0.9,2.1,1.1,4.2,1.1,4.2C95.6,99.2,91,97.4,91,97.4z M100.1,94.7c-0.2-0.3-0.5-1.5-0.5-1.5c-0.2-0.7-0.4-1.2-0.7-1.8
							c0.7-0.2,1.5-0.5,2.2-0.7C101.1,93,100.1,94.7,100.1,94.7z"/>
					</g>
				</g>
			</g>
		</g>
	</g>
	<g>
		<path class="st0" d="M172.2,61.1l-0.4-14.8h-0.1c-0.3,1.9-0.6,3.2-0.9,4.2l-2.5,10.6h-5l-2.4-10.6c-0.2-1-0.5-2.4-0.9-4.2h-0.1
			l-0.2,14.8h-3.1l0.7-17.6h5.9c0,0,1.9,8.8,2.9,14.5h0.1c1.2-5.6,3.5-14.5,3.5-14.5h5.7l0.7,17.6H172.2z"/>
		<path class="st0" d="M180,61.1V50.8l-1.5-0.3v-2.1h4.9v12.7H180z M179.9,43.2h3.4v3.1h-3.4V43.2z"/>
		<path class="st0" d="M194.4,61.1v-7.6c0-1.9-0.7-2.8-2.3-2.8c-0.9,0-1.6,0.4-2.2,0.8v9.6h-3.4V48.4h2.3l0.5,1.5
			c0.7-0.9,2.1-1.7,4-1.7c3.2,0,4.5,1.9,4.5,5.1v7.9H194.4z"/>
		<path class="st0" d="M201.6,61.1V50.8l-1.5-0.3v-2.1h4.9v12.7H201.6z M201.5,43.2h3.4v3.1h-3.4V43.2z"/>
		<path class="st0" d="M211,51.7c0,2,5.5,1.4,5.5,5.5c0,2.3-1.7,4.1-5,4.1c-1.5,0-3-0.4-3.8-0.9l0.7-2.4c0.6,0.4,1.8,0.9,3,0.9
			c1.1,0,1.9-0.6,1.9-1.4c0-2.3-5.4-1.5-5.4-5.9c0-1.9,1.4-3.6,4.9-3.6c1.3,0,2.7,0.3,3.6,0.6l-0.5,2.5c-0.9-0.4-2-0.7-3.1-0.7
			C211.6,50.5,211,51,211,51.7z"/>
		<path class="st0" d="M223.9,61.4c-2.3,0-3.7-1.1-3.7-4.3v-6.3h-1.9v-2.4h1.9v-2.2l3.4-1.1v3.3h3.4v2.4h-3.4V57
			c0,0.9,0.4,1.5,1.4,1.5c0.7,0,1.4-0.2,2-0.5l0.5,2.5C226.6,60.9,225.3,61.4,223.9,61.4z"/>
		<path class="st0" d="M231.8,55.6c0,2,1.1,3.1,3.3,3.1c1.3,0,2.6-0.5,3.7-1.1l0.6,2.4c-1.1,0.6-2.8,1.2-4.8,1.2
			c-3.9,0-6.3-2.4-6.3-6.7c0-3.9,1.9-6.6,6-6.6c3.8,0,5.4,2.9,5.4,6.1v1.5H231.8z M234.2,50.6c-1.7,0-2.4,1.5-2.4,3h4.7
			C236.5,52,236,50.6,234.2,50.6z"/>
		<path class="st0" d="M249.6,51.2c-0.4-0.1-1-0.2-1.6-0.2c-0.9,0-1.7,0.4-2.3,0.9v9.3h-3.4V48.4h2.4l0.4,1.7h0.1c0.4-0.9,1.5-2,3-2
			c0.7,0,1.2,0.1,1.5,0.2L249.6,51.2z"/>
		<path class="st0" d="M252.6,61.1V50.8l-1.5-0.3v-2.1h4.9v12.7H252.6z M252.5,43.2h3.4v3.1h-3.4V43.2z"/>
		<path class="st0" d="M270.6,54.7c0,4.3-2.2,6.7-6,6.7c-3.8,0-6-2.3-6-6.7c0-3.7,2.1-6.6,6-6.6C268.4,48.1,270.6,51,270.6,54.7z
			 M267.1,54.7c0-3.1-0.9-4.1-2.5-4.1c-1.6,0-2.5,1.1-2.5,4.1c0,3,0.8,4.2,2.5,4.2C266.2,58.9,267.1,57.7,267.1,54.7z"/>
		<path class="st0" d="M287.1,49.4c-0.2-0.7-0.3-1.4-0.3-2.3v-3.8h3.4v17.9h-2.8l-0.4-1.4c-0.5,0.8-1.7,1.7-3.4,1.7
			c-2.9,0-5.2-2.1-5.2-6.6c0-4.2,2.4-6.6,5.5-6.6C285.3,48.1,286.4,48.6,287.1,49.4z M286.8,51.3c-0.5-0.3-1.3-0.6-2.3-0.6
			c-1.6,0-2.6,1.1-2.6,4.1c0,3,1,4.2,2.6,4.2c0.9,0,1.7-0.4,2.4-1.1V51.3z"/>
		<path class="st0" d="M296.1,55.6c0,2,1.1,3.1,3.3,3.1c1.3,0,2.6-0.5,3.7-1.1l0.7,2.4c-1.1,0.6-2.8,1.2-4.8,1.2
			c-3.9,0-6.3-2.4-6.3-6.7c0-3.9,1.9-6.6,6-6.6c3.8,0,5.4,2.9,5.4,6.1v1.5H296.1z M298.5,50.6c-1.7,0-2.4,1.5-2.4,3h4.7
			C300.8,52,300.3,50.6,298.5,50.6z"/>
		<path class="st0" d="M156.9,86.1V68.6h10.8v2.9h-7.4v4.3h5.6l-0.3,3h-5.4v4.5h7.4v2.8H156.9z"/>
		<path class="st0" d="M178.2,86.1v-7.6c0-1.9-0.7-2.8-2.3-2.8c-0.9,0-1.6,0.4-2.2,0.8v9.6h-3.4V73.4h2.3l0.5,1.5
			c0.7-0.9,2.1-1.7,4-1.7c3.2,0,4.5,1.9,4.5,5.1v7.9H178.2z"/>
		<path class="st0" d="M187.4,80.6c0,2,1.1,3.1,3.3,3.1c1.3,0,2.6-0.5,3.7-1.1l0.6,2.4c-1.1,0.6-2.8,1.2-4.8,1.2
			c-3.9,0-6.3-2.4-6.3-6.7c0-3.9,1.9-6.6,6-6.6c3.8,0,5.4,2.9,5.4,6.1v1.5H187.4z M189.8,75.6c-1.7,0-2.4,1.5-2.4,3h4.7
			C192,77,191.5,75.6,189.8,75.6z"/>
		<path class="st0" d="M205.1,76.2c-0.4-0.1-1-0.2-1.6-0.2c-0.9,0-1.7,0.4-2.3,0.9v9.3h-3.4V73.4h2.4l0.4,1.7h0.1c0.4-0.9,1.5-2,3-2
			c0.7,0,1.2,0.1,1.5,0.2L205.1,76.2z"/>
		<path class="st0" d="M218.3,73.4l-0.1,2.5c-0.6,0-1.5-0.2-2.4-0.4c0.6,0.5,1.2,1.2,1.3,2c0,3.1-3.1,4.4-5.3,4.4
			c-0.5,0-1.1-0.1-1.6-0.2c-0.4,0.1-0.6,0.4-0.6,0.7c0,1.4,8.1-0.2,8.1,4.6c0,3-2.9,4.6-6.1,4.6c-2.7,0-5.4-1.2-5.4-3.5
			c0-1.6,1.3-2.5,3.4-2.8c-1.6-0.2-3.2-0.7-3.2-2.2c0-1.1,1-1.8,2.4-2c-1.3-0.7-2.3-1.8-2.3-3.6c0-3.4,3.2-4.3,5.3-4.3
			C213.2,73.1,216.1,73.3,218.3,73.4z M211.4,85.4c-1.2,0.1-2,0.8-2,1.9c0,1.1,1,1.9,2.4,1.9c1.5,0,2.5-0.8,2.5-2.1
			C214.4,85.9,213.4,85.5,211.4,85.4z M214.1,77.4c0-1.5-1.3-1.9-2.3-1.9c-1,0-2.3,0.4-2.3,1.9c0,1.6,1.2,2,2.3,2
			C212.9,79.4,214.1,79,214.1,77.4z"/>
		<path class="st0" d="M219.7,71.4l-0.3-2l6.6-1.8l0.4,2.5L219.7,71.4z M221.6,86.1V75.8l-1.5-0.3v-2.1h4.9v12.7H221.6z"/>
		<path class="st0" d="M235.9,86.1l-0.5-1.5c-0.6,0.9-1.9,1.8-3.7,1.8c-2.5,0-4.3-1.6-4.3-4.1c0-2.4,1.7-3.8,4.8-3.8h2.7v-0.7
			c0-1.6-0.9-2.2-2.2-2.2c-1.5,0-2.8,0.4-3.8,0.9l-0.9-2.4c1.3-0.5,3-1,5-1c3.6,0,5.2,1.7,5.2,4.9v8.1H235.9z M235,80.5h-2.1
			c-1.4,0-2.1,0.7-2.1,1.6c0,1.2,0.6,1.9,1.9,1.9c0.8,0,1.6-0.4,2.3-0.9V80.5z"/>
	</g>
</g>
</svg>
