<?xml version="1.0" encoding="utf-8"?>
<!-- Generator: Adobe Illustrator 24.2.3, SVG Export Plug-In . SVG Version: 6.00 Build 0)  -->
<svg version="1.1" id="Capa_1" xmlns="http://www.w3.org/2000/svg" xmlns:xlink="http://www.w3.org/1999/xlink" x="0px" y="0px"
	 viewBox="0 0 341.5 313.1" style="enable-background:new 0 0 341.5 313.1;" xml:space="preserve">
<style type="text/css">
	.st0{fill:#417D80;}
	.st1{fill:none;}
</style>
<g>
	<g>
		<g>
			<path class="st0" d="M167.4,283.2c-1.9,0.9-3.4,1.3-5.2,1.3c-4.1,0-6.1-2.9-6.1-7.3c0-4.2,2.1-7.1,6.4-7.1c2.1,0,3.5,0.5,4.6,1.2
				l-1.1,2c-0.8-0.5-1.9-0.9-3.4-0.9c-2.5,0-3.6,1.9-3.6,4.6c0,3.3,1.2,5.1,3.5,5.1c0.9,0,1.8-0.2,2.4-0.5v-2.5H163l-0.1-2h4.5
				V283.2z"/>
			<path class="st0" d="M178.6,279.3c0,3.4-1.7,5.3-4.7,5.3c-3,0-4.7-1.8-4.7-5.3c0-3,1.6-5.2,4.7-5.2
				C176.9,274.1,178.6,276.3,178.6,279.3 M175.8,279.3c0-2.4-0.7-3.3-2-3.3c-1.3,0-1.9,0.9-1.9,3.3c0,2.3,0.6,3.3,1.9,3.3
				C175.2,282.5,175.8,281.7,175.8,279.3"/>
			<path class="st0" d="M183.1,275.3c0.5-0.6,1.5-1.2,2.7-1.2c2.4,0,4.1,1.7,4.1,5.2c0,3.5-2.1,5.3-4.4,5.3c-1.4,0-2.3-0.6-2.9-1.4
				l-0.5,1.2h-1.4v-14.2h2.7v3.5L183.1,275.3z M183.3,281.5c0.4,0.6,1.1,1,1.8,1c1.2,0,2-0.9,2-3.3c0-2.4-0.8-3.2-2-3.2
				c-0.7,0-1.4,0.4-1.9,0.8V281.5z"/>
			<path class="st0" d="M192.7,284.3v-8.1l-1.1-0.2v-1.7h3.8v10.1H192.7z M192.6,270.2h2.7v2.4h-2.7V270.2z"/>
			<path class="st0" d="M200.1,280c0,1.6,0.9,2.5,2.6,2.5c1,0,2.1-0.4,2.9-0.9l0.5,1.9c-0.8,0.4-2.2,1-3.8,1c-3.1,0-5-1.9-5-5.3
				c0-3.1,1.5-5.2,4.7-5.2c3,0,4.3,2.3,4.3,4.8v1.2H200.1z M202,276c-1.3,0-1.9,1.2-1.9,2.4h3.7C203.8,277.1,203.4,276,202,276"/>
			<path class="st0" d="M214.1,276.5c-0.3-0.1-0.8-0.2-1.3-0.2c-0.7,0-1.4,0.3-1.8,0.7v7.3h-2.7v-10.1h1.9c0.1,0.5,0.2,0.9,0.3,1.4
				h0.1c0.3-0.7,1.2-1.5,2.4-1.5c0.5,0,0.9,0.1,1.2,0.1C214.1,275,214.1,275.7,214.1,276.5"/>
			<path class="st0" d="M222,284.3v-6c0-1.5-0.6-2.2-1.8-2.2c-0.7,0-1.3,0.3-1.8,0.6v7.6h-2.7v-10.1h1.8l0.4,1.1
				c0.6-0.7,1.7-1.4,3.2-1.4c2.5,0,3.5,1.5,3.5,4v6.2H222z"/>
			<path class="st0" d="M235.9,279.3c0,3.4-1.7,5.3-4.7,5.3c-3,0-4.7-1.8-4.7-5.3c0-3,1.6-5.2,4.7-5.2
				C234.2,274.1,235.9,276.3,235.9,279.3 M233.2,279.3c0-2.4-0.7-3.3-2-3.3c-1.2,0-1.9,0.9-1.9,3.3c0,2.3,0.6,3.3,1.9,3.3
				C232.5,282.5,233.2,281.7,233.2,279.3"/>
			<path class="st0" d="M249,275c-0.2-0.6-0.3-1.1-0.3-1.8v-3h2.7v14.2h-2.2l-0.3-1.1c-0.4,0.6-1.4,1.3-2.7,1.3
				c-2.3,0-4.1-1.6-4.1-5.2c0-3.3,1.9-5.2,4.3-5.2C247.5,274.1,248.4,274.4,249,275 M248.7,276.6c-0.4-0.2-1-0.5-1.8-0.5
				c-1.3,0-2.1,0.9-2.1,3.2c0,2.4,0.8,3.3,2,3.3c0.7,0,1.4-0.3,1.9-0.9V276.6z"/>
			<path class="st0" d="M256.1,280c0,1.6,0.9,2.5,2.6,2.5c1,0,2.1-0.4,2.9-0.9l0.5,1.9c-0.8,0.4-2.2,1-3.8,1c-3.1,0-5-1.9-5-5.3
				c0-3.1,1.5-5.2,4.7-5.2c3,0,4.2,2.3,4.2,4.8v1.2H256.1z M258,276c-1.3,0-1.9,1.2-1.9,2.4h3.7C259.8,277.1,259.4,276,258,276"/>
			<path class="st0" d="M274.6,284.5c-3.9,0-6-2.6-6-7.2c0-4.3,2.1-7.1,6-7.1c1.9,0,3.6,0.4,4.7,1.2l-1,2.1c-0.7-0.5-2-0.9-3.4-0.9
				c-2.3,0-3.4,1.7-3.4,4.7c0,3.2,1.1,4.9,3.4,4.9c1.4,0,2.7-0.6,3.7-1.3l0.9,2.2C278,284,276.4,284.5,274.6,284.5"/>
			<path class="st0" d="M281.2,284.3v-14.2h2.7v3.7c0,0.7-0.2,1.4-0.3,1.6c0.6-0.7,1.4-1.4,2.8-1.4c2.9,0,3.7,1.5,3.7,4v6.2h-2.7v-6
				c0-0.3,0-0.5-0.1-0.6c-0.1-1.1-0.7-1.6-1.7-1.6c-0.7,0-1.3,0.3-1.8,0.6v7.6H281.2z"/>
			<path class="st0" d="M293.2,284.3v-8.1l-1.2-0.2v-1.7h3.8v10.1H293.2z M293.1,270.2h2.7v2.4h-2.7V270.2z"/>
			<path class="st0" d="M298.3,281.6v-11.5h2.6v11.4c0,0.8,0.5,1,1.6,1v1.9c0,0-0.8,0.2-1.5,0.2
				C299.1,284.5,298.3,283.4,298.3,281.6"/>
			<path class="st0" d="M306.7,280c0,1.6,0.9,2.5,2.6,2.5c1,0,2.1-0.4,2.9-0.9l0.5,1.9c-0.8,0.4-2.2,1-3.8,1c-3.1,0-5-1.9-5-5.3
				c0-3.1,1.5-5.2,4.7-5.2c3,0,4.2,2.3,4.2,4.8v1.2H306.7z M308.5,276c-1.3,0-1.9,1.2-1.9,2.4h3.7C310.3,277.1,309.9,276,308.5,276"
				/>
			<path class="st0" d="M326.9,10.2H15.1h-5v5l0,283.5v5h5h311.8h5v-5l0-283.5v-5H326.9z M15.1,15.2h125.2l0,283.5H15.1L15.1,15.2z
				 M326.9,298.8H145.3l0-283.5h181.6L326.9,298.8z"/>
		</g>
		<g>
			<g>
				<g>
					<path class="st0" d="M81.6,54.1c0.3-0.2,0.9-0.7,0.4-1.7c-0.2-0.5-0.8-0.5-0.6-0.5c3.2-0.8,4.9-5.4,4.8-7.2
						c1.6,1.5,5.3,2,8-0.3c1.7-1.7,2.6-6-0.4-8.2c-1.5-1.1-4.2-1.2-5.9,0.1c-0.5-0.9-1.5-1.5-2.4-1.5c0-0.3,0-2.4-1.2-3.8
						c-1.6-1.7-6.1-1.9-7.7,0c-3.2-0.8-7.4,0.7-7.2,5.7c-2.3-0.9-3.6-0.9-4.8-0.8c-1.1,0.1-2.6,1.1-3.2,1.8
						c-0.2,0.3-0.5,0.7-0.7,1.1c-0.4,0.7-0.7,1.7-0.5,2.7c0.2,1.8,1.1,3.3,2.4,4c1.8,1,4.1,0.9,4.9,0.7c0.6-0.1,1.3-0.4,2-1.1
						c0.2-0.2,0.4-0.6,0.7-0.6c0,0.5-0.2,2.9,2.5,4c0,0.1,0.1,0.2,0.1,0.4c0.9,3.3,3.1,2.9,3.1,3.2c-1,0.6-0.6,1.5-0.3,1.9
						c1.5-0.5,2.6-0.5,3-0.5C79,53.6,80.1,53.6,81.6,54.1z"/>
					<g>
						<polygon class="st1" points="78.3,57.5 76.2,64.2 69,64.2 69.1,64.2 74.9,68.3 72.7,75 78.3,70.7 83.9,75 81.6,68.3 
							87.5,64.2 87.5,64.2 80.3,64.2 						"/>
						<path class="st0" d="M89.2,64.2c0-3.3,2.3-5.9,2.3-6c0.2-0.3,0.3-0.5,0.3-0.7c0-0.3-0.3-0.5-0.3-0.5c-0.6-0.4-2.1-1.3-2.1-1.3
							l-0.1-0.1h-0.1c-0.2,0-0.3,0.1-0.5,0.2c-0.4,0.3-1.1,0.9-2.5,0.9c-0.2,0-0.5,0-0.7-0.1c-0.7-0.1-1.8-0.7-1.8-0.7
							c-0.4-0.2-0.8-0.4-1-0.5l-0.1,0c-1.9-0.8-3.5-0.8-3.9-0.8c-0.4,0-2,0.1-3.9,0.8l-0.1,0c-0.1,0-0.3,0.1-0.5,0.2L73,56.2
							c-0.4,0.2-0.9,0.4-1.2,0.4c-0.2,0-0.5,0.1-0.7,0.1c-1.3,0-2-0.6-2.5-0.9c-0.2-0.1-0.3-0.2-0.5-0.2l-0.1,0l-0.1,0
							c0,0-1.5,0.9-2.1,1.3c-0.1,0-0.3,0.2-0.4,0.6c0,0.2,0,0.4,0.3,0.7c0.1,0.1,2.3,2.7,2.3,6c0.1,0.4,0.2,2.4-1.5,5.4
							c-0.1,0.2-2,3.6,0.1,6.6c0,0,1.6,2.9,6.1,2.9c0.4,0,3.7,0.1,4.9,2.2c0,0.1,0.6,0.9,0.8,1.4l0.3,0.5l0.3-0.5
							c0.2-0.4,0.7-1.3,0.8-1.4c1.1-2.1,4.5-2.2,4.8-2.2c4.5,0,6.1-2.8,6.1-2.8c2.1-3.1,0.1-6.7,0.1-6.7
							C89,66.6,89.2,64.6,89.2,64.2z M87.5,64.2l-5.8,4.2l2.2,6.6l-5.6-4.3L72.7,75l2.2-6.6l-5.8-4.2l0,0h7.2l2-6.7l2,6.7L87.5,64.2
							L87.5,64.2z"/>
						<g>
							<path class="st1" d="M58.7,96.4c3.2,3.3,7.8,1.5,7.8,1.5c0.7-0.1,1.1-2.4,1.3-4.1c-2.8-0.4-5.4-0.8-8-1.5
								C59,94.3,58.7,96.4,58.7,96.4z"/>
							<path class="st1" d="M57.9,82.6c-0.1-0.1-0.2-0.2-0.4-0.2c-0.4-0.1-0.7,0.3-1.2,0.2c-0.4-0.1-3.7-2.6-3.9-2.7
								c-0.7-0.5-1.8-1.1-2.4-1.8c-0.4-0.5-0.1-1.1-0.1-1.7c0-0.4-0.6-1.5-1.5-1.8c-0.2,1-1.6,4.7-6,5.6c-0.6,2.4,0.3,7,0.9,7.6
								c0.4,0.1,0.8,0.3,1.1,0.5c0-0.9,0.3-1.5,0.3-1.5c1.2-2.5,4.1-1.7,4.1-1.7c1,0.3,1.2,1.2,1.2,1.2c0.4,2-1.3,2.2-1.3,2.2
								c-1.2,0.1-1.2-0.9-1.2-0.9c-0.1-0.9,1.2-1,1.2-1c-1.1-1.9-4.6,1.2-2.3,4.1c0.2,0.3,0.5,0.1,0.5,0.1c6.9-3.4,8-4.9,8-4.9
								c1.5-1.3,2.6-2.1,3.4-2.7C58.1,82.8,57.9,82.6,57.9,82.6z"/>
							<path class="st1" d="M90.5,55c0.1,0.1,0.3,0.2,0.4,0.3C90.8,55.2,90.7,55.1,90.5,55z"/>
							<path class="st1" d="M92.8,56.7c-0.2-0.2-0.5-0.4-0.7-0.6C92.3,56.4,92.5,56.6,92.8,56.7L92.8,56.7z"/>
							<path class="st1" d="M91.2,55.5c0.2,0.2,0.4,0.3,0.7,0.5C91.7,55.9,91.4,55.7,91.2,55.5z"/>
							<path class="st1" d="M57.4,95.2c0.2-0.3,0.5-1.5,0.5-1.5c0.2-0.7,0.4-1.2,0.7-1.8c-0.8-0.2-1.5-0.5-2.2-0.7
								C56.4,93.5,57.4,95.2,57.4,95.2z"/>
							<path class="st1" d="M89.9,93.7c0.2,1.8,0.6,4,1.3,4.1c0,0,4.6,1.8,7.8-1.5c0,0-0.2-2-1.1-4.2C95.4,92.9,92.7,93.4,89.9,93.7
								z"/>
							<path class="st1" d="M99.9,93.7c0,0,0.3,1.2,0.5,1.5c0,0,1-1.7,1-4c-0.7,0.2-1.5,0.5-2.2,0.7C99.5,92.5,99.7,93,99.9,93.7z"
								/>
							<path class="st1" d="M65.5,87.4c-1.5,0-2.7,0.6-3.6,1.5c1.7,0.4,3.8,0.8,6,1.1C67.6,87.4,65.5,87.4,65.5,87.4z"/>
							<path class="st1" d="M97,88.6c1.4-0.3,2.6-0.7,3.6-1c-0.2-0.4-0.4-0.8-0.7-1.2c0,0-3.9-4.7-10.9-2.1c-0.1,0,0.3,1.2,2.2,1.6
								C91.4,86,94.5,86.2,97,88.6z"/>
							<path class="st1" d="M92.2,87.4c0,0-2.1,0-2.4,2.6c2.2-0.3,4.3-0.7,6-1.1C94.9,88,93.7,87.4,92.2,87.4z"/>
							<path class="st1" d="M72.5,85.8c-0.5-0.7-1.2-0.7-1.2-0.7c-1,0-1.2,2.4-1.5,5.1c2.2,0.2,4.5,0.4,7.1,0.5
								C75.8,88.4,73.4,87,72.5,85.8z"/>
							<path class="st1" d="M57.9,86.4c-0.3,0.4-0.5,0.8-0.7,1.2c1,0.3,2.2,0.7,3.6,1c2.5-2.4,5.5-2.6,5.8-2.6
								c1.9-0.4,2.4-1.6,2.2-1.6C61.8,81.7,57.9,86.4,57.9,86.4z"/>
							<path class="st1" d="M86.5,85.1c0,0-0.7,0-1.2,0.7c-0.9,1.2-3.3,2.7-4.3,4.9c2.5-0.1,4.9-0.2,7.1-0.5
								C87.7,87.4,87.5,85,86.5,85.1z"/>
							<path class="st0" d="M128.3,91.9c-0.7-0.9-2.7-0.4-2.7-0.4c1-3.1-1.8-3.9-1.8-3.9c-1-0.3-1.7-0.1-2.1,0.2c0,0,0,0,0,0
								c0,0,0,0,0,0c-0.1,0.1-0.1,0.1-0.2,0.2c-0.3,0.3-0.4,0.6-0.4,1c0,0.8,0.7,1.5,1.5,1.5c0.3,0,0.6-0.1,0.9-0.3
								c0.3-0.2,0.5-0.5,0.6-0.9c0.4,0.3,0.6,0.7,0.6,0.7c0.8,2.6-2.1,3.6-2.1,3.6c-6.6,2-10.6-1.4-10.6-1.4l1.1-0.6
								c0.4-0.2,0.8-0.2,1-0.2c0,0.1,0,0.1,0,0.2c0,0.7,0.6,1.3,1.3,1.3c0.7,0,1.3-0.6,1.3-1.3c0-0.5-0.3-0.8-0.3-0.8
								c-0.8-1.2-3.4-0.4-3.4-0.4c0.9-2.2,0.1-3.7,0.1-3.7c-1.2-2.5-4.1-1.7-4.1-1.7c-1,0.3-1.2,1.2-1.2,1.2c-0.4,2,1.3,2.2,1.3,2.2
								c1.2,0.1,1.2-0.9,1.2-0.9c0.2-0.9-1.2-1-1.2-1c1.1-1.9,4.6,1.2,2.3,4.1c-0.2,0.3-0.5,0.1-0.5,0.1c-4.1-2-6.1-3.3-7.1-4.1
								c-0.1-1.1-1.1-1.7-0.9-2c0.2-0.1,0.7,0.2,1.1-0.3c0.1-0.2,0.4-1.9,0.6-3.2c3.6,1.7,6.7,1.2,7.3,1c0.3-0.1,0.6-0.4,0.6-0.8
								c0.1-1.4-3.5-9.5-3.6-12.4c1.7,0.8,2.7-1.8,3-2.6c2.3,1,3,22.1,4.8,22.8c0.9,0.4,1.2-1.1,1.3-1.3c2.8-9.4,2.9-18.5,2.7-21.6
								c-0.3-4.8-0.7-9.1-1.8-13c-0.7-2.4-2.1-7.4-5.3-8.1c-1.5-0.3-2.6,1.1-2.6,2.3c0,1.1,0.8,1.6,0.4,2.7c-0.4,0.7-0.8,1.5-1,2.2
								c-0.2,0.8,0.5,1.1,0.3,1.9c-1-0.2-1.5,0.7-3.1,0.3c1-0.5,1.1-3.5-0.2-4c-0.2-0.1-0.4-0.1-0.4-0.3c0,0,0.4-0.4,0.6-0.9
								c0.7-1.5,0.7-2.8,0.1-3.8c0.5,0,1.1-0.9,1.2-1.7l0,0c0,0,0,0,0-0.1v0c0-0.2,0-0.9,0.3-1.5c0.1-0.2,0-0.4-0.2-0.5
								c-0.2-0.1-0.4,0-0.5,0.2c-0.3,0.7-1.1,0.3-0.7-0.4c0.1-0.2,0-0.4-0.2-0.5c-0.2-0.1-0.4,0-0.5,0.2c-0.3,0.6-1,0.3-0.7-0.4
								c0.1-0.2,0-0.4-0.2-0.5c-0.2-0.1-0.4,0-0.5,0.2c-0.3,0.7-1.1,0.3-0.8-0.4c0.1-0.2,0-0.5-0.2-0.5c-0.2-0.1-0.4,0-0.5,0.2
								c-0.3,0.7-0.6,1-0.9,1.3c-0.7,0.1-0.5,0.9-0.4,1.5c-1.3-0.3-2.3,0.7-2.4,1.6h-0.1c-1.1,0-2.1,0.6-2.1,1.6
								c0,0.6,0.7,1.3,1,1.3c0.1,0-0.1-0.6,0.5-0.6c0.5,0,1.3,0.4,1.4,0.9c0.1,0.6-0.3,1.9,1.4,2.1c0,0,0,0.3,0,0.6
								c-0.6,0-0.8-0.1-1.4,0c-1.1,0.2-2.7,0.8-3.1,1.9c-0.1,0.2-0.1,0.6-0.1,0.9c0,0.2,0.2,0.5,0.2,0.8c0,0.1-0.3,0.4-0.4,0.5
								c-0.5,0.5-1.3,1-2.1,1c-0.9,0-1.7-0.5-2-1c-1.1-1.5,0.3-4.2,0.3-5.2c-0.1-2.6-3.4-1.1-4.7-0.4c-1.6,0.8-2.8,2.1-3.9,3.5
								c-0.6,0.7-1.2,1.6-1.5,2.4c-0.1,0.1-0.2,0.2-0.3,0.2c0.7,0.3,1.9,0.7,2.8,0.8c0,0,1.8,0.2,3.1-0.8c0,0,0.2-0.2,0.5-0.2
								c0.2,0,0.4,0.1,0.5,0.2c0,0,0.2,0.2,0.4,0.3c0.1,0.1,0.3,0.2,0.4,0.3c0.1,0.1,0.2,0.1,0.2,0.2c0.2,0.2,0.5,0.4,0.7,0.5
								c0,0,0.1,0.1,0.1,0.1c0.3,0.2,0.5,0.4,0.7,0.6l0,0c0.3,0.2,0.5,0.4,0.7,0.5l0,0c0,0,0.1,0.1,0.1,0.2c0,0.1,0,0.2-0.1,0.3
								c0,0-0.1,0.2-0.4,0.4c-0.4,0.6-1.2,1.7-1.7,3c0.6,1.1,1.7,2.4,3.2,2.4c1.2,0,1.7-0.6,1.9-1.3c0,0,0.1,0.1,0.1,0.1
								c0.1-0.1,0.8,3.4,1.7,4.4c-0.8,0.4-2.1,1.7-1.4,5.2c-0.7-0.5-1.9-1.5-2.5-2.1c-0.4-0.7-1-2.4-3-2.6c0.3,0.9,0.7,1.9,1.3,3
								c0,0,1.2,2.3,0.8,4.8c0.8-0.9,0.7-3.2,0.7-3.2c0,0,0.1-0.1,0.2-0.1c0.2,0,1,1.6,2.4,2c1.9,3.2,4,5.2,6,6.5
								c0,0.8,0.1,2.6-0.4,2.6c-1.6,0.4-3.1-0.7-4.5-0.7c-0.1-0.1-0.2-0.1-0.2-0.1c-6.1-2.9-14.1,3.4-15.4,4.6
								c-0.7,0.6-1.5-0.2-1.5-0.2c-0.5-0.6-1.1-0.9-1.7-0.8c-0.6-0.1-1.2,0.2-1.7,0.8c0,0-0.8,0.9-1.5,0.2
								c-1.3-1.2-8.5-6.8-14.5-4.9c0-0.3-0.8-0.5-1-0.6c-0.5-0.1-0.9-0.5-1.2-0.7c-0.6-0.3-1.7-0.1-2.4-0.2c-0.3,0-0.7-0.2-0.9-0.3
								c-1-0.6-2-1.3-2.6-2.2c-0.1-0.1-0.3-0.5-0.4-0.5c-0.3-0.4-0.4-0.6-0.7-1.3c-0.3-1.2,0.2-2.4,0.4-3.6c0.1-0.9,0.1-0.9,0.2-1.9
								c3.8-1.3,5.3-4.1,6.2-5.6c0.1-0.1,0.3-0.6,0.3-0.6c0.2,0,0.3,0,0.5,0c1.5,0,2.5-0.8,4.2-0.6c0,0.1,0.2,0.8,1.3,1.2
								c0,1.1,0.1,2,0.5,2.8c0.1,0.1,0.2,0.3,0.3,0.4c0.7-1.7,0.9-3.1,0.9-3.9c-0.1-0.1-0.1-0.2-0.1-0.3c-0.4-1.8-1.2-2.3-2-2.8
								c-0.4-0.2-0.8-0.3-1.2-0.6c-0.6-0.4-1.2-0.8-1.6-1.6c0,0,0.2-0.2,0.4-0.4c1.1-1.1,1.6-2.7,2-4.5c0.8-1.1,3-0.7,3.9-0.5
								c0.2,0,0.6,0.1,0.8,0.2c0.2,0.2,0.3,0.5,0.6,0.7c0.4,0.1,0.8,0,1.2,0c0.2,0.2,0.2,0.4,0.4,0.7c0,0,0.1,0.2,0.3,0.4
								c1,0,2.5-0.6,3-0.9c-0.1,0-0.1-0.1-0.2-0.1c-0.5-0.6-1.2-1.3-1.8-1.4c-0.8-0.1-1-0.9-1.8-1c-0.2-0.1-0.9-0.2-1.2-0.1
								c-1.8,0.2-3-0.4-4.7-0.6c-1.6-0.1-1.6,1-2.2,1.8c-0.2,0.3-0.5,0.7-0.7,1c-0.4,0.4-0.9,0.4-1.5,0.8L60,54.4
								c-0.1-0.5-0.3-1.1-0.7-1.6c-0.9-1.3-1.8-2.4-3.7-2.8c-0.4-0.1-0.4-0.2-0.7-0.4c-0.3-0.2-0.1-0.5,0-0.6
								c0.5-0.3,1.5-0.2,2.1-0.5c1.5-0.7,1-2,0.4-2.1c-0.8-0.1-2.1-0.5-2.4-0.7c-0.4-0.2-1-1.4-1.6-1.7c-0.7-0.2-0.4-1.3-1-1.5
								c-0.3,0-0.7,0.1-1.1,0.3c0-0.2-0.2-1.5-0.9-1.9c-0.5-0.3-0.7,0.2-0.7,0.5c0,0.3,0.7,0.6,0.9,1.8c-0.1,0.1-0.2,0.1-0.4,0.2
								c-0.1-0.5-0.3-1.2-0.8-1.5c-0.5-0.3-0.7,0.2-0.7,0.5c0,0.3,0.7,0.6,0.9,1.6c-0.2,0.1-0.3,0.2-0.4,0.4c-1-0.3-1.3-1-1.5-1
								c-0.3-0.1-0.7,0.1-0.5,0.6c0.2,0.5,1,0.8,1.5,1c-0.1,0.1-0.2,0.2-0.3,0.3c-1.2-0.2-1.5-1-1.7-1.1c-0.3-0.1-0.8,0.1-0.5,0.6
								c0.3,0.7,1.7,1,1.8,1.1c-0.2,0.3-0.3,0.6-0.3,0.8c-0.9-0.1-2.5,0.4-2.2,1.5c0.3,0.2,1.4-0.7,2.4-0.2c0.7,1,1.7,1.1,1.9,1.3
								c0.4,0.3,0.4,0.8,0.6,1.3c0.3,0.9,0.9,1.6,1.4,2.4c0.6,0.9,1.2,1.8,1.7,2.5c0.1,0.2,0.1,0.4,0.1,0.7
								c-0.7,1.1-2.7,2.3-3.5,3.1c-0.8,0.8-8.7,6.8-9.7,9.4c-0.2,0.6-0.3,1.3-0.3,2.1c-0.5,0.3-1.5,0.7-1.9,0.2
								c-0.6-0.8,0.6-1.5,0.3-2.3c-0.1-0.3-0.6-0.5-0.9-0.3c-2,1.4-1,3.9,0.3,4.5c1.4,0.6,1.6-0.9,2.6-0.3c0.3,0.1,2.8,2.4,2.3,4.1
								c0,0.1-0.1,0.3-0.2,0.4c-0.5,0.7-1.5,1.2-2.1,1.8c-1.3,0.8,1.2,6,1,8.7c-0.1,1,0.8,0.9,1.4,2.5c-0.6,0-1.2,0.2-1.5,0.6
								c0,0-0.3,0.3-0.3,0.8c0,0.7,0.6,1.3,1.3,1.3c0.7,0,1.3-0.6,1.3-1.3c0-0.1,0-0.1,0-0.2c0.3,0,0.6,0.1,1,0.2l1.1,0.6
								c0,0-4,3.4-10.6,1.4c0,0-3-0.9-2.1-3.6c0,0,0.1-0.4,0.6-0.7c0.1,0.4,0.3,0.7,0.6,0.9c0.2,0.2,0.5,0.3,0.9,0.3
								c0.8,0,1.5-0.7,1.5-1.5c0-0.4-0.2-0.8-0.4-1c-0.1-0.1-0.1-0.1-0.2-0.2c0,0,0,0,0,0c0,0,0,0,0,0c-0.4-0.3-1.1-0.5-2.2-0.2
								c0,0-2.9,0.8-1.8,3.9c0,0-1.9-0.4-2.7,0.4c0,0-0.3,0.3-0.2,0.7v0v0c0,0.2,0.1,0.4,0.2,0.6c0.2,0.3,0.5,0.5,0.9,0.5
								c0.4,0,0.7-0.2,0.9-0.4c0,0,0,0,0,0c0.1-0.1,0.3-0.2,0.7,0.1c4.4,4.5,11.5,2.7,15.4-0.4c0,0,2.2-2.2,4.6-3.5
								c0.9,0.4,2,0.7,2.9,1.1c-0.1,1.4,0.2,3.4,1.8,5.8c0,0-1.1,2.1-3,0.9c0,0-1.4-1.1-0.2-2.4c0,0,0.8-0.7,1.1,0.2
								c-0.4,0-0.7,0.4-0.7,0.8c0,0.4,0.3,0.8,0.8,0.8c0.4,0,0.7-0.3,0.8-0.7c0-0.3,0.1-1.1-0.6-1.7c0,0-0.6-0.6-1.7-0.5
								c-1.7,0.3-2.6,3.7,0.7,5.1c0,0,2.6,1.2,3.9-0.7c0,0,0-0.3,0.5,0.2c2.7,2.6,8.8,1.9,11.2,0.1c0,0,0.6-0.4,1.3-0.7
								c0,1,0.9,1.8,1.9,1.8c1,0,1.9-0.9,1.9-1.9c0-0.9-0.7-1.7-1.6-1.9c0,0-1.2-0.4-3,0.7c0,0-1.9,1.2-1.8,1c0.6-1,1-2.3,1.3-3.7
								c2.6,0.3,5.4,0.5,8.2,0.5c0,0.8-0.1,1.8-0.5,2.6c0,0-1,0.4-1,1.1c0,0-0.1,0.5,0.8,1.2c0,0,0.6,0.7,0.8,1.3
								c0,0,0.1,0.8,1.1,0.8c0.1,0,0.1,0,0.2,0c0.1,0,0.1,0,0.2,0c1.1,0,1.1-0.8,1.1-0.8c0.2-0.6,0.8-1.3,0.8-1.3
								c0.9-0.7,0.8-1.2,0.8-1.2c0-0.7-1-1.1-1-1.1c-0.3-0.8-0.4-1.8-0.5-2.6c2.8-0.1,5.5-0.3,8.2-0.5c0.3,1.4,0.7,2.7,1.3,3.7
								c0.1,0.2-1.7-1-1.7-1c-1.8-1.1-3-0.7-3-0.7c-0.9,0.2-1.6,0.9-1.6,1.9c0,1,0.8,1.9,1.9,1.9c1,0,1.9-0.8,1.9-1.8
								c0.7,0.3,1.3,0.7,1.3,0.7c2.4,1.8,8.5,2.6,11.2-0.1c0.5-0.5,0.5-0.2,0.5-0.2c1.3,1.9,3.9,0.7,3.9,0.7
								c3.3-1.4,2.3-4.9,0.7-5.1c-1.1-0.2-1.7,0.5-1.7,0.5c-0.7,0.6-0.7,1.4-0.6,1.7c0,0.4,0.3,0.7,0.8,0.7c0.4,0,0.8-0.3,0.8-0.8
								c0-0.4-0.3-0.7-0.7-0.8c0.3-0.8,1.1-0.2,1.1-0.2c1.2,1.3-0.2,2.4-0.2,2.4c-1.9,1.1-3-0.9-3-0.9c1.6-2.3,1.9-4.4,1.8-5.8
								c1-0.4,2-0.7,2.9-1.1c2.4,1.3,4.6,3.5,4.6,3.5c3.9,3,11,4.9,15.4,0.4c0.3-0.4,0.6-0.2,0.7-0.1c0,0,0,0,0,0
								c0.2,0.3,0.5,0.4,0.9,0.4c0.4,0,0.7-0.2,0.9-0.5c0.1-0.2,0.2-0.5,0.2-0.6v0v0C128.5,92.2,128.3,91.9,128.3,91.9z M47,90.6
								c0,0-0.2,0.2-0.5-0.1c-2.3-2.8,1.2-6,2.3-4.1c0,0-1.3,0-1.2,1c0,0,0,1,1.2,0.9c0,0,1.7-0.2,1.3-2.2c0,0-0.2-0.9-1.2-1.2
								c0,0-2.9-0.8-4.1,1.7c0,0-0.3,0.6-0.3,1.5c-0.3-0.3-0.7-0.5-1.1-0.5c-0.5-0.6-1.5-5.2-0.9-7.6c4.4-0.9,5.8-4.6,6-5.6
								c0.9,0.3,1.4,1.3,1.5,1.8c0.1,0.6-0.2,1.2,0.1,1.7c0.5,0.7,1.7,1.4,2.4,1.8c0.2,0.2,3.5,2.7,3.9,2.7c0.5,0.1,0.7-0.2,1.2-0.2
								c0.1,0,0.2,0.1,0.4,0.2c0,0,0.2,0.2,0.6,0.5c-0.9,0.6-2,1.4-3.4,2.7C55,85.7,53.9,87.2,47,90.6z M57.9,93.7
								c0,0-0.3,1.2-0.5,1.5c0,0-1-1.7-1.1-4c0.7,0.2,1.5,0.5,2.2,0.7C58.3,92.5,58,93,57.9,93.7z M66.5,97.8c0,0-4.6,1.8-7.8-1.5
								c0,0,0.2-2,1.1-4.2c2.6,0.7,5.2,1.2,8,1.5C67.6,95.5,67.3,97.7,66.5,97.8z M62,88.9c0.9-0.9,2.1-1.4,3.6-1.5
								c0,0,2.1,0,2.4,2.6C65.7,89.6,63.7,89.3,62,88.9z M66.6,85.9c-0.3,0.1-3.3,0.3-5.8,2.6c-1.4-0.3-2.6-0.7-3.6-1
								c0.2-0.4,0.4-0.8,0.7-1.2c0,0,3.9-4.7,10.9-2.1C68.9,84.4,68.5,85.5,66.6,85.9z M69.8,90.2c0.3-2.8,0.5-5.2,1.5-5.1
								c0,0,0.7,0,1.2,0.7c0.9,1.2,3.3,2.7,4.3,4.9C74.3,90.6,71.9,90.4,69.8,90.2z M80.9,90.7c1.1-2.2,3.5-3.7,4.3-4.9
								c0.5-0.7,1.2-0.7,1.2-0.7c1,0,1.2,2.4,1.5,5.2C85.8,90.5,83.4,90.6,80.9,90.7z M89,84.3c7-2.7,10.9,2.1,10.9,2.1
								c0.3,0.4,0.5,0.8,0.7,1.2c-1,0.3-2.2,0.7-3.6,1c-2.5-2.4-5.5-2.6-5.8-2.6C89.3,85.5,88.8,84.4,89,84.3z M92.2,87.4
								c1.5,0,2.7,0.6,3.6,1.5c-1.7,0.4-3.8,0.8-6,1.1C90.2,87.4,92.2,87.4,92.2,87.4z M91.2,97.8c-0.7-0.1-1.1-2.4-1.3-4.1
								c2.8-0.4,5.4-0.8,8-1.5c0.9,2.1,1.1,4.2,1.1,4.2C95.8,99.7,91.2,97.8,91.2,97.8z M100.4,95.2c-0.2-0.3-0.5-1.5-0.5-1.5
								c-0.2-0.7-0.4-1.2-0.7-1.8c0.7-0.2,1.5-0.5,2.2-0.7C101.4,93.5,100.4,95.2,100.4,95.2z"/>
						</g>
					</g>
				</g>
			</g>
		</g>
	</g>
	<g>
		<path class="st0" d="M172.4,61.6L172,46.7h-0.1c-0.3,1.9-0.6,3.2-0.9,4.2l-2.5,10.6h-5L161.2,51c-0.2-1-0.5-2.4-0.9-4.2h-0.1
			L160,61.6h-3.1l0.7-17.6h5.9c0,0,1.9,8.8,2.9,14.5h0.1c1.2-5.6,3.5-14.5,3.5-14.5h5.7l0.7,17.6H172.4z"/>
		<path class="st0" d="M180.2,61.6V51.3l-1.5-0.3v-2.1h4.9v12.7H180.2z M180.1,43.6h3.4v3.1h-3.4V43.6z"/>
		<path class="st0" d="M194.6,61.6V54c0-1.9-0.7-2.8-2.3-2.8c-0.9,0-1.6,0.4-2.2,0.8v9.6h-3.4V48.8h2.3l0.5,1.5
			c0.7-0.9,2.1-1.7,4-1.7c3.2,0,4.5,1.9,4.5,5.1v7.9H194.6z"/>
		<path class="st0" d="M201.9,61.6V51.3l-1.5-0.3v-2.1h4.9v12.7H201.9z M201.8,43.6h3.4v3.1h-3.4V43.6z"/>
		<path class="st0" d="M211.3,52.2c0,2,5.5,1.4,5.5,5.5c0,2.3-1.7,4.1-5,4.1c-1.5,0-3-0.4-3.8-0.9l0.7-2.4c0.6,0.4,1.8,0.9,3,0.9
			c1.1,0,1.9-0.6,1.9-1.4c0-2.3-5.4-1.5-5.4-5.9c0-1.9,1.4-3.6,4.9-3.6c1.3,0,2.7,0.3,3.6,0.6l-0.5,2.5c-0.9-0.4-2-0.7-3.1-0.7
			C211.9,51,211.3,51.4,211.3,52.2z"/>
		<path class="st0" d="M224.2,61.8c-2.3,0-3.7-1.1-3.7-4.3v-6.3h-1.9v-2.4h1.9v-2.2l3.4-1.1v3.3h3.4v2.4h-3.4v6.2
			c0,0.9,0.4,1.5,1.4,1.5c0.7,0,1.4-0.2,2-0.5l0.5,2.5C226.9,61.4,225.5,61.8,224.2,61.8z"/>
		<path class="st0" d="M232.1,56.1c0,2,1.1,3.1,3.3,3.1c1.3,0,2.6-0.5,3.7-1.1l0.6,2.4c-1.1,0.6-2.8,1.2-4.8,1.2
			c-3.9,0-6.3-2.4-6.3-6.7c0-3.9,1.9-6.6,6-6.6c3.8,0,5.4,2.9,5.4,6.1v1.5H232.1z M234.5,51c-1.7,0-2.4,1.5-2.4,3h4.7
			C236.7,52.5,236.2,51,234.5,51z"/>
		<path class="st0" d="M249.8,51.6c-0.4-0.1-1-0.2-1.6-0.2c-0.9,0-1.7,0.4-2.3,0.9v9.3h-3.4V48.8h2.4l0.4,1.7h0.1c0.4-0.9,1.5-2,3-2
			c0.7,0,1.2,0.1,1.5,0.2L249.8,51.6z"/>
		<path class="st0" d="M252.9,61.6V51.3l-1.5-0.3v-2.1h4.9v12.7H252.9z M252.8,43.6h3.4v3.1h-3.4V43.6z"/>
		<path class="st0" d="M270.8,55.2c0,4.3-2.2,6.7-6,6.7c-3.8,0-6-2.3-6-6.7c0-3.7,2.1-6.6,6-6.6C268.7,48.6,270.8,51.4,270.8,55.2z
			 M267.3,55.2c0-3.1-0.9-4.1-2.5-4.1c-1.6,0-2.5,1.1-2.5,4.1c0,3,0.8,4.2,2.5,4.2C266.5,59.3,267.3,58.2,267.3,55.2z"/>
		<path class="st0" d="M287.3,49.8c-0.2-0.7-0.3-1.4-0.3-2.3v-3.8h3.4v17.9h-2.8l-0.4-1.4c-0.5,0.8-1.7,1.7-3.4,1.7
			c-2.9,0-5.2-2.1-5.2-6.6c0-4.2,2.4-6.6,5.5-6.6C285.5,48.6,286.6,49,287.3,49.8z M287,51.7c-0.5-0.3-1.3-0.6-2.3-0.6
			c-1.6,0-2.6,1.1-2.6,4.1c0,3,1,4.2,2.6,4.2c0.9,0,1.7-0.4,2.4-1.1V51.7z"/>
		<path class="st0" d="M296.4,56.1c0,2,1.1,3.1,3.3,3.1c1.3,0,2.6-0.5,3.7-1.1l0.7,2.4c-1.1,0.6-2.8,1.2-4.8,1.2
			c-3.9,0-6.3-2.4-6.3-6.7c0-3.9,1.9-6.6,6-6.6c3.8,0,5.4,2.9,5.4,6.1v1.5H296.4z M298.8,51c-1.7,0-2.4,1.5-2.4,3h4.7
			C301,52.5,300.5,51,298.8,51z"/>
		<path class="st0" d="M157.2,86.6V69H168v2.9h-7.4v4.3h5.6l-0.3,3h-5.4v4.5h7.4v2.8H157.2z"/>
		<path class="st0" d="M178.5,86.6V79c0-1.9-0.7-2.8-2.3-2.8c-0.9,0-1.6,0.4-2.2,0.8v9.6h-3.4V73.8h2.3l0.5,1.5
			c0.7-0.9,2.1-1.7,4-1.7c3.2,0,4.5,1.9,4.5,5.1v7.9H178.5z"/>
		<path class="st0" d="M187.6,81.1c0,2,1.1,3.1,3.3,3.1c1.3,0,2.6-0.5,3.7-1.1l0.6,2.4c-1.1,0.6-2.8,1.2-4.8,1.2
			c-3.9,0-6.3-2.4-6.3-6.7c0-3.9,1.9-6.6,6-6.6c3.8,0,5.4,2.9,5.4,6.1v1.5H187.6z M190,76c-1.7,0-2.4,1.5-2.4,3h4.7
			C192.3,77.5,191.8,76,190,76z"/>
		<path class="st0" d="M205.3,76.6c-0.4-0.1-1-0.2-1.6-0.2c-0.9,0-1.7,0.4-2.3,0.9v9.3h-3.4V73.8h2.4l0.4,1.7h0.1c0.4-0.9,1.5-2,3-2
			c0.7,0,1.2,0.1,1.5,0.2L205.3,76.6z"/>
		<path class="st0" d="M218.6,73.8l-0.1,2.5c-0.6,0-1.5-0.2-2.4-0.4c0.6,0.5,1.2,1.2,1.3,2c0,3.1-3.1,4.4-5.3,4.4
			c-0.5,0-1.1-0.1-1.6-0.2c-0.4,0.1-0.6,0.4-0.6,0.7c0,1.4,8.1-0.2,8.1,4.6c0,3-2.9,4.6-6.1,4.6c-2.7,0-5.4-1.2-5.4-3.5
			c0-1.6,1.3-2.5,3.4-2.8c-1.6-0.2-3.2-0.7-3.2-2.2c0-1.1,1-1.8,2.4-2c-1.3-0.7-2.3-1.8-2.3-3.6c0-3.4,3.2-4.3,5.3-4.3
			C213.5,73.6,216.3,73.8,218.6,73.8z M211.6,85.8c-1.2,0.1-2,0.8-2,1.9c0,1.1,1,1.9,2.4,1.9c1.5,0,2.5-0.8,2.5-2.1
			C214.6,86.4,213.6,86,211.6,85.8z M214.4,77.9c0-1.5-1.3-1.9-2.3-1.9c-1,0-2.3,0.4-2.3,1.9c0,1.6,1.2,2,2.3,2
			C213.1,79.9,214.4,79.5,214.4,77.9z"/>
		<path class="st0" d="M220,71.8l-0.3-2l6.6-1.8l0.4,2.5L220,71.8z M221.8,86.6V76.3l-1.5-0.3v-2.1h4.9v12.7H221.8z"/>
		<path class="st0" d="M236.2,86.6l-0.5-1.5c-0.6,0.9-1.9,1.8-3.7,1.8c-2.5,0-4.3-1.6-4.3-4.1c0-2.4,1.7-3.8,4.8-3.8h2.7v-0.7
			c0-1.6-0.9-2.2-2.2-2.2c-1.5,0-2.8,0.4-3.8,0.9l-0.9-2.4c1.3-0.5,3-1,5-1c3.6,0,5.2,1.7,5.2,4.9v8.1H236.2z M235.2,81h-2.1
			c-1.4,0-2.1,0.7-2.1,1.6c0,1.2,0.6,1.9,1.9,1.9c0.8,0,1.6-0.4,2.3-0.9V81z"/>
	</g>
</g>
</svg>
