<svg id="Capa_1" data-name="Capa 1" xmlns="http://www.w3.org/2000/svg" viewBox="0 0 106.5 105.2"><defs><style>.cls-1{fill:#fff;}.cls-2{fill:#e7b052;}</style></defs><circle class="cls-1" cx="53.25" cy="52.6" r="52.13"/><path class="cls-2" d="M86.84,37.45l-10.5-3.8a6.15,6.15,0,0,0,.1-1.3,10.9,10.9,0,1,0-21.8,0,14,14,0,0,0,.8,4.2l-2,.8-16-5.7h-.2c-.1,0-.2,0-.2-.1h-.4c-.1,0-.2,0-.2.1h-.2l-16.5,5.9a1.5,1.5,0,0,0-1,1.4v43.4a1.43,1.43,0,0,0,.6,1.2,1.08,1.08,0,0,0,.8.2.9.9,0,0,0,.5-.1l16-5.7,16,5.7h.2c.2,0,.2.1.4.1s.3,0,.4-.1h.2l16-5.7,16,5.7a.9.9,0,0,0,.5.1,1.88,1.88,0,0,0,.8-.2,1.43,1.43,0,0,0,.6-1.2V38.85A1.3,1.3,0,0,0,86.84,37.45Zm-21.4-13.2a8,8,0,0,1,8,8c0,4-5.1,12.9-8,17.6-3-4.7-8-13.6-8-17.6A8.09,8.09,0,0,1,65.44,24.25Zm-43.6,15.6L35.44,35v40.3l-13.5,4.9V39.85Zm16.5-4.8L51.94,40v40.3l-13.5-4.9C38.34,75.35,38.34,35.05,38.34,35.05Zm16.5,45.1V39.85l1.6-.5a101,101,0,0,0,7.9,14.2,1.69,1.69,0,0,0,1.2.7,1.31,1.31,0,0,0,1.2-.7c.2-.3.8-1.3,1.7-2.6v24.5Zm30.1,0-13.5-4.9V45.75a49.07,49.07,0,0,0,4.3-9.4l9.3,3.4v40.4Z"/><path class="cls-2" d="M72,32.55a6.4,6.4,0,1,0-6.4,6.6A6.55,6.55,0,0,0,72,32.55Zm-9.9,0a3.5,3.5,0,1,1,3.5,3.6A3.44,3.44,0,0,1,62.14,32.55Z"/></svg>