<?xml version="1.0" encoding="utf-8"?>
<!-- Generator: Adobe Illustrator 24.2.3, SVG Export Plug-In . SVG Version: 6.00 Build 0)  -->
<svg version="1.1" id="Capa_1" xmlns="http://www.w3.org/2000/svg" xmlns:xlink="http://www.w3.org/1999/xlink" x="0px" y="0px"
	 viewBox="0 0 426 417" style="enable-background:new 0 0 426 417;" xml:space="preserve">
<style type="text/css">
	.st0{enable-background:new    ;}
	.st1{fill:#4F4D4D;}
	.st2{clip-path:url(#SVGID_2_);}
	.st3{fill:none;stroke:#D9B059;stroke-width:10;stroke-miterlimit:10;}
	.st4{clip-path:url(#SVGID_4_);}
	.st5{fill:none;stroke:#194A66;stroke-width:10;stroke-miterlimit:10;}
	.st6{clip-path:url(#SVGID_6_);}
	.st7{fill:none;stroke:#C97D52;stroke-width:10;stroke-miterlimit:10;}
	.st8{clip-path:url(#SVGID_8_);}
	.st9{fill:none;stroke:#61802B;stroke-width:10;stroke-miterlimit:10;}
	.st10{clip-path:url(#SVGID_10_);}
	.st11{clip-path:url(#SVGID_12_);}
	.st12{clip-path:url(#SVGID_14_);}
	.st13{clip-path:url(#SVGID_16_);}
	.st14{clip-path:url(#SVGID_18_);}
	.st15{clip-path:url(#SVGID_20_);}
	.st16{clip-path:url(#SVGID_22_);}
	.st17{clip-path:url(#SVGID_24_);}
	.st18{clip-path:url(#SVGID_26_);}
	.st19{clip-path:url(#SVGID_28_);}
	.st20{clip-path:url(#SVGID_30_);}
	.st21{clip-path:url(#SVGID_32_);}
	.st22{fill:#1A4A66;}
	.st23{fill:#61802B;}
	.st24{fill:#C97D52;}
	.st25{fill:#D9B059;}
</style>
<g class="st0">
	<path class="st1" d="M158.8,171.6c5.3,0,8.6,2.6,8.6,7.7c0,6.9-4.9,12-12.7,12h-3v0.1l-0.9,9.2h-5.9l1.4-8.6l2.2-20.3L158.8,171.6z
		 M156.6,186.9c2.8-0.7,4.6-3.1,4.6-6.6c0-2.7-1.3-4.1-4.4-4.3l-3,0.1l-1.5,10.6L156.6,186.9z"/>
	<path class="st1" d="M178.4,179.3c3.6,0.7,5.8,3,5.8,7.4c0,8.5-4.1,13.8-11.1,14.3l-0.5,0c-3.7-0.8-5.8-3.2-5.8-7.8
		c0-8.1,4.3-13.5,11.1-13.9L178.4,179.3z M172,193.3c0,2.6,0.5,3.6,2.1,3.6c3.5,0,4.8-3.6,4.8-9.8c0-2.6-0.5-3.5-2.1-3.5
		C173.3,183.6,172,187.1,172,193.3z"/>
	<path class="st1" d="M200.4,179.4c3.3,1.2,4.6,3.6,4.6,7.3c0,5.9-3.5,12.6-10.6,14.3h-0.3l-4.2-0.9l-3.1-0.5l3.6-25.6l0.1-4.7
		l5.5-0.4l-2.5,17.9h0.6c1.6-2.7,3.4-5.3,5.4-7.4H200.4z M195.4,196.8c2.9,0,4.6-3.6,4.6-8.1c0-3-0.6-3.9-1.1-3.9
		c-1,0-3.5,3.2-6.3,9.8l-0.1,1.5L195.4,196.8z"/>
	<path class="st1" d="M221.8,186.7l-0.5,0.2l-0.9-0.1c-2.5,0.3-4.3,1.8-7.1,7.4l-0.2,1.4l-0.2,4.8l-5.5,0.4l2.2-16.2l0.2-4.7
		l5.5-0.4l-1.1,7.8h0.5c1.8-3.1,3.7-5.6,6.7-7.8l1.2,0.1L221.8,186.7z"/>
	<path class="st1" d="M237.9,195.5c-2.2,2.9-4.8,4.8-7.6,5.5h-0.6c-4.9-0.5-6.9-3.3-6.9-7.9c0-7.9,4.3-13.5,11.1-13.8l0.5,0
		c2.8,0.5,4.5,2,4.5,4.8c0,3.5-3.2,6.2-11,8.6c0.2,2.8,1,3.9,2.6,3.9c1.8,0,3.6-1.4,4.8-3.6l0.7,0.1L237.9,195.5z M228.1,189.2
		c4-1.2,6-2.7,6-4.7c0-1-0.5-1.5-1.7-1.5C230.1,183,228.5,185.2,228.1,189.2z"/>
	<path class="st1" d="M246.6,195.7l1.3-0.3c0.7,0,2.4,0.6,3.1,0.6c2.1,0,3-0.9,3.3-4.3l0.7-0.3l2.4,0.9c-0.2,6.3-2.7,8.8-6.4,8.8
		c-2.7,0-4.9-1.5-7-1.5c-1,0-1.7,0.3-2.8,1.4h-0.6l-1.7-1.5l11.6-15.1l-4.7,0.1l-3.4,0.5l-0.5-0.4l1-4.9l0.5-0.4l3.7,0.3l8.1,0.2
		l1.4-0.8l1.6,1.6L246.6,195.7z"/>
	<path class="st1" d="M276,195.6l-0.2,4.8l-5.5,0.4l1-7.1h-0.6c-1.5,2.7-3.3,5.2-5.3,7.3h-0.8c-3.4-1.3-4.6-3.7-4.6-7.3
		c0-5.8,3.4-12.5,10.7-14.3h0.3l3.4,0.9l3.4-1.1l0.5,0.3L276,195.6z M272.4,185.4l0.1-0.8v-0.1l-2.9-0.9c-3,0-4.6,3.4-4.6,8.1
		c0,2.9,0.5,3.8,1.1,3.8C267.1,195.6,269.6,192.3,272.4,185.4z"/>
</g>
<g class="st0">
	<path class="st1" d="M132.2,226.6l4.8,0l4.6-0.1l0.3,0.5l-1,4.5l-5-0.1l-4.5,0l-0.5,3.1l-0.4,4.5l5,0l6.9-0.2l0.2,0.5l-0.9,4.5
		h-17.7l1.4-8.6l2.2-20.3h17.8l0.3,0.5l-1,4.5l-6.7-0.2l-5,0L132.2,226.6z"/>
	<path class="st1" d="M159.7,222.5c2.6,0.5,4.7,2.1,4.7,4.4l0,0.6l-1.8,11.1l-0.2,4.9l-5.7,0.4l2.2-13.9l0-0.5
		c0-0.7-0.2-1.1-0.8-1.1c-1.3,0-3.8,2.9-7,9.1l-0.1,1.1l-0.2,4.8l-5.6,0.4l2.3-16.2l0.2-4.7l5.4-0.4l-1.1,8.1h0.5
		c2.3-3.7,4.3-6.2,6.5-8.1L159.7,222.5z"/>
	<path class="st1" d="M182.3,238.5c-2.2,2.9-4.8,4.8-7.6,5.5h-0.6c-4.9-0.5-6.9-3.3-6.9-7.9c0-7.9,4.3-13.5,11.1-13.8l0.5,0
		c2.8,0.5,4.5,2,4.5,4.8c0,3.5-3.1,6.2-11,8.6c0.2,2.8,1,3.9,2.6,3.9c1.8,0,3.6-1.4,4.8-3.6l0.7,0.1L182.3,238.5z M172.5,232.2
		c4-1.2,6-2.7,6-4.7c0-1-0.5-1.5-1.7-1.5C174.5,226,172.9,228.2,172.5,232.2z"/>
	<path class="st1" d="M199.9,229.7l-0.5,0.2l-0.9-0.1c-2.5,0.3-4.3,1.8-7.1,7.4l-0.2,1.4l-0.2,4.8l-5.5,0.4l2.2-16.2l0.2-4.7
		l5.5-0.4l-1.1,7.8h0.5c1.8-3.1,3.7-5.6,6.7-7.8l1.2,0.1L199.9,229.7z"/>
	<path class="st1" d="M217.2,238.3l-0.3,3.4c-0.9,6.9-5.7,10.8-11.2,10.8c-4.7,0-7.4-2.7-8-6.9l0.2-0.4l6.1-3.2l0-0.5
		c-1.6-1.3-2.2-3.1-2.2-5.6c0-5.9,3.4-11.9,10.2-13.5h0.2l3.4,1l3.2-1.1l0.5,0.3L217.2,238.3z M211.8,243.2l1-7.3h-0.5
		c-1.5,2.7-3.3,5-5.4,6.7l-2.9,2.2c-0.4,0.4-0.5,0.6-0.5,1c0,1.3,1.2,2.6,3.4,2.6C209.3,248.5,211.3,246.8,211.8,243.2z
		 M211.1,226.4c-3,0-4.5,3.2-4.5,7.6c0,2.9,0.7,3.9,1.1,3.9c0.9,0,3.3-3.2,6.1-9.3l0.1-1v-0.2L211.1,226.4z"/>
	<path class="st1" d="M237.1,238.5c-2.2,2.9-4.9,4.8-7.7,5.5h-0.6c-4.9-0.5-6.9-3.3-6.9-7.9c0-7.9,4.3-13.5,11.1-13.8l0.5,0
		c2.8,0.5,4.6,2,4.6,4.8c0,3.5-3.2,6.2-11,8.6c0.2,2.8,1,3.9,2.6,3.9c1.8,0,3.6-1.4,4.8-3.6l0.7,0.1L237.1,238.5z M227,217.9
		c2.9-2.2,5.4-4.4,8.1-6.8l0.6,0l2.1,3.1l-0.1,0.5c-3.1,2-5.8,3.7-8.7,5.4l-0.5,0L227,217.9z M227.2,232.2c4-1.2,6-2.7,6-4.7
		c0-1-0.5-1.5-1.7-1.5C229.2,226,227.6,228.2,227.2,232.2z"/>
	<path class="st1" d="M247.1,237.9c0,0.6,0.3,0.9,0.9,0.9c0.8,0,1.8-0.8,2.9-2.4l0.8,0l1.6,2c-1.8,2.4-3.6,4.1-5.6,5.4H247
		c-3.2-0.4-5-1.6-5-4.5l0-0.9l1.8-11l0.1-1H241l-0.3-0.4l0.4-3h3.1l0.5-4.5l5.3-1.7l0.5,0.3l-0.9,5.9h5l0.4,0.5l-0.4,2.9h-5.5
		l-1.7,10.8L247.1,237.9z"/>
	<path class="st1" d="M261.2,243.4l-5.5,0.4l2.2-16.2l0.2-4.7l5.4-0.4l-2.2,16.1L261.2,243.4z M264.7,215.4c0,2-1.2,3.2-3.1,3.2
		c-1.9,0-3-1.1-3-3c0-2,1.2-3.2,3.2-3.2C263.7,212.4,264.7,213.6,264.7,215.4z"/>
	<path class="st1" d="M281.1,224l-1.6,4.2l-1.2,0.1c-1.1-1.3-1.8-1.7-2.8-1.7c-2.7,0-4.3,3-4.3,8.3c0,3.2,0.6,4.4,2.1,4.4
		c1.1,0,2.2-0.7,3.7-3.4l0.7,0l1.8,2.2c-1.9,3.3-3.8,4.9-6.8,5.8H272c-4.3-0.7-6-2.9-6-8c0-7.2,3.5-13.6,11.5-13.6l3.4,1L281.1,224z
		"/>
	<path class="st1" d="M297.8,238.6l-0.2,4.8l-5.5,0.4l1-7.1h-0.6c-1.5,2.7-3.3,5.2-5.3,7.3h-0.8c-3.4-1.3-4.6-3.7-4.6-7.3
		c0-5.8,3.4-12.5,10.7-14.3h0.3l3.4,0.9l3.4-1.1l0.5,0.3L297.8,238.6z M294.2,228.4l0.1-0.8v-0.1l-2.9-0.9c-3,0-4.6,3.4-4.6,8.1
		c0,2.9,0.5,3.8,1.1,3.8C288.9,238.6,291.4,235.3,294.2,228.4z"/>
</g>
<g>
	<defs>
		<rect id="SVGID_1_" x="-3.9" y="10.9" width="215" height="198"/>
	</defs>
	<clipPath id="SVGID_2_">
		<use xlink:href="#SVGID_1_"  style="overflow:visible;"/>
	</clipPath>
	<g class="st2">
		<circle class="st3" cx="212.1" cy="208.9" r="186.2"/>
	</g>
</g>
<g>
	<defs>
		<rect id="SVGID_3_" x="211.1" y="10.9" width="215" height="198"/>
	</defs>
	<clipPath id="SVGID_4_">
		<use xlink:href="#SVGID_3_"  style="overflow:visible;"/>
	</clipPath>
	<g class="st4">
		<circle class="st5" cx="212.1" cy="208.9" r="186.2"/>
	</g>
</g>
<g>
	<defs>
		<rect id="SVGID_5_" x="-3.9" y="208.9" width="215" height="198"/>
	</defs>
	<clipPath id="SVGID_6_">
		<use xlink:href="#SVGID_5_"  style="overflow:visible;"/>
	</clipPath>
	<g class="st6">
		<circle class="st7" cx="212.1" cy="208.9" r="186.2"/>
	</g>
</g>
<g>
	<defs>
		<rect id="SVGID_7_" x="211.1" y="208.9" width="215" height="198"/>
	</defs>
	<clipPath id="SVGID_8_">
		<use xlink:href="#SVGID_7_"  style="overflow:visible;"/>
	</clipPath>
	<g class="st8">
		<circle class="st9" cx="212.1" cy="208.9" r="186.2"/>
	</g>
</g>
<g>
	<defs>
		<rect id="SVGID_9_" x="29.9" y="208.9" width="181.1" height="196.7"/>
	</defs>
	<clipPath id="SVGID_10_">
		<use xlink:href="#SVGID_9_"  style="overflow:visible;"/>
	</clipPath>
	<g class="st10">
		<circle class="st3" cx="211.1" cy="208" r="170.4"/>
	</g>
</g>
<g>
	<defs>
		<rect id="SVGID_11_" x="29.9" y="12.2" width="181.1" height="196.7"/>
	</defs>
	<clipPath id="SVGID_12_">
		<use xlink:href="#SVGID_11_"  style="overflow:visible;"/>
	</clipPath>
	<g class="st11">
		<circle class="st5" cx="211.1" cy="208" r="170.4"/>
	</g>
</g>
<g>
	<defs>
		<rect id="SVGID_13_" x="211.1" y="208.9" width="181.1" height="196.7"/>
	</defs>
	<clipPath id="SVGID_14_">
		<use xlink:href="#SVGID_13_"  style="overflow:visible;"/>
	</clipPath>
	<g class="st12">
		<circle class="st7" cx="211.1" cy="208" r="170.4"/>
	</g>
</g>
<g>
	<defs>
		<rect id="SVGID_15_" x="211.1" y="12.2" width="181.1" height="196.7"/>
	</defs>
	<clipPath id="SVGID_16_">
		<use xlink:href="#SVGID_15_"  style="overflow:visible;"/>
	</clipPath>
	<g class="st13">
		<circle class="st9" cx="211.1" cy="208" r="170.4"/>
	</g>
</g>
<g>
	<defs>
		<rect id="SVGID_17_" x="211.1" y="208.9" width="177.3" height="163.2"/>
	</defs>
	<clipPath id="SVGID_18_">
		<use xlink:href="#SVGID_17_"  style="overflow:visible;"/>
	</clipPath>
	<g class="st14">
		<circle class="st3" cx="210.2" cy="208.9" r="153.6"/>
	</g>
</g>
<g>
	<defs>
		<rect id="SVGID_19_" x="33.8" y="208.9" width="177.3" height="163.2"/>
	</defs>
	<clipPath id="SVGID_20_">
		<use xlink:href="#SVGID_19_"  style="overflow:visible;"/>
	</clipPath>
	<g class="st15">
		<circle class="st5" cx="210.2" cy="208.9" r="153.6"/>
	</g>
</g>
<g>
	<defs>
		<rect id="SVGID_21_" x="211.1" y="45.6" width="177.3" height="163.2"/>
	</defs>
	<clipPath id="SVGID_22_">
		<use xlink:href="#SVGID_21_"  style="overflow:visible;"/>
	</clipPath>
	<g class="st16">
		<circle class="st7" cx="210.2" cy="208.9" r="153.6"/>
	</g>
</g>
<g>
	<defs>
		<rect id="SVGID_23_" x="33.8" y="45.6" width="177.3" height="163.2"/>
	</defs>
	<clipPath id="SVGID_24_">
		<use xlink:href="#SVGID_23_"  style="overflow:visible;"/>
	</clipPath>
	<g class="st17">
		<circle class="st9" cx="210.2" cy="208.9" r="153.6"/>
	</g>
</g>
<g>
	<defs>
		<rect id="SVGID_25_" x="211.1" y="49.9" width="146.4" height="159"/>
	</defs>
	<clipPath id="SVGID_26_">
		<use xlink:href="#SVGID_25_"  style="overflow:visible;"/>
	</clipPath>
	<g class="st18">
		<circle class="st3" cx="211.1" cy="209.6" r="137.8"/>
	</g>
</g>
<g>
	<defs>
		<rect id="SVGID_27_" x="211.1" y="208.9" width="146.4" height="159"/>
	</defs>
	<clipPath id="SVGID_28_">
		<use xlink:href="#SVGID_27_"  style="overflow:visible;"/>
	</clipPath>
	<g class="st19">
		<circle class="st5" cx="211.1" cy="209.6" r="137.8"/>
	</g>
</g>
<g>
	<defs>
		<rect id="SVGID_29_" x="64.6" y="49.8" width="146.4" height="159"/>
	</defs>
	<clipPath id="SVGID_30_">
		<use xlink:href="#SVGID_29_"  style="overflow:visible;"/>
	</clipPath>
	<g class="st20">
		<circle class="st7" cx="211.1" cy="209.6" r="137.8"/>
	</g>
</g>
<g>
	<defs>
		<rect id="SVGID_31_" x="64.6" y="208.9" width="146.4" height="159"/>
	</defs>
	<clipPath id="SVGID_32_">
		<use xlink:href="#SVGID_31_"  style="overflow:visible;"/>
	</clipPath>
	<g class="st21">
		<circle class="st9" cx="211.1" cy="209.6" r="137.8"/>
	</g>
</g>
<g class="st0">
	<path class="st22" d="M283.3,21.2l0.6-2.1l0.4-1.6l-2.9-1.2l-2.6-0.9l-1.1,1.1l-1.5,1.9l-3.2-1.2l13-13.1l3.8,1.4l-3.1,16.7
		L283.3,21.2z M286.3,7.9l-0.2-0.1l-5.3,5.5l2,0.8l2.1,0.7L286.3,7.9z"/>
</g>
<g class="st0">
	<path class="st22" d="M300.1,15.7l-1.8,2.1l-0.5,0c-0.4-1.1-1-1.9-1.7-2.2c-0.7-0.3-1.4,0-1.6,0.6c-0.6,1.5,2.9,3.4,1.7,6.3
		c-1,2.2-3.7,2.9-6.4,1.7c-0.9-0.5-1.7-1.2-2.5-2l1.8-2.2l0.4,0c0.3,1.3,1.1,2.3,1.9,2.7c0.8,0.3,1.5,0,1.7-0.6
		c0.7-1.5-2.9-3.6-1.7-6.3c1-2.3,3.9-2.8,6.4-1.7C298.7,14.5,299.4,15.1,300.1,15.7z"/>
</g>
<g class="st0">
	<path class="st22" d="M305.1,27.9c-1.9,0.9-3.7,1.2-5.4,0.9l-0.3-0.2c-2.4-1.5-2.7-3.5-1.5-5.9c2-4.1,5.7-5.9,9.3-4.3l0.3,0.2
		c1.3,1,1.8,2.2,1.1,3.7c-0.9,1.8-3.2,2.4-7.9,1.6c-0.6,1.5-0.5,2.3,0.4,2.7c0.9,0.5,2.2,0.2,3.4-0.6l0.3,0.2L305.1,27.9z
		 M301.6,22.1c2.4,0.4,3.8,0.2,4.3-0.9c0.3-0.5,0.1-0.9-0.5-1.2C304.3,19.4,302.9,20.2,301.6,22.1z"/>
</g>
<g class="st0">
	<path class="st22" d="M311.5,37.2l-1.5,2.4l-2.9-1.4l5.6-7.3l-0.3-0.2c-1.6,0.9-3.2,1.7-4.8,2.2l-0.4-0.2c-1.4-1.6-1.2-3.2-0.2-5
		c1.7-2.9,5.3-5.3,9.5-4.1l0.1,0.1l1.5,1.5l2,0.4l0.1,0.3L311.5,37.2z M315.7,27.2l0.3-0.4l0,0l-1.2-1.3c-1.5-0.9-3.4,0.3-4.8,2.7
		c-0.8,1.4-0.8,2.1-0.5,2.2C310,30.7,312.3,29.8,315.7,27.2z"/>
</g>
<g class="st0">
	<path class="st22" d="M325.2,40.1l-1.6,2.3l-2.8-1.6l3.1-3.5l-0.2-0.1c-2.3,1-3.9,1.6-5.6,1.8l-0.3-0.2c-1.2-1.1-1.7-2.5-0.9-3.6
		l0.3-0.3l4.3-4.8l1.7-2.3l2.8,1.6l-5.3,5.9l-0.3,0.4c-0.2,0.4-0.2,0.6,0,0.8c0.7,0.4,2.7-0.2,6.1-2.2l0.6-0.6l1.6-2.2l2.8,1.5
		L325.2,40.1z"/>
</g>
<g class="st0">
	<path class="st22" d="M328.5,45.9l-2.7-1.7l6.6-6.8l1.7-2.1l2.7,1.7l-6.5,6.8L328.5,45.9z M339.7,34c-0.7,0.9-1.7,1.1-2.6,0.4
		c-0.9-0.6-1-1.5-0.4-2.4c0.7-0.9,1.7-1.1,2.6-0.4C340.2,32.2,340.3,33.1,339.7,34z"/>
</g>
<g class="st0">
	<path class="st22" d="M344.5,42.9c1.1,1.7,0.8,3.3-0.5,5c-2.1,2.7-6.1,4.5-9.9,2.7l-0.1-0.1l-1.6-1.9l-1.2-1.3l10.8-10.3l1.7-2.1
		l2.7,1.8l-7.5,7.2L339,44c1.7-0.7,3.4-1.2,5.1-1.4L344.5,42.9z M336,49c1.3,1,3.4,0,5-2c1.1-1.4,1.1-2,0.9-2.2
		c-0.4-0.4-2.8,0.2-6.4,2.1l-0.6,0.6L336,49z"/>
</g>
<g class="st0">
	<path class="st22" d="M342.4,57l-2.6-1.9l7.1-6.2l1.9-2l2.5,1.9l-7,6.2L342.4,57z M354.5,46.1c-0.8,0.9-1.8,1-2.6,0.2
		c-0.8-0.7-0.9-1.6-0.2-2.4c0.8-0.9,1.8-1,2.6-0.2C355.2,44.4,355.2,45.3,354.5,46.1z"/>
</g>
<g class="st0">
	<path class="st22" d="M346.9,61l-2.5-2l12.1-9.9l1.9-2l2.5,2l-12,9.9L346.9,61z"/>
</g>
<g class="st0">
	<path class="st22" d="M351.3,65.2l-2.4-2.1l7.5-5.8l2-1.9l2.4,2l-7.4,5.8L351.3,65.2z M364,55.1c-0.8,0.8-1.8,0.8-2.6,0.1
		c-0.8-0.8-0.8-1.7,0-2.4c0.8-0.8,1.8-0.8,2.6,0C364.8,53.4,364.8,54.3,364,55.1z"/>
</g>
<g class="st0">
	<path class="st22" d="M361.5,71.8l-2.1,1.8l-2.4-2.2l3.4-2.4l-0.2-0.2c-1.8,0.4-3.6,0.6-5.2,0.6l-0.3-0.4c-0.8-1.9-0.3-3.4,1.3-4.9
		c2.4-2.3,6.6-3.5,10.3-1.1l0.1,0.1l0.6,1.2l2.9-2l2-1.8l2.4,2.2L361.5,71.8z M364.2,66.5l0.6-0.4l-0.7-1.6
		c-1.2-1.3-3.3-0.7-5.3,1.2c-1.2,1.2-1.4,1.7-1.1,2C357.9,68,360.3,67.9,364.2,66.5z"/>
</g>
<g class="st0">
	<path class="st22" d="M369.2,80.9l-2.2,1.7l-2.2-2.3l3.5-2.2l-0.2-0.3c-1.8,0.3-3.5,0.5-5.2,0.4l-0.3-0.4c-0.7-2-0.1-3.4,1.5-4.8
		c2.6-2.1,6.8-3.1,10.3-0.5l0.1,0.1l0.8,1.9l1.7,1.1l0,0.3L369.2,80.9z M372.4,75.6l0.4-0.2l0,0l-0.7-1.7c-1.1-1.3-3.2-0.8-5.3,0.9
		c-1.3,1.1-1.5,1.7-1.3,1.9C365.9,77,368.3,76.9,372.4,75.6z"/>
</g>
<g class="st0">
	<path class="st22" d="M376.3,90.4L374,92l-2.1-2.4l3.6-2l-0.2-0.2c-1.8,0.2-3.6,0.2-5.3,0l-0.3-0.4c-0.6-2,0.1-3.4,1.8-4.6
		c2.7-2,7-2.7,10.3,0.1l0.1,0.1l0.5,1.3l3.1-1.7l2.2-1.5l2.1,2.4L376.3,90.4z M379.6,85.4l0.6-0.4l-0.5-1.7c-1-1.4-3.2-1-5.4,0.6
		c-1.4,1-1.5,1.6-1.3,1.8C373.3,86.2,375.6,86.3,379.6,85.4z"/>
</g>
<g class="st0">
	<path class="st23" d="M407.7,267.5l-5-1.9l0.9-3.3l4.6,2.1l1.9,0.7l1-3.6l0.8-3.2l-1.5-0.7l-5-1.9l0.9-3.4l4.6,2.1l11,4.3l-0.9,3.4
		l-6.4-2.7l-1,3.3l-0.8,3.3l6.5,2.5l-0.9,3.4L407.7,267.5z"/>
</g>
<g class="st0">
	<path class="st23" d="M401.5,278.2l-2.6-1l0.8-3.1l3.7,1.9l0.1-0.3c-1.2-1.4-2.2-2.8-3-4.3l0.2-0.4c1.3-1.6,2.9-1.8,4.9-1.2
		c3.2,1.1,6.2,4.2,5.8,8.5l-0.1,0.1l-1.2,1.7l-0.1,2.1l-0.3,0.2L401.5,278.2z M407.7,278.2l0.4,0.2l0,0l1.1-1.4
		c0.6-1.6-1-3.2-3.6-4.1c-1.6-0.5-2.2-0.4-2.3-0.1C403.2,273.3,404.5,275.3,407.7,278.2z"/>
</g>
<g class="st0">
	<path class="st23" d="M406.2,291.8c-1.4,1.5-3,1.7-5,0.9c-3.2-1.3-6-4.6-5.3-8.8l0.1-0.1l1.4-2.1l1-1.5l13,7.5l2.5,1.1l-1,3.1
		l-9.1-5.3l-0.1,0.3c1.1,1.4,2.1,3,2.8,4.5L406.2,291.8z M398,285.4c-0.6,1.6,0.9,3.2,3.4,4.3c1.6,0.7,2.2,0.5,2.3,0.3
		c0.2-0.5-1-2.6-3.9-5.6l-0.8-0.4L398,285.4z"/>
</g>
<g class="st0">
	<path class="st23" d="M392.1,293.7l1.1-3l7.9,5.1l2.4,1.2l-1.1,3l-7.9-5L392.1,293.7z M405.9,302.3c-1-0.5-1.4-1.4-0.9-2.4
		c0.5-1,1.3-1.3,2.3-0.8c1,0.5,1.4,1.4,0.9,2.5C407.7,302.5,406.9,302.8,405.9,302.3z"/>
</g>
<g class="st0">
	<path class="st23" d="M392,301.2c-0.3-0.2-0.6-0.1-0.7,0.2c-0.2,0.4,0,1.1,0.5,2.1l-0.2,0.4l-1.5,0.3c-0.8-1.5-1.2-2.9-1.3-4.3
		l0.2-0.3c1-1.6,2.1-2.2,3.6-1.4l0.5,0.3l5.2,3.8l0.5,0.3l0.7-1.5l0.3-0.1l1.4,1l-0.8,1.6l2.2,1.4L402,308l-0.3,0.1l-2.8-2l-1.3,2.6
		l-0.3,0.1l-1.4-0.9l1.4-2.8l-5.1-3.7L392,301.2z"/>
</g>
<g class="st0">
	<path class="st23" d="M384.9,313.2l-2.4-1.5l1.4-2.9l3.3,2.6l0.2-0.3c-0.9-1.6-1.7-3.2-2.2-4.8l0.2-0.4c1.6-1.4,3.2-1.3,5-0.2
		c2.9,1.7,5.3,5.3,4.1,9.5l-0.1,0.1l-1.5,1.4l-0.4,2l-0.3,0.2L384.9,313.2z M391,314.4l0.4,0.3l0,0l1.3-1.2c0.9-1.5-0.4-3.3-2.7-4.7
		c-1.5-0.8-2.1-0.8-2.2-0.5C387.4,308.8,388.4,311,391,314.4z"/>
</g>
<g class="st0">
	<path class="st23" d="M386.9,327.4c-1.6,1.2-3.2,1.1-5-0.1c-2.8-1.9-5-5.7-3.5-9.6l0.1-0.1l1.8-1.8l1.2-1.3l11.2,9.8l2.2,1.5
		l-1.6,2.8l-7.8-6.9l-0.2,0.3c0.8,1.6,1.5,3.3,1.9,4.9L386.9,327.4z M380,319.5c-0.9,1.4,0.3,3.3,2.5,4.8c1.5,1,2.1,1,2.2,0.7
		c0.3-0.5-0.5-2.7-2.7-6.2l-0.7-0.5L380,319.5z"/>
</g>
<g class="st0">
	<path class="st23" d="M372.6,326.6l1.7-2.7l6.8,6.5l2.1,1.7l-1.7,2.7l-6.8-6.4L372.6,326.6z M384.5,337.7c-0.9-0.7-1.1-1.7-0.5-2.6
		c0.6-0.9,1.5-1,2.4-0.4c0.9,0.7,1.1,1.7,0.4,2.6C386.3,338.2,385.4,338.3,384.5,337.7z"/>
</g>
<g class="st0">
	<path class="st23" d="M369,331.4l1.8-2.7l10.9,11.1l2.1,1.7l-1.8,2.7l-10.9-11.1L369,331.4z"/>
</g>
<g class="st0">
	<path class="st23" d="M365.2,336.1l1.8-2.6l6.4,6.9l2,1.8l-1.8,2.6l-6.4-6.8L365.2,336.1z M376.3,347.9c-0.9-0.7-1-1.7-0.3-2.6
		c0.7-0.8,1.6-0.9,2.4-0.2c0.9,0.7,1,1.7,0.3,2.6C378.1,348.5,377.2,348.6,376.3,347.9z"/>
</g>
<g class="st0">
	<path class="st23" d="M359.5,346.9l-2-1.9l2-2.5l2.7,3.2l0.2-0.2c-0.6-1.7-0.9-3.5-1.1-5.2l0.3-0.4c1.9-1,3.4-0.5,4.9,0.9
		c2.5,2.2,4,6.3,1.9,10.1l-0.1,0.1l-1.1,0.7l2.2,2.7l1.9,1.9l-2,2.5L359.5,346.9z M365,349.1l0.5,0.5l1.5-0.9
		c1.2-1.3,0.4-3.4-1.7-5.2c-1.2-1.1-1.8-1.2-2.1-1C362.9,343,363.3,345.4,365,349.1z"/>
</g>
<g class="st0">
	<path class="st23" d="M351.1,355.3l-1.9-2l2.1-2.4l2.5,3.3l0.2-0.2c-0.5-1.7-0.8-3.5-0.8-5.2l0.3-0.3c1.9-0.9,3.4-0.3,4.9,1.1
		c2.3,2.4,3.7,6.5,1.4,10.2l-0.1,0.1l-1.8,1l-1,1.8l-0.3,0.1L351.1,355.3z M356.7,358.1l0.3,0.4l0,0l1.6-0.8
		c1.2-1.2,0.5-3.3-1.4-5.2c-1.2-1.2-1.8-1.3-2-1.1C354.8,351.7,355.1,354.1,356.7,358.1z"/>
</g>
<g class="st0">
	<path class="st23" d="M342.3,363.4l-1.8-2.2l2.2-2.3l2.3,3.5l0.2-0.2c-0.4-1.8-0.5-3.6-0.5-5.3l0.4-0.3c2-0.8,3.4-0.2,4.8,1.4
		c2.2,2.5,3.3,6.7,0.8,10.3l-0.1,0.1l-1.2,0.6l1.9,2.9l1.7,2.1l-2.2,2.3L342.3,363.4z M347.6,366.2l0.4,0.6l1.6-0.7
		c1.3-1.2,0.8-3.3-1.1-5.4c-1.1-1.3-1.7-1.4-2-1.2C346.2,359.9,346.3,362.3,347.6,366.2z"/>
</g>
<g class="st0">
	<path class="st24" d="M128.4,409.1l1.9-2.4l0.3,0c0.6,1,1.6,1.8,2.8,2.3c3,1.1,5.3-0.6,6.9-4.8c1.1-2.9,0.4-4.8-1.7-5.6
		c-1.2-0.4-2.7-0.5-4-0.3l-0.2-0.3l1.6-2.5c1.5-0.1,2.7,0,4.1,0.5c4,1.5,5.4,4.7,3.9,8.8c-2.2,6-6.5,8.5-11.8,6.5
		C130.6,411,129.3,410.1,128.4,409.1z"/>
</g>
<g class="st0">
	<path class="st24" d="M124.8,393.3l1.2-2.5l3,1.1l-2.2,3.6l0.3,0.1c1.4-1.1,3-2,4.5-2.7l0.4,0.2c1.5,1.5,1.6,3.1,0.8,5
		c-1.3,3.1-4.7,5.9-9,5.1l-0.1-0.1l-1.6-1.3l-2.1-0.2l-0.2-0.3L124.8,393.3z M124.3,399.5l-0.2,0.4l0,0l1.3,1.2
		c1.6,0.7,3.2-0.7,4.3-3.2c0.7-1.6,0.6-2.2,0.3-2.3C129.5,395.3,127.4,396.5,124.3,399.5z"/>
</g>
<g class="st0">
	<path class="st24" d="M120.5,388.1l3,1.2l-8.7,13l-1.2,2.4l-3-1.2l8.7-12.9L120.5,388.1z"/>
</g>
<g class="st0">
	<path class="st24" d="M105.8,398.5c0.5-1,1.5-1.3,2.5-0.8c1,0.5,1.2,1.4,0.7,2.3c-0.5,1-1.5,1.3-2.5,0.8
		C105.5,400.4,105.2,399.5,105.8,398.5z M115.2,385.3l2.9,1.3l-5.5,7.6l-1.4,2.3l-2.9-1.3l5.5-7.6L115.2,385.3z"/>
</g>
<g class="st0">
	<path class="st24" d="M103.5,381.8l1.5-2.3l2.9,1.4l-2.6,3.3l0.2,0.1c1.6-0.9,3.2-1.6,4.9-2.1l0.4,0.3c1.3,1.6,1.2,3.2,0.2,5
		c-1.7,2.9-5.4,5.2-9.6,3.9l-0.1-0.1l-0.9-1l-2.2,2.8l-1.4,2.3l-2.9-1.4L103.5,381.8z M102.4,387.8l-0.4,0.6l1.2,1.3
		c1.5,0.9,3.4-0.3,4.8-2.7c0.9-1.5,0.8-2.1,0.5-2.2C108,384.5,105.7,385.3,102.4,387.8z"/>
</g>
<g class="st0">
	<path class="st24" d="M93.5,375.3l1.6-2.3l2.8,1.6l-2.8,3.1l0.3,0.2c1.6-0.8,3.3-1.4,4.9-1.8l0.4,0.3c1.2,1.7,1,3.3-0.1,5
		c-1.9,2.8-5.7,4.9-9.7,3.4l-0.1-0.1l-1.3-1.6l-2-0.6l-0.1-0.3L93.5,375.3z M91.9,381.3l-0.3,0.3l0,0l1.1,1.4c1.4,1,3.3-0.1,4.8-2.4
		c0.9-1.4,1-2,0.7-2.2C97.8,378.2,95.5,378.9,91.9,381.3z"/>
</g>
<g class="st0">
	<path class="st24" d="M83.9,368.1l1.8-2.2l2.7,1.8l-3,3l0.2,0.2c1.7-0.7,3.4-1.2,5.1-1.5l0.4,0.3c1.1,1.8,0.8,3.4-0.4,5
		c-2,2.7-6,4.6-10,2.8l-0.1-0.1l-0.8-1.1l-2.5,2.5l-1.7,2.1l-2.7-1.8L83.9,368.1z M82.1,374l-0.5,0.5l1,1.5c1.4,1.1,3.4,0.1,5.1-2.1
		c1-1.4,1.1-2,0.8-2.2C88.1,371.3,85.8,371.9,82.1,374z"/>
</g>
<g class="st0">
	<path class="st25" d="M20.4,142.8l-2.1-0.5l-1.6-0.3l-1,3l-0.8,2.7l1.2,1l2,1.4l-1.1,3.2L3.4,140.9l1.3-3.9l16.8,2.5L20.4,142.8z
		 M7,140.3l-0.1,0.2l5.7,5.1l0.7-2l0.7-2.1L7,140.3z"/>
</g>
<g class="st0">
	<path class="st25" d="M14.7,125.8l1.9,1.7l-0.2,0.6c-0.9,0.3-1.3,0.6-1.5,1.2c-0.6,1.5,0.7,2.9,3.6,4.1c1.7,0.7,2.5,0.6,2.8-0.2
		c0.2-0.6,0.1-1.3-1-2.7l0.2-0.4l1.6-0.5c1.4,1.7,1.8,3.1,1.7,4.9l-0.2,0.4c-1.3,2.2-2.8,2.6-5.6,1.6c-3.9-1.5-6.6-4.8-4.9-9.1
		l1.3-1.6L14.7,125.8z"/>
</g>
<g class="st0">
	<path class="st25" d="M18.6,117.2l1.8,1.8l-0.2,0.6c-0.9,0.3-1.3,0.5-1.6,1.1c-0.6,1.4,0.6,3,3.4,4.2c1.7,0.8,2.5,0.7,2.8-0.1
		c0.3-0.6,0.2-1.3-0.9-2.8l0.2-0.4l1.6-0.4c1.3,1.8,1.7,3.2,1.5,5l-0.2,0.4c-1.4,2.1-2.9,2.5-5.6,1.3c-3.8-1.7-6.4-5.1-4.5-9.3
		l1.3-1.5L18.6,117.2z"/>
</g>
<g class="st0">
	<path class="st25" d="M30.4,112.4c0.9,1.9,1.2,3.7,0.9,5.4l-0.2,0.3c-1.5,2.4-3.5,2.7-5.9,1.5c-4.1-2.1-5.8-5.7-4.2-9.3l0.2-0.3
		c1-1.3,2.2-1.8,3.7-1.1c1.8,0.9,2.4,3.2,1.6,7.9c1.5,0.6,2.2,0.5,2.7-0.3c0.5-0.9,0.2-2.2-0.6-3.4l0.2-0.3L30.4,112.4z M24.6,115.8
		c0.5-2.4,0.2-3.8-0.9-4.3c-0.5-0.3-0.9-0.1-1.2,0.5C21.9,113.2,22.6,114.6,24.6,115.8z"/>
</g>
<g class="st0">
	<path class="st25" d="M27.7,99.6l1.9,2l-0.1,0.5c-1.2,0.3-2,0.8-2.3,1.4c-0.4,0.7-0.1,1.4,0.4,1.7c1.4,0.8,3.6-2.6,6.4-1
		c2.1,1.2,2.5,3.9,1.1,6.5c-0.6,0.9-1.3,1.6-2.2,2.3l-2-2l0.1-0.4c1.4-0.2,2.4-0.9,2.8-1.6c0.4-0.7,0.1-1.5-0.4-1.8
		c-1.4-0.8-3.8,2.6-6.4,1.1c-2.2-1.3-2.4-4.2-1-6.5C26.4,100.8,27,100.2,27.7,99.6z"/>
</g>
<g class="st0">
	<path class="st25" d="M31.3,92.5c1.5-1.5,3.3-1.9,5.4-0.5c4.1,2.6,5.5,6.3,3.5,9.8l-0.2,0.2c-1.5,1.5-3.3,1.9-5.6,0.4
		c-3.9-2.5-5.3-6.3-3.3-9.7L31.3,92.5z M36.1,99.9c1.3,0.8,1.9,0.9,2.4,0.1c1.1-1.7-0.3-3.4-3.3-5.4c-1.2-0.8-1.9-0.8-2.4-0.1
		C31.8,96.3,33.1,98,36.1,99.9z"/>
</g>
<g class="st0">
	<path class="st25" d="M39.8,75l-0.1,0.4c-0.9,0.4-1.5,0.9-1.8,1.3c-0.6,0.9-0.4,1.9,0.7,3l1.3,1.2l1.5-2.1l0.3,0l1.2,1.2l-1.7,2.3
		l3.3,3.2l3.9,3.8l2.2,1.7L49,93.8l-5.8-5.6l-3.6-3.5l-1,1.4l-0.3,0L37,85l1.1-1.5l-0.7-0.7c-2.6-2.5-3.1-5.1-1-7.8l1.9-1.9l0.3,0
		L39.8,75z"/>
</g>
<g class="st0">
	<path class="st25" d="M41.6,70.4l0.2,0.3c-0.2,2.1-0.4,4-0.7,5.9l-0.2,0.2l-1.5-0.1c0-2.1-0.1-4-0.2-6.1l0.2-0.3L41.6,70.4z
		 M52.7,83.5l-1.8,2.7l-6.6-6.8l-2.1-1.8L44,75l6.5,6.7L52.7,83.5z"/>
</g>
<g class="st0">
	<path class="st25" d="M51,67.8l1.5,2.3l-0.2,0.4c-1.2,0-2.1,0.4-2.6,1c-0.5,0.6-0.4,1.3,0.1,1.7c1.2,1,4.1-1.8,6.5,0.2
		c1.8,1.6,1.7,4.3-0.2,6.6c-0.8,0.7-1.6,1.3-2.6,1.8l-1.6-2.4l0.1-0.4c1.4,0.1,2.5-0.4,3.1-1.1c0.6-0.7,0.4-1.4-0.1-1.8
		c-1.2-1.1-4.3,1.8-6.5-0.2c-1.9-1.7-1.6-4.6,0.2-6.6C49.4,68.7,50.1,68.2,51,67.8z"/>
</g>
<g class="st0">
	<path class="st25" d="M51.7,59.9c0.8,0.8,0.9,1.8,0.2,2.6c-0.7,0.8-1.6,0.8-2.4,0.1c-0.8-0.8-0.9-1.8-0.1-2.6
		C50,59.2,50.9,59.2,51.7,59.9z M62.3,72.3l-2,2.5l-6.1-7.2l-1.9-1.9l1.9-2.5l6,7.1L62.3,72.3z"/>
</g>
<g class="st0">
	<path class="st25" d="M62.2,56.3l1.1,2.3l-0.4,0.5c-1-0.1-1.4,0-1.9,0.5c-1.1,1.1-0.5,3,1.7,5.1c1.3,1.3,2.1,1.5,2.7,0.9
		c0.4-0.4,0.6-1.2,0.1-2.9l0.3-0.3l1.6,0.2c0.6,2.1,0.5,3.5-0.4,5.2l-0.3,0.3c-2,1.5-3.6,1.3-5.7-0.7c-3-2.9-4.2-7-1-10.3l1.8-1
		L62.2,56.3z"/>
</g>
<g class="st0">
	<path class="st25" d="M67.1,50.4c1.8-1.1,3.6-1,5.4,0.9c3.3,3.6,3.6,7.5,0.9,10.4l-0.2,0.2c-1.9,1.1-3.7,0.9-5.5-1.1
		c-3.2-3.4-3.5-7.4-0.7-10.3L67.1,50.4z M69.8,58.8c1,1.1,1.6,1.3,2.3,0.7c1.5-1.4,0.6-3.4-1.8-6c-1-1.1-1.6-1.3-2.3-0.7
		C66.6,54.2,67.4,56.2,69.8,58.8z"/>
</g>
</svg>
