<?xml version="1.0" encoding="utf-8"?>
<!-- Generator: Adobe Illustrator 24.2.3, SVG Export Plug-In . SVG Version: 6.00 Build 0)  -->
<svg version="1.1" id="Capa_1" xmlns="http://www.w3.org/2000/svg" xmlns:xlink="http://www.w3.org/1999/xlink" x="0px" y="0px"
	 viewBox="0 0 258.3 143" style="enable-background:new 0 0 258.3 143;" xml:space="preserve">
<style type="text/css">
	.st0{clip-path:url(#SVGID_2_);}
	.st1{fill:#8CBF42;}
	.st2{fill:#D5DA2C;}
	.st3{fill:#009045;}
	.st4{fill:#EB5A26;}
	.st5{fill:#FFFFFF;}
</style>
<g>
	<defs>
		<rect id="SVGID_1_" x="41.1" y="-2.4" width="180.8" height="144.8"/>
	</defs>
	<clipPath id="SVGID_2_">
		<use xlink:href="#SVGID_1_"  style="overflow:visible;"/>
	</clipPath>
	<g class="st0">
		<path class="st1" d="M111.3,22.7c0.2-1.9,0.3-4,2.9-3.8c2.2,0.2,4,1.1,3.8,3.9c-0.2,2.2-0.6,4.5-3.2,4.5
			C111.9,27.4,111.6,24.8,111.3,22.7"/>
		<path class="st1" d="M127.7,13.2c-1.8,1.5,1.8,5.8-3,6.2c-2.2,0.2-2.9-1.3-2.7-3c0.4-2.5,0.1-5.8,3.6-6.4
			C127.3,9.8,127.7,11.4,127.7,13.2"/>
		<path class="st1" d="M173,54c-0.1-2.4,0.4-4,2.7-3.8c1.8,0.2,3.8,0.8,3.6,3.2c-0.2,2-1.2,3.8-3.6,3.9C173,57.5,173.2,55.3,173,54"
			/>
		<path class="st1" d="M133.8,28.9c-0.6,1.9-1.1,4-3.5,3.5c-1.6-0.3-3.3-1.3-2.9-3.5s1.4-4.2,3.9-4.1S133.4,27.3,133.8,28.9"/>
		<path class="st1" d="M153.5,19.5c-2.4,0.1-3.2-1.4-3.1-3.3s1.1-3.5,3.4-3.5s2.9,1.5,2.9,3.4C156.7,18.2,155.7,19.6,153.5,19.5"/>
		<path class="st1" d="M123.4,75.2c-0.4,2-0.5,5.4-3.6,5.4c-2.2,0-1.5-3.3-1.5-4.8c0-1.4,0.6-4,2.7-4.1c1.4,0,2.6,1.1,2.6,2.6
			C123.6,74.6,123.6,74.9,123.4,75.2"/>
		<path class="st1" d="M106.4,43c-0.1,1.5,0.7,4-1.9,4.2s-3-2.4-3.1-4.2s0.6-4.2,3.1-4.2S106.3,41.2,106.4,43"/>
		<path class="st1" d="M121.7,36.4c-0.8,1.7,0,4.2-2.5,4.4c-2.2,0.2-2.8-1.5-2.8-3.4c0-2.4,0.5-5.1,3.2-5.2
			C121,32.2,120.9,35.1,121.7,36.4"/>
		<path class="st1" d="M183.9,42c-1.4-0.7-3.1-1.3-3-3.5s1.3-3.6,3.3-3.6c1.6-0.1,3,1.2,3.1,2.8c0,0.2,0,0.3,0,0.5
			C187.2,40.2,185.8,41.8,183.9,42"/>
		<path class="st1" d="M147,5.5c0.6-2.2,1.5-4.3,4.1-4.3c1.3,0,2.5,1.4,1.9,2.5c-1.1,1.9-0.2,5.4-3.7,5.4C147.3,9,147.2,7,147,5.5"
			/>
		<path class="st1" d="M168,47.6c-0.4,2.1-0.9,4.3-3.6,4.1c-2.2-0.2-2.6-2.2-2.3-3.8c0.3-2.3,2.2-3,4.4-2.9
			C168,45.2,168.3,46.2,168,47.6"/>
		<path class="st1" d="M149.5,95.6c0.1-2.2,0.7-4,3.2-4.1c1.2-0.1,2.7,0,2.3,1.9c-0.5,2-0.3,4.7-3.2,5.1
			C149.8,98.8,149.6,97.1,149.5,95.6"/>
		<path class="st1" d="M182.7,93.4c0.3-1.3,0.5-3.3,2.8-3.1c1.7,0.1,3.1,1.5,3,3.3c0,0.1,0,0.1,0,0.2c-0.2,1.7-1.4,3.2-3.5,3
			C183.3,96.6,182.6,95.5,182.7,93.4"/>
		<path class="st1" d="M158.3,81.1c-0.3,1.7-0.9,3.6-3,3.8c-1.9,0.2-2.1-1.8-2-3.1c0.1-1.8,0.2-4.2,2.9-4.1
			C157.9,77.7,158.2,79.4,158.3,81.1"/>
		<path class="st1" d="M143.2,61.9c0.7-1.2-0.6-3.7,2.2-3.7c2.2-0.1,3.1,1.4,3.2,3.2c0.1,2-1.1,3.1-3.2,3.2S143.4,63.3,143.2,61.9"
			/>
		<path class="st1" d="M115.2,87.5c0.3,2.6-0.5,3.9-2.2,3.9c-1.7,0-3-1.3-3-3c0-0.1,0-0.3,0-0.4c0.1-1.5,0.9-3.5,3-3.5
			C115.5,84.6,115.1,86.8,115.2,87.5"/>
		<path class="st1" d="M145.2,21.3c-0.2,1.8-1.1,3.4-3.2,3.4c-1.5,0-2.6-1.2-2.6-2.7c0-0.1,0-0.1,0-0.2c0.1-1.6,0.4-3.6,2.7-3.5
			C143.6,18.4,145.3,18.9,145.2,21.3"/>
		<path class="st1" d="M194.2,31.7c0.3-1.5,0.1-3.7,2.4-3.8c1.8,0,2.8,1.5,2.8,3.2c0,1.9-0.6,3.7-2.9,3.8
			C194.4,34.9,194.4,33.2,194.2,31.7"/>
		<path class="st1" d="M123.2,60.4c-0.3,1.9-0.9,3.8-3.3,4.1c-1.9,0.2-2-1.4-2-2.7c0.1-2.4,1.4-4,3.7-4.2
			C123.4,57.4,123,59.2,123.2,60.4"/>
		<path class="st1" d="M134.5,64.4c-0.1,1.8-0.2,3.6-2.4,3.6s-2.5-2-2.6-3.7c-0.1-1.6-0.2-3.4,2.2-3.4S134.2,62.8,134.5,64.4"/>
		<path class="st1" d="M106.7,58.5c-0.3,1.8-0.8,3.6-2.9,3.6c-2.6,0-2-2.3-2.2-3.8c-0.3-1.3,0.5-2.7,1.9-3c0.3-0.1,0.6-0.1,1,0
			C106.5,55.4,106.6,56.9,106.7,58.5"/>
		<path class="st1" d="M170.8,21.6c-0.1,2-1,3.3-3,3.3s-2.6-1.8-2.6-3.3c0.1-2,2.1-2.6,3.6-2.8C170.6,18.7,170.8,20.3,170.8,21.6"/>
		<path class="st1" d="M178.6,101.3c-0.3,2.4-1.1,4.1-3.4,4.1s-2.1-2.1-2.2-3.5c0-1.8,1.4-2.8,3.2-2.8c1.2-0.1,2.2,0.8,2.3,2
			C178.6,101.2,178.6,101.3,178.6,101.3"/>
		<path class="st1" d="M175.3,79.6c0.6-1,0-3.3,2-2.8c1.4,0.4,4,0.4,3.6,3.2c-0.3,1.7-1.3,3-3.1,2.9S175.3,81.3,175.3,79.6"/>
		<path class="st1" d="M188.4,82.1c0.1-1.4,0.3-3.1,2.4-3.2c1.9,0,2.8,1.2,2.8,3c0.1,1.7-1.2,3.1-2.8,3.2c0,0,0,0,0,0
			C188.7,85.3,188.3,83.9,188.4,82.1"/>
		<path class="st1" d="M144.5,80.1c-0.1,2.3-1.1,3.7-3,3.8c-2.2,0.1-2.3-1.7-2.4-3.3c-0.2-2.2,1-2.7,2.9-2.8S144.7,78.5,144.5,80.1"
			/>
		<path class="st1" d="M195.5,48.1c1.4-0.1,2.5,0.9,2.6,2.3c0,0.2,0,0.4,0,0.5c-0.1,1.7-0.8,3.3-2.7,3.4c-2.3,0.2-2.6-1.9-2.8-3.5
			C192.5,48.9,193.9,48.4,195.5,48.1"/>
		<path class="st1" d="M127.3,81.1c0.3-1.4-0.1-3.4,2.1-3.5c1.4-0.1,2.6,1,2.7,2.3c0,0.2,0,0.3,0,0.5c-0.1,1.6-0.3,3.7-2.5,3.8
			S127.5,82.7,127.3,81.1"/>
		<path class="st1" d="M131.2,46.3c-0.1,1.6-0.5,3.4-2.3,3.1s-2.5-2.3-2.5-3.9c0-1.3,0.8-3.3,2.5-3S131.3,44.5,131.2,46.3"/>
		<path class="st1" d="M148.6,34.5c-0.1,1.8-0.1,3.8-2.4,3.8c-1.9,0-2.1-1.9-2.2-3.2c-0.1-1.8,0.7-3.6,2.6-3.7
			S148.3,33.4,148.6,34.5"/>
		<path class="st1" d="M200.3,60.5c2.1,0.1,2.4,1.8,2.4,3.1c0,1.5-0.2,3.3-2.4,3.5c-2.4,0.2-2.3-1.8-2.5-3.2
			C197.5,62,198.6,60.9,200.3,60.5"/>
		<path class="st1" d="M183.2,65.7c-0.3-2.1,0.5-3,2.4-2.9c1.4,0.1,3,0.1,3,1.9c0.1,1.9-1.4,3.6-3.3,3.7
			C183,68.7,183.5,66.8,183.2,65.7"/>
		<path class="st1" d="M165.7,92.6c0.2-1.6,0.9-3.1,3-3c1.8,0.1,2,1.5,2,2.9c-0.1,1.9-0.9,3.3-3.1,3.3
			C165.9,95.8,165.7,94.3,165.7,92.6"/>
		<path class="st1" d="M114.9,49.9c0.1,2.1-0.9,3.2-2.5,3.3c-2,0.1-2.2-1.7-2.3-3c0-1.7,0.5-3.7,2.6-3.6
			C114.6,46.7,114.7,48.7,114.9,49.9"/>
		<path class="st1" d="M164.5,102.3c1.5,0.2,2.5,0.9,2.5,2.5c0.2,1.7-1.1,3.3-2.9,3.5c0,0-0.1,0-0.1,0c-1.8,0.2-2.1-1.3-2.1-2.7
			C161.6,104,162.8,102.5,164.5,102.3"/>
		<path class="st1" d="M170.7,11.6c-0.3-2.4,1.5-2.8,3.1-3.1c1.4-0.3,2.1,0.8,1.8,2c-0.4,1.8-0.2,4.3-2.7,4.5
			C170.8,15.2,170.9,13.2,170.7,11.6"/>
		<path class="st1" d="M106.1,33.9c-1.3,0-2.1-0.7-1.9-2.1c0.2-1.9,1.7-3.4,3.6-3.5c0.9-0.2,1.8,0.4,2,1.3c0.1,0.2,0.1,0.5,0,0.7
			C109.6,32.6,107.9,33.4,106.1,33.9"/>
		<path class="st1" d="M188.3,14.9c-0.2,1.7-0.6,3.1-2.7,3.3c-1.7,0.1-2.5-0.9-2.5-2.4c0-1.9,0.6-3.5,2.8-3.5
			C187.6,12.1,188,13.5,188.3,14.9"/>
		<path class="st1" d="M154.5,32.2c0.3-1.4-0.2-3.6,2-3.8c1.3-0.1,2.5,0.9,2.6,2.2c0,0.2,0,0.4,0,0.6c-0.2,1.8-0.8,3.4-2.8,3.6
			C154.4,35,154.5,33.5,154.5,32.2"/>
		<path class="st1" d="M167,33.2c0-1.3,0.4-2.8,2.1-2.5c1.1,0.2,3.3,0.1,3.1,2.2c-0.1,1.7-0.9,3.3-3,3.5
			C166.9,36.5,167.2,34.7,167,33.2"/>
		<path class="st1" d="M172.2,70.1c-0.3,1.3-0.8,2.9-2.6,2.9c-2.3,0-2.1-2.2-2.2-3.5c-0.1-1.1,0.1-3.2,1.9-2.9
			C170.9,66.9,172.2,68.3,172.2,70.1"/>
		<path class="st1" d="M147,103.6c1.4,0.3,2.8,0.9,2.6,2.8c-0.2,1.5-0.7,3.1-2.5,3.1c-2.4,0-2.3-2.1-2.4-3.7S145.5,103.7,147,103.6"
			/>
		<path class="st1" d="M154.3,48.2c-0.4,2.1-0.8,3.9-3,3.7c-1.7-0.2-1.8-1.7-1.7-3.1c0.2-1.7,0.9-3.1,2.9-3S154.4,47.2,154.3,48.2"
			/>
		<path class="st1" d="M104.4,71.5c-0.1,1.6-0.2,3.4-2,3.5s-2.5-1.3-2.5-3s0.4-3.4,2.3-3.6C104.3,68.2,104,70.2,104.4,71.5"/>
		<path class="st1" d="M142.8,91.7c-0.3,2.3-1.5,3.3-3.4,3.4s-2-1.5-2.1-2.8s0.6-2.8,1.9-2.4S142.6,89.6,142.8,91.7"/>
		<path class="st1" d="M205,39.9c1.4,0.6,2.5,1.5,2.4,3.2s-0.8,2.8-2.6,3s-2.5-1.1-2.4-2.6C202.2,41.8,203.4,40.3,205,39.9"/>
		<path class="st1" d="M137.5,53c-1.8-0.3-1.9-1.7-1.9-3.1c0-2.1,1.6-2.5,3.2-2.7c1.1-0.1,1.9,0.3,1.7,1.7
			C140.2,50.8,139.7,52.5,137.5,53"/>
		<path class="st1" d="M124.7,94.5c-0.2,1.1,0.1,3-2.1,3.2c-1.9,0.2-2.6-1.1-2.5-2.8s0.6-3.1,2.7-3.2
			C124.4,91.8,124.8,92.7,124.7,94.5"/>
		<path class="st1" d="M139.4,7.8c-0.1,1.4-0.7,2.8-2.5,2.7s-2.2-1.6-2.3-3.1s0.7-2.6,2.3-2.6C138.7,4.9,139.4,6,139.4,7.8"/>
		<path class="st1" d="M161.1,63.5c-0.1,1.6-0.6,3-2.5,3c-1.5,0-2.6-0.7-2.6-2.4s0.8-2.9,2.5-3c1.3-0.1,2.4,0.8,2.5,2.1
			C161.1,63.2,161.1,63.4,161.1,63.5"/>
		<path class="st1" d="M203.2,80.5c-0.1,1.9-0.7,3.2-2.7,3.4c-1.4,0.1-2-0.7-1.9-2c0.2-1.8,1.1-3.4,2.9-3.7S203.1,79.6,203.2,80.5"
			/>
		<path class="st1" d="M166.5,3.2c-0.4,1.4-0.3,3.4-2.5,3.7c-1.3,0.2-1.7-0.7-1.6-1.8c0.2-1.7,0.4-3.5,2.5-3.9
			C166.2,1,166.5,1.9,166.5,3.2"/>
		<path class="st1" d="M132.7,99.5c1.4,0.6-1.9,3.6,1.8,2.5c0.3-0.1,0.4,0.8,0.2,1.2c-0.5,1.1-1.7,1.9-2.9,1.8
			c-0.9,0.1-1.7-0.5-1.8-1.4c0,0,0,0,0,0C129.6,101.2,131,100.2,132.7,99.5"/>
		<path class="st1" d="M108.4,70.8c0.1-1.6,0.3-3.1,2.2-3.2c1.7-0.1,1.9,1.2,1.8,2.4c-0.1,1.6-0.6,3.3-2.5,3.4
			C108.4,73.5,108.5,71.9,108.4,70.8"/>
		<path class="st1" d="M181.9,26.1c-0.2,1.5-0.8,2.6-2.5,2.5c-1,0-1.9-0.8-1.9-1.8c0-0.1,0-0.2,0-0.4c0.2-1.4,0.8-2.6,2.4-2.6
			S181.9,24.8,181.9,26.1"/>
		<path class="st1" d="M209.2,56c-0.1,1.7-0.8,2.9-2.6,2.9c-1.4,0-1.4-1.1-1.4-2c-0.2-1.5,0.9-2.8,2.3-3c0,0,0.1,0,0.1,0
			C209.2,53.6,208.9,55.2,209.2,56"/>
		<path class="st2" d="M135.5,38.9c-9.5,4.4-19.5,8.8-28,15.8c-6.6,5.4-11.3,12.9-16.9,19.7c-7.9,9.5-26.2,16.2-19.4,34.3
			s30.2,21.8,44.2,23.3c7.3,0.8,15.4,1.3,22.7,0.2c7.1-1,16.7-6.8,21.2-13.7c4.2-6.5,3.5-17.8,4.1-25.8c0.9-10.3,4.3-20.1,4.5-30.4
			c0.2-8-3.3-12.7-8.6-16.7C152.1,39.9,145.9,35.4,135.5,38.9L135.5,38.9z"/>
		<path class="st3" d="M102.4,40.3c-9.7-2.8-18-1.4-25.5-0.1s-13.8,5.5-17,11.8c-2.1,4.3-3.3,8.9-3.5,13.6
			c-0.3,7.1,2.9,15.7,6.7,21.6c5.8,9,23.4,21.1,31.5,24.3c10.6,3.9,21.7,6.6,32.9,7.9c8.2,1.3,16.5,1.3,24.7,0.3
			c15.4-2.3,25.5-5.3,33.2-17.3c6.1-9.4,9.5-32.3,0-38.7s-17.2-1.2-36.1-4.2S112.1,43.1,102.4,40.3"/>
		<polygon class="st4" points="144.6,124.4 56.7,125 59.7,118.3 56.7,112.3 144.6,111.7 142.2,118.5 		"/>
		<path class="st4" d="M145.9,112.2c-1,2.2-2,4.4-3,6.6c-0.1,0.2-0.1,0.7,0.1,0.8c1.2,0.6,2.1,3.2,3,4.9c0.2,0.4,0.6-0.2,0.3-0.7
			c-0.9-1.8-1.9-4.4-3.2-5.1l0.1,0.8c1-2.2,2-4.4,3-6.6C146.5,112.4,146.1,111.8,145.9,112.2"/>
		<path class="st4" d="M55.4,125.4c1-2.2,2-4.4,3-6.6c0.1-0.2,0.1-0.7-0.1-0.8c-1.2-0.6-2.1-3.2-3-4.9c-0.2-0.4-0.5,0.2-0.3,0.7
			c1,1.8,1.9,4.4,3.2,5.1l-0.1-0.8l-3,6.6C54.8,125.2,55.2,125.8,55.4,125.4"/>
		<polygon class="st5" points="66.1,114.2 67.5,114.2 67.5,120.9 69.7,120.9 69.7,122 66.1,122 		"/>
		<polygon class="st5" points="70.3,114.2 71.7,114.2 71.7,120.9 73.9,120.9 73.9,122 70.3,122 		"/>
		<path class="st5" d="M78.8,122h-1.4l-0.2-1.4h-1.7l-0.2,1.4h-1.2l1.4-7.8h2L78.8,122z M75.8,119.5h1.3l-0.6-4l0,0L75.8,119.5z"/>
		<polygon class="st5" points="82.3,119.7 82.4,119.7 83.3,114.2 85.2,114.2 85.2,122 83.9,122 83.9,116.4 83.8,116.4 82.9,122 
			81.7,122 80.7,116.4 80.7,116.4 80.7,122 79.5,122 79.5,114.2 81.3,114.2 		"/>
		<path class="st5" d="M90.5,122h-1.4l-0.2-1.4h-1.7L87,122h-1.2l1.4-7.8h2L90.5,122z M87.4,119.5h1.3l-0.6-4l0,0L87.4,119.5z"/>
		<path class="st5" d="M91.1,114.2h2.1c1-0.1,1.9,0.5,2,1.5c0,0.1,0,0.3,0,0.4v4c0.1,1-0.6,1.8-1.6,1.9c-0.1,0-0.3,0-0.4,0h-2.1
			V114.2z M92.5,115.3v5.6h0.8c0.4,0,0.7-0.2,0.7-0.8V116c0-0.6-0.3-0.8-0.7-0.8L92.5,115.3z"/>
		<path class="st5" d="M96.1,116c0.1-1.1,1.1-2,2.2-1.9c1,0.1,1.8,0.9,1.9,1.9v4.1c-0.1,1.1-1.1,2-2.2,1.9c-1-0.1-1.8-0.9-1.9-1.9
			V116z M97.4,120.2c0,0.6,0.3,0.8,0.7,0.8s0.7-0.2,0.7-0.8V116c0-0.6-0.3-0.8-0.7-0.8s-0.7,0.2-0.7,0.8V120.2z"/>
		<path class="st5" d="M105.8,122c-0.1-0.3-0.2-0.7-0.1-1v-1.2c0-0.7-0.3-1-0.9-1h-0.5v3.2h-1.3v-7.8h2c1.4,0,2,0.6,2,1.8v0.6
			c0.1,0.7-0.3,1.3-0.9,1.6l0,0c0.7,0.2,0.9,0.8,0.9,1.7v1.2c0,0.3,0,0.7,0.1,1L105.8,122z M104.3,115.3v2.4h0.5
			c0.5,0,0.8-0.2,0.8-0.8V116c0-0.6-0.2-0.8-0.7-0.8L104.3,115.3z"/>
		<polygon class="st5" points="109.2,117.5 111.1,117.5 111.1,118.6 109.2,118.6 109.2,120.9 111.6,120.9 111.6,122 107.9,122 
			107.9,114.2 111.6,114.2 111.6,115.3 109.2,115.3 		"/>
		<path class="st5" d="M114.4,117.6h1.9v2.5c0,1.1-0.9,2-2,2s-2-0.9-2-2v-4.1c0-1.1,0.9-2,2-2s2,0.9,2,2v0.8h-1.3V116
			c0-0.6-0.3-0.8-0.7-0.8s-0.7,0.2-0.7,0.8v4.2c0,0.6,0.3,0.8,0.7,0.8s0.7-0.2,0.7-0.8v-1.5h-0.6V117.6z"/>
		<path class="st5" d="M118.5,114.2v6c0,0.6,0.3,0.8,0.7,0.8s0.7-0.2,0.7-0.8v-6h1.3v6c0,1.1-0.9,2-2,2s-2-0.9-2-2v-6H118.5z"/>
		<polygon class="st5" points="122.1,114.2 123.4,114.2 123.4,120.9 125.7,120.9 125.7,122 122.1,122 		"/>
		<path class="st5" d="M130.6,122h-1.4l-0.2-1.4h-1.7l-0.2,1.4h-1.2l1.4-7.8h2L130.6,122z M127.6,119.5h1.3l-0.6-4l0,0L127.6,119.5z
			"/>
		<path class="st5" d="M134.1,122c-0.1-0.3-0.2-0.7-0.1-1v-1.2c0-0.7-0.3-1-0.9-1h-0.5v3.2h-1.4v-7.8h2c1.4,0,2,0.6,2,1.8v0.6
			c0.1,0.7-0.3,1.3-0.9,1.6l0,0c0.7,0.2,0.9,0.8,0.9,1.7v1.2c0,0.3,0,0.7,0.1,1L134.1,122z M132.6,115.3v2.4h0.5
			c0.5,0,0.8-0.2,0.8-0.8V116c0-0.6-0.2-0.8-0.7-0.8L132.6,115.3z"/>
		<path class="st5" d="M71.1,64.6h-1.3v3.2h-1v-8.4h2.2c1.7,0,3,0.8,3,2.5S72.8,64.6,71.1,64.6 M71,60.2h-1.2v3.6H71
			c1.3,0,2.1-0.6,2.1-1.9S72.2,60.2,71,60.2"/>
		<path class="st5" d="M78.4,62.6c-0.3-0.1-0.5-0.1-0.8-0.1c-0.5,0-1,0.3-1.4,0.7v4.8h-1v-6.1h0.6l0.2,0.8c0.4-0.5,1-0.9,1.6-0.9
			c0.3,0,0.5,0,0.8,0.1L78.4,62.6z"/>
		<path class="st5" d="M84.3,64.8c0,2.1-1,3.2-2.7,3.2S79,66.9,79,64.8c0-1.8,0.8-3.2,2.6-3.2S84.3,63,84.3,64.8 M83.3,64.8
			c0-1.6-0.5-2.5-1.7-2.5S80,63.2,80,64.8s0.4,2.5,1.7,2.5S83.3,66.5,83.3,64.8"/>
		<path class="st5" d="M91,61.8v0.7c-0.5,0-1,0-1.5-0.1c0.5,0.3,0.8,0.9,0.8,1.5c-0.1,1.2-1.1,2.1-2.3,2.1c0,0,0,0,0,0
			c-0.3,0-0.5-0.1-0.8-0.1c-0.4,0-0.7,0.2-0.7,0.4c0,0.8,4,0,4,2.2c0,1.4-1.3,2.1-2.6,2.1s-2.4-0.6-2.4-1.8c0-0.8,0.6-1.3,1.6-1.5
			c-0.8-0.1-1.4-0.3-1.4-0.9c0-0.4,0.3-0.7,0.9-0.8c-0.6-0.3-1-1-0.9-1.7c0-1.2,1.1-2.2,2.3-2.1c0,0,0.1,0,0.1,0
			C88.5,61.6,89.5,61.7,91,61.8 M87.9,67.3c-0.9,0-1.5,0.5-1.5,1.2c0.1,0.8,0.8,1.3,1.6,1.2c0.9,0,1.7-0.4,1.7-1.4
			C89.7,67.7,89.1,67.4,87.9,67.3 M89.5,63.7c0-0.8-0.6-1.4-1.4-1.4c-0.8,0-1.5,0.6-1.5,1.4s0.6,1.4,1.5,1.4
			C88.8,65.2,89.5,64.5,89.5,63.7"/>
		<path class="st5" d="M95.3,62.6c-0.3-0.1-0.5-0.1-0.8-0.1c-0.5,0-1,0.3-1.4,0.7v4.8h-1v-6.1h0.6l0.2,0.8c0.4-0.5,1-0.9,1.6-0.9
			c0.3,0,0.5,0,0.8,0.1L95.3,62.6z"/>
		<path class="st5" d="M100.1,67.9l-0.2-0.8C99.5,67.7,98.8,68,98,68c-1,0.1-1.9-0.7-2-1.7c0-0.1,0-0.1,0-0.2c0-1.1,0.8-1.8,2.2-1.8
			h1.6v-0.5c0-1.1-0.5-1.5-1.4-1.5c-0.6,0-1.3,0.1-1.9,0.4l-0.2-0.7c0.7-0.3,1.5-0.5,2.3-0.5c1.1-0.1,2.1,0.7,2.2,1.8
			c0,0.1,0,0.3,0,0.4v4L100.1,67.9z M99.8,65h-1.4c-1,0-1.4,0.5-1.4,1.1c-0.1,0.6,0.4,1.2,1,1.2c0.1,0,0.2,0,0.3,0
			c0.6,0,1.2-0.3,1.5-0.8V65z"/>
		<path class="st5" d="M107.1,64v3.9h-1v-3.7c0-1.2-0.3-1.8-1.4-1.8c-0.6,0-1.1,0.3-1.5,0.7v4.8h-1v-6.1h0.7l0.2,0.7
			c0.5-0.5,1.2-0.9,1.9-0.9c0.7-0.1,1.5,0.3,1.8,0.9c0.5-0.6,1.2-0.9,1.9-0.9c1.5,0,2.2,0.8,2.2,2.4v3.9h-1v-3.7
			c0-1.2-0.4-1.8-1.5-1.8c-0.6,0-1.1,0.3-1.5,0.7C107.1,63.4,107.1,63.7,107.1,64"/>
		<path class="st5" d="M116.2,67.9l-0.2-0.8c-0.5,0.6-1.2,0.9-1.9,0.9c-1,0.1-1.9-0.7-2-1.7c0-0.1,0-0.1,0-0.2
			c0-1.1,0.8-1.8,2.2-1.8h1.7v-0.5c0-1.1-0.5-1.5-1.4-1.5c-0.6,0-1.3,0.1-1.9,0.4l-0.2-0.7c0.7-0.3,1.5-0.5,2.2-0.5
			c1.1-0.1,2.1,0.7,2.2,1.8c0,0.1,0,0.3,0,0.4v4L116.2,67.9z M116,65h-1.4c-1,0-1.4,0.5-1.4,1.1c-0.1,0.6,0.4,1.2,1,1.2
			c0.1,0,0.2,0,0.3,0c0.6,0,1.2-0.3,1.5-0.8V65z"/>
		<path class="st5" d="M125.3,67.2c-0.4,0.5-1.1,0.9-1.8,0.9c-1.4,0-2.5-1.1-2.5-3.2c0-1.9,0.9-3.2,2.6-3.2c0.6,0,1.2,0.2,1.7,0.5
			c0-0.3,0-0.7,0-1v-1.9h0.9v8.7h-0.7L125.3,67.2z M125.3,62.8c-0.4-0.3-1-0.4-1.5-0.4c-1.2,0-1.7,0.9-1.7,2.5s0.5,2.5,1.6,2.5
			c0.6,0,1.2-0.3,1.6-0.8V62.8z"/>
		<path class="st5" d="M128.6,65.1c0,1.5,0.8,2.2,1.9,2.2c0.7,0,1.3-0.2,1.9-0.6l0.2,0.7c-0.7,0.4-1.5,0.7-2.2,0.7
			c-1.7,0-2.8-1.1-2.8-3.2c0-1.9,1-3.2,2.6-3.2s2.5,1.4,2.5,2.9v0.5H128.6z M130.3,62.4c-1.2,0-1.6,1-1.6,2.1h3.2
			C131.8,63.4,131.5,62.4,130.3,62.4"/>
		<polygon class="st5" points="76,85.4 76,80.1 70.6,80.1 70.6,85.4 69.2,85.4 69.2,73.6 70.6,73.6 70.6,78.8 76,78.8 76,73.6 
			77.4,73.6 77.4,85.4 		"/>
		<path class="st5" d="M85.1,85.4l-0.2-1.1c-0.6,0.8-1.6,1.3-2.7,1.3c-1.4,0.1-2.7-1-2.8-2.4c0-0.1,0-0.2,0-0.3c0-1.5,1.1-2.5,3-2.5
			h2.3v-0.7c0-1.5-0.7-2.1-2-2.1c-0.9,0-1.8,0.2-2.6,0.6l-0.3-1c1-0.4,2.1-0.6,3.2-0.6c2.1,0,3.1,1,3.1,3.1v5.7L85.1,85.4z
			 M84.7,81.4h-2c-1.5,0-2,0.6-2,1.5c-0.1,0.9,0.5,1.7,1.4,1.8c0.1,0,0.3,0,0.4,0c0.8,0,1.6-0.4,2.2-1.1V81.4z"/>
		<path class="st5" d="M89.5,77.8c0.7-0.7,1.6-1.1,2.5-1.1c2.2,0,3.3,1.6,3.3,4.5c0,3-1.5,4.5-3.6,4.5c-1,0-1.9-0.4-2.5-1.1L89,85.4
			h-0.7V73.3h1.3v3.3L89.5,77.8z M89.6,83.6c0.5,0.6,1.3,1,2.1,1c1.5,0,2.3-1,2.3-3.5c0-2.3-0.7-3.4-2.2-3.4c-0.8,0-1.6,0.4-2.2,1
			L89.6,83.6z"/>
		<path class="st5" d="M98.1,85.4v-7.5l-0.9-0.2v-0.9h2.2v8.6L98.1,85.4z M98,73.4h1.4v1.4H98L98,73.4z"/>
		<path class="st5" d="M104.6,85.6c-1.2,0-2.2-0.6-2.2-2.6v-5.2h-1.3v-1h1.3v-1.5l1.3-0.4v2h2.5v1h-2.5v5.3c0,0.9,0.3,1.4,1.1,1.4
			c0.5,0,0.9-0.2,1.4-0.4l0.3,1C105.9,85.5,105.3,85.6,104.6,85.6"/>
		<path class="st5" d="M113.3,85.4l-0.2-1.1c-0.6,0.8-1.6,1.3-2.7,1.3c-1.4,0.1-2.7-0.9-2.8-2.4c0-0.1,0-0.2,0-0.3
			c0-1.5,1.1-2.5,3-2.5h2.2v-0.7c0-1.5-0.7-2.1-2-2.1c-0.9,0-1.8,0.2-2.6,0.6l-0.3-1c1-0.4,2-0.7,3.1-0.7c2,0,3.1,1.1,3.1,3.1v5.7
			L113.3,85.4z M112.9,81.4h-2c-1.5,0-2,0.6-2,1.5c-0.1,0.9,0.5,1.7,1.4,1.8c0.1,0,0.3,0,0.4,0c0.8,0,1.6-0.4,2.2-1.1V81.4z"/>
		<path class="st5" d="M117.7,77.8c0.7-0.7,1.6-1.1,2.6-1.1c2.2,0,3.3,1.6,3.3,4.5c0,3-1.5,4.5-3.6,4.5c-1,0-1.9-0.4-2.5-1.1
			l-0.3,0.9h-0.7V73.3h1.3v3.3L117.7,77.8z M117.8,83.6c0.5,0.6,1.3,1,2.1,1c1.5,0,2.3-1,2.3-3.5c0-2.3-0.7-3.4-2.2-3.4
			c-0.8,0-1.6,0.4-2.2,1L117.8,83.6z"/>
		<path class="st5" d="M126.3,85.4v-7.5l-1-0.2v-0.9h2.2v8.6H126.3z M126.2,73.4h1.4v1.4h-1.4V73.4z"/>
		<path class="st5" d="M130,83v-9.7h1.3v10.2c0,0.7,0.3,1,1.3,1h0.3v0.9c-0.3,0.1-0.6,0.1-0.8,0.1C130.4,85.6,130,84.6,130,83"/>
		<path class="st5" d="M135.3,85.4v-7.5l-1-0.2v-0.9h2.2v8.6H135.3z M135.2,73.4h1.4v1.4h-1.4V73.4z"/>
		<path class="st5" d="M144.6,84.4c-0.6,0.8-1.5,1.2-2.5,1.2c-2,0-3.5-1.5-3.5-4.5c0-2.6,1.3-4.5,3.6-4.5c0.8,0,1.6,0.2,2.3,0.7
			c0-0.5-0.1-0.9-0.1-1.4v-2.7h1.3v12.1h-1L144.6,84.4z M144.5,78.3c-0.6-0.4-1.3-0.6-2.1-0.6c-1.6,0-2.4,1.3-2.4,3.4
			s0.7,3.5,2.3,3.5c0.8,0,1.6-0.4,2.2-1.1V78.3z"/>
		<path class="st5" d="M153.4,85.4l-0.2-1.1c-0.6,0.8-1.6,1.3-2.6,1.3c-1.4,0.1-2.7-1-2.8-2.4c0-0.1,0-0.2,0-0.3
			c0-1.5,1.1-2.5,3-2.5h2.2v-0.7c0-1.5-0.6-2.1-1.9-2.1c-0.9,0-1.8,0.2-2.6,0.6l-0.4-1c1-0.4,2.1-0.7,3.1-0.7c2,0,3.1,1.1,3.1,3.1
			v5.7L153.4,85.4z M153.1,81.4h-2c-1.5,0-1.9,0.6-1.9,1.5c-0.1,0.9,0.5,1.7,1.4,1.8c0.1,0,0.3,0,0.4,0c0.8,0,1.6-0.4,2.2-1.1V81.4z
			"/>
		<path class="st5" d="M162.3,84.4c-0.6,0.8-1.5,1.2-2.5,1.2c-2,0-3.5-1.5-3.5-4.5c0-2.6,1.3-4.5,3.6-4.5c0.8,0,1.6,0.2,2.3,0.7
			c0-0.5-0.1-0.9-0.1-1.4v-2.7h1.3v12.1h-1L162.3,84.4z M162.2,78.3c-0.6-0.4-1.3-0.6-2.1-0.6c-1.6,0-2.4,1.3-2.4,3.4
			s0.7,3.5,2.3,3.5c0.9,0,1.6-0.4,2.2-1.1V78.3z"/>
		<path class="st5" d="M132.9,96.2c0.4,0.2,0.5,0.6,0.4,0.9l-0.4,1c-0.2,0.5-0.5,1.2-0.8,1.9s-0.7,1.5-1.1,2.3s-0.9,1.6-1.3,2.3
			c-0.4,0.7-0.9,1.4-1.5,2c-0.4,0.5-0.9,0.9-1.5,1.2c-0.1,0.1-0.3,0.1-0.5,0.1l-0.4,0.1c-0.5,0.1-1,0-1.4-0.2
			c-0.4-0.2-0.7-0.5-1-0.8c-0.3-0.3-0.5-0.6-0.6-1c-0.1-0.4-0.2-0.7-0.3-1.1c-0.3-2.1-0.1-4.2,0.7-6.1c0-0.1,0.1-0.2,0.1-0.2
			c0-0.1,0-0.1,0-0.2c-0.2-0.1-0.4-0.2-0.6-0.2c-0.2-0.1-0.4-0.2-0.5-0.3c-0.3-0.2-0.5-0.4-0.7-0.6c-0.1-0.2-0.2-0.5-0.3-0.7V96
			c0-0.1,0-0.3,0-0.4c0-0.1,0-0.1,0-0.2c0-0.1,0-0.1,0-0.2c0.1-0.5,0.1-1,0.2-1.6c0.1-0.6,0.3-1.1,0.5-1.7c0.2-0.5,0.5-0.9,0.9-1.3
			c0.3-0.3,0.8-0.5,1.3-0.4c0.4,0,0.8,0.2,1,0.5c0.2,0.3,0.3,0.6,0.2,0.9c0,0.4-0.2,0.8-0.3,1.2c-0.2,0.4-0.4,0.9-0.6,1.3
			s-0.5,0.8-0.7,1.1s-0.4,0.6-0.5,0.7c0,0.1,0,0.2,0.1,0.3c0,0.2,0.1,0.3,0.2,0.3s0.2,0,0.3-0.1c0.4-0.3,0.7-0.6,0.9-1
			c0.2-0.4,0.5-0.7,0.7-1.1s0.4-0.6,0.5-0.9c0.2-0.3,0.4-0.6,0.6-0.9c0.1-0.1,0.1-0.1,0.2-0.2c0.1,0,0.2,0,0.3,0
			c0.3,0.1,0.6,0.2,0.9,0.3c0.3,0.1,0.6,0.3,0.8,0.6c0.1,0.1,0.1,0.1,0.1,0.2c0,0.1,0.1,0.2,0.1,0.3c0,0.1,0.1,0.3,0.1,0.4
			c0,0.2,0,0.4-0.1,0.6c-0.1,0.2-0.2,0.4-0.3,0.6c-0.2,0.3-0.4,0.7-0.6,1.2l-0.7,1.4l-0.7,1.4c-0.2,0.4-0.4,0.8-0.6,1.2
			c-0.1,0.2-0.2,0.4-0.3,0.6c0,0.1,0,0.3-0.1,0.7c0,0.4-0.1,0.8-0.1,1.2s-0.1,0.9-0.1,1.3s0,0.7,0,0.9v0.3c0,0.1,0,0.3,0.1,0.4
			c0,0.1,0.1,0.2,0.2,0.3c0.1,0.1,0.2,0.2,0.3,0.1c0.1,0,0.2-0.1,0.3-0.1c0.1-0.1,0.2-0.2,0.3-0.3l0.3-0.3c0.1-0.1,0.2-0.2,0.2-0.2
			c0.5-0.7,0.9-1.4,1.3-2.2s0.9-1.5,1.3-2.2l0.3-0.6c0.2-0.4,0.4-0.8,0.6-1.2s0.4-0.9,0.6-1.4l0.7-1.1c0-0.2,0.2-0.4,0.4-0.4
			C132.6,96.1,132.8,96.1,132.9,96.2"/>
		<path class="st5" d="M144,96.2c0.2,0,0.4,0.2,0.4,0.3c0.1,0.2,0.1,0.4,0.1,0.6c0,0,0,0.1-0.1,0.3s-0.1,0.4-0.2,0.7l-0.3,1
			c-0.1,0.4-0.2,0.8-0.4,1.1c-0.3,0.8-0.5,1.4-0.8,1.9c-0.2,0.4-0.4,0.8-0.7,1.2c-0.2,0.2-0.3,0.4-0.6,0.6c-0.1,0.1-0.3,0.2-0.5,0.3
			c-0.4,0.2-0.9,0.2-1.4,0.1c-0.4-0.1-0.8-0.2-1.1-0.4c-0.3-0.3-0.6-0.6-0.7-1c-0.3-0.7-0.4-1.5-0.5-2.2c-0.3,0.8-0.6,1.6-0.9,2.3
			c-0.3,0.5-0.5,1.1-0.9,1.6c-0.3,0.5-0.7,0.7-1,0.7h-0.1h-0.1c-0.3,0-0.7-0.1-1-0.2c-0.5-0.1-1-0.5-1.3-0.9
			c-0.4-0.5-0.6-1.1-0.8-1.7c-0.2-1-0.2-2-0.1-3v-0.3c0.1-1.1,0.3-2.1,0.6-3.1c0.2-0.6,0.4-1.2,0.8-1.8c0.2-0.3,0.5-0.6,0.8-0.8
			c0.2-0.1,0.4-0.2,0.6-0.2c0.4,0,0.8,0,1.1,0.2c0.2,0.1,0.4,0.2,0.6,0.4c0.1,0.1,0.2,0.3,0.2,0.5c0,0.1,0,0.3,0.1,0.4
			c0,0.2-0.1,0.4-0.1,0.6c-0.1,0.2-0.1,0.4-0.1,0.6c-0.1,0.5-0.2,1-0.3,1.5s-0.2,1-0.2,1.5c-0.1,0.4-0.1,0.7-0.1,1.1
			c0,0.4-0.1,0.7-0.1,1c0,0.2-0.1,0.3-0.1,0.5c0,0.2,0,0.3-0.1,0.5v1.1l0.5-0.9l0.4-0.8c0.1-0.2,0.2-0.5,0.3-0.7s0.2-0.5,0.3-0.7
			c0.7-1.4,1.2-3,1.5-4.5c0.1-0.4,0.1-0.7,0.3-1.1c0.1-0.3,0.2-0.7,0.3-1c0-0.2,0.1-0.4,0.2-0.6c0.2-0.1,0.3-0.2,0.5-0.3
			c0.6-0.2,1.4-0.1,1.9,0.4c0,0.1,0.1,0.2,0.1,0.2c0,0.1,0.1,0.3,0.1,0.4c0,0.2,0,0.3,0,0.4s0,0.2,0,0.3c0,0.3,0,0.7,0,1
			c0,0.3-0.1,0.6-0.1,1s0,0.5-0.1,0.7s0,0.5-0.1,0.7s-0.1,0.5-0.1,0.7s-0.1,0.5-0.1,0.7c0,0.3,0,0.7-0.1,1c-0.1,0.4-0.1,0.9-0.1,1.3
			c0,0.4,0,0.7,0,1.1c0,0.3,0.1,0.5,0.2,0.5s0.2-0.1,0.4-0.5c0.2-0.4,0.5-0.9,0.6-1.3c0.2-0.6,0.5-1.2,0.7-1.9s0.4-1.4,0.6-2.2
			c0-0.2,0.2-0.4,0.3-0.5C143.6,96.3,143.9,96.2,144,96.2"/>
		<path class="st5" d="M154.8,96.2c0.4,0.2,0.5,0.6,0.4,0.9l-0.4,1c-0.2,0.5-0.5,1.2-0.8,1.9s-0.7,1.5-1.1,2.3s-0.9,1.6-1.3,2.3
			c-0.4,0.7-0.9,1.4-1.5,2c-0.4,0.5-0.9,0.9-1.5,1.2c-0.1,0.1-0.3,0.1-0.4,0.1l-0.4,0.1c-0.5,0.1-1,0-1.4-0.2
			c-0.4-0.2-0.7-0.5-1-0.8c-0.3-0.3-0.5-0.6-0.6-1c-0.1-0.4-0.2-0.7-0.2-1.1c-0.3-2.1-0.1-4.2,0.7-6.1c0-0.1,0.1-0.2,0.1-0.2
			c0-0.1,0-0.1,0.1-0.2c-0.2-0.1-0.4-0.2-0.6-0.2c-0.2-0.1-0.4-0.2-0.5-0.3c-0.3-0.1-0.5-0.4-0.7-0.6c-0.1-0.2-0.2-0.5-0.3-0.7V96
			c0-0.1,0-0.3,0-0.4c0-0.1,0-0.1,0-0.2c0-0.1,0-0.1,0-0.2c0.1-0.5,0.1-1,0.3-1.6c0.1-0.6,0.3-1.1,0.5-1.7c0.2-0.5,0.5-0.9,0.9-1.3
			c0.3-0.3,0.8-0.5,1.3-0.4c0.4,0,0.8,0.2,1,0.5c0.2,0.3,0.3,0.6,0.2,0.9c0,0.4-0.2,0.8-0.3,1.2c-0.2,0.4-0.4,0.9-0.6,1.3
			c-0.2,0.4-0.5,0.8-0.7,1.1s-0.4,0.6-0.5,0.7c0,0.1,0,0.2,0.1,0.3c0,0.2,0.1,0.3,0.2,0.3s0.2,0,0.3-0.1c0.4-0.3,0.7-0.6,0.9-1
			c0.2-0.4,0.5-0.7,0.7-1.1s0.4-0.6,0.5-0.9c0.2-0.3,0.4-0.6,0.6-0.9c0.1-0.1,0.1-0.1,0.2-0.2c0.1,0,0.2,0,0.3,0
			c0.3,0.1,0.6,0.2,0.9,0.3c0.3,0.1,0.6,0.3,0.8,0.6c0.1,0.1,0.1,0.1,0.1,0.2c0,0.1,0.1,0.2,0.1,0.3c0,0.1,0.1,0.3,0.1,0.4
			c0,0.2,0,0.4-0.1,0.6c-0.1,0.2-0.2,0.4-0.4,0.6c-0.2,0.3-0.4,0.7-0.6,1.2l-0.7,1.4l-0.7,1.4c-0.2,0.4-0.4,0.8-0.6,1.2
			c-0.1,0.2-0.2,0.4-0.2,0.6c0,0.1,0,0.3-0.1,0.7c0,0.4-0.1,0.8-0.1,1.2s-0.1,0.9-0.1,1.3s0,0.7,0,0.9v0.3c0,0.1,0,0.3,0.1,0.4
			c0,0.1,0.1,0.2,0.2,0.3c0.1,0.1,0.2,0.2,0.4,0.1c0.1,0,0.2-0.1,0.3-0.1c0.1-0.1,0.2-0.2,0.3-0.3l0.4-0.3c0.1-0.1,0.2-0.2,0.2-0.2
			c0.5-0.7,0.9-1.4,1.3-2.2s0.9-1.5,1.3-2.2l0.3-0.6c0.2-0.4,0.4-0.8,0.6-1.2l0.6-1.4l0.5-1.1c0-0.2,0.2-0.3,0.4-0.4
			c0.2-0.1,0.4-0.1,0.6,0"/>
		<path class="st5" d="M166.9,96.2c0.2,0,0.4,0.1,0.5,0.3c0.1,0.2,0.1,0.4,0.1,0.6c-0.4,1.9-0.8,3.3-1.1,4.4
			c-0.2,0.8-0.5,1.6-0.9,2.3c-0.4,0.8-1.2,1.4-2.1,1.6c-0.2,0.1-0.4,0.1-0.5,0.1c-0.8,0.1-1.6-0.3-2.1-0.9c-0.4-0.5-0.7-1-0.8-1.7
			c-0.2-0.6-0.3-1.2-0.4-1.8c0-0.2,0-0.6-0.1-0.9s-0.1-0.7-0.1-1.1s-0.1-0.7-0.1-0.9s-0.1-0.4-0.1-0.4l-0.2,0.8l-0.2,0.8
			c-0.1,0.4-0.2,0.8-0.3,1.3s-0.2,0.8-0.3,1.2c-0.1,0.2-0.2,0.5-0.3,0.9s-0.3,0.8-0.4,1.1s-0.3,0.7-0.4,1s-0.2,0.5-0.3,0.6
			c-0.2,0.3-0.4,0.4-0.8,0.5c-0.3,0.1-0.6,0-0.9-0.1c-0.5-0.2-0.9-0.6-1.2-1.1c-0.2-0.5-0.4-1-0.4-1.5c-0.1-1.1-0.1-2.1,0-3.2
			c0-0.8,0.1-1.6,0.3-2.3c0.2-0.8,0.4-1.5,0.5-2.3c0.2-0.6,0.4-1.3,0.6-1.9c0.3-0.6,0.5-1.2,0.9-1.8c0.3-0.5,0.6-0.9,1.1-1.2
			c0.5-0.3,1-0.5,1.6-0.6h0.5h0.5c0.2,0,0.3-0.2,0.4-0.3c0-0.2,0.1-0.3,0.2-0.4c0.1-0.3,0.2-0.5,0.4-0.8c0.2-0.2,0.4-0.4,0.6-0.6
			c0.2-0.1,0.3-0.2,0.5-0.2c0.2,0,0.5,0,0.7,0h0.6h0.3c0.4-0.1,0.8,0.1,1,0.5c0,0,0,0.1,0,0.1c0,0.2,0,0.4,0,0.6c0,0.3,0,0.6,0,0.9
			s0,0.6-0.1,0.9s0,0.5-0.1,0.6s-0.1,0.3-0.1,0.8l-0.2,1.4c-0.1,0.5-0.1,1.1-0.2,1.7s-0.1,1.2-0.2,1.8s-0.1,1.1-0.2,1.5
			c0,0.3-0.1,0.6-0.1,0.9c0,0.1,0,0.4,0,0.8s0,0.9,0,1.4c0,0.5,0.1,0.9,0.1,1.4c0.1,0.4,0.2,0.7,0.4,0.7c0.3,0,0.6-0.3,1-0.9
			c0.5-0.7,1.1-2.8,1.8-6.3c0-0.2,0.2-0.4,0.3-0.5c0.2-0.1,0.4-0.2,0.6-0.1 M155.5,100.6c0.1,0.1,0.2,0,0.4-0.3
			c0.2-0.4,0.4-0.8,0.6-1.2c0.2-0.5,0.5-1.1,0.7-1.7s0.5-1.3,0.7-2s0.5-1.4,0.7-2s0.4-1.3,0.5-1.8c-0.6-0.3-1.4-0.2-1.8,0.3
			c-0.3,0.3-0.5,0.6-0.6,1c-0.1,0.4-0.3,0.7-0.5,1.1c-0.1,0.2-0.2,0.4-0.3,0.6c-0.1,0.3-0.2,0.5-0.2,0.8s-0.1,0.5-0.2,0.7
			c0,0.1-0.1,0.2-0.1,0.4l0,0c-0.1,0.6-0.3,1.2-0.3,1.8c0,0.5,0,0.9,0,1.4C155.1,100.1,155.3,100.4,155.5,100.6"/>
		<path class="st5" d="M175.9,96.2c0.2,0,0.4,0.1,0.5,0.3c0.1,0.1,0.2,0.3,0.2,0.5c0,0.2,0,0.6-0.1,1.3c-0.1,0.7-0.2,1.4-0.3,2.3
			s-0.3,1.9-0.6,2.9c-0.2,1-0.5,2-0.8,3c-0.3,0.9-0.7,1.8-1.2,2.6c-0.4,0.7-0.9,1.2-1.6,1.7c-0.4,0.3-0.9,0.4-1.4,0.4
			c-0.9-0.2-1.7-0.8-2.3-1.5c-0.6-0.8-1.1-1.6-1.4-2.5c-0.4-1-0.6-2.1-0.7-3.1c-0.1-1-0.2-2.1-0.2-3.2c0-0.2,0-0.3,0-0.5
			s0-0.3,0-0.5v-1.1l0.1-1c0-0.3,0-0.6,0.1-0.9s0-0.6,0-0.8c0-0.1,0-0.2,0-0.3v-0.2c0-0.6,0-1.2,0.1-1.8c0.1-0.6,0.1-1.2,0.2-1.8
			c0.1-1,0.3-1.9,0.5-2.9c0.2-1,0.4-1.9,0.7-2.9c0.2-0.6,0.4-1.3,0.5-1.9c0.2-0.6,0.4-1.2,0.6-1.8c0.3-0.8,0.7-1.6,1.2-2.3
			c0.5-0.7,1-1.4,1.6-2c0.1-0.1,0.3-0.2,0.4-0.3l0.7-0.4l0.6-0.3c0.1-0.1,0.2-0.1,0.4-0.2c0.1,0,0.2,0,0.3,0c0.1,0,0.3,0,0.4,0.1
			c0.1,0,0.3,0.1,0.4,0.2c0.1,0,0.2,0.1,0.2,0.2c0.1,0.1,0.2,0.2,0.3,0.3c0.1,0.1,0.2,0.2,0.3,0.2c0.4,0.2,0.6,0.4,0.8,0.8
			c0.1,0.3,0.2,0.7,0.1,1.1c0,0.6-0.1,1.2-0.3,1.8c-0.2,0.6-0.4,1.2-0.7,1.7c-0.2,0.5-0.4,1-0.7,1.5c-0.2,0.4-0.4,0.8-0.6,1.2
			l-0.6,1.2l-0.4,0.6c-0.1,0.2-0.2,0.4-0.4,0.6c-0.2,0.4-0.4,0.7-0.6,1.1s-0.4,0.7-0.6,1c-0.1,0.2-0.2,0.3-0.3,0.5l-0.4,0.5
			c-0.2,0.2-0.3,0.5-0.4,0.7c0,0.3-0.1,0.5-0.1,0.8s-0.1,0.7-0.1,1.1s-0.1,0.7-0.1,1s-0.1,0.6-0.2,0.9c-0.1,0.3-0.1,0.6-0.1,0.9
			c0,0.5,0,1,0,1.5s0,1,0.1,1.5c0,0.7,0.1,1.4,0.2,2.2c0,0.3,0.1,0.7,0.1,1s0.1,0.7,0.2,1s0.2,0.9,0.3,1.4s0.2,0.9,0.3,1.3
			c0,0.1,0.1,0.2,0.1,0.4s0.1,0.3,0.1,0.4c0.1,0.2,0.1,0.3,0.2,0.4c0.1,0.1,0.2,0.2,0.3,0.3c0.1,0,0.2,0,0.3,0
			c0.2-0.1,0.3-0.2,0.4-0.4c0.1-0.2,0.2-0.4,0.4-0.6c0.1-0.3,0.3-0.5,0.4-0.8c0-0.2,0.1-0.3,0.1-0.4l0.1-0.3
			c0.2-0.4,0.3-0.9,0.4-1.5s0.3-1.1,0.4-1.8s0.3-1.5,0.4-2.2s0.2-1.3,0.2-1.8s0.1-1.1,0.2-1.8c0-0.2,0.1-0.4,0.3-0.5
			c0.2-0.1,0.4-0.2,0.6-0.2 M171.6,86.1c-0.1,0.5-0.2,0.9-0.3,1.3l-0.3,1.4l0,0l0.3-0.4c0.1-0.1,0.2-0.3,0.3-0.4l1-1.8
			c0.3-0.6,0.7-1.2,1-1.8s0.8-1.4,1.1-2.1c0.3-0.7,0.5-1.5,0.7-2.2c0.2-0.6-0.2-1.2-0.8-1.4c-0.1-0.1-0.3-0.1-0.4,0.1
			c0,0,0,0.1,0,0.1c-0.1,0.1-0.2,0.2-0.3,0.4c-0.1,0.1-0.2,0.2-0.3,0.3c-0.1,0.2-0.3,0.4-0.4,0.6c-0.2,0.2-0.3,0.3-0.4,0.6
			c-0.2,0.5-0.3,1-0.4,1.4c-0.1,0.5-0.2,1-0.3,1.5c-0.1,0.4-0.2,0.8-0.2,1.2C171.6,85.3,171.6,85.7,171.6,86.1"/>
		<path class="st5" d="M122.5,96.6c-0.1-0.2-0.3-0.3-0.4-0.3c-0.2-0.1-0.4,0-0.6,0.1c-0.2,0.1-0.3,0.3-0.3,0.5
			c-0.2,0.7-0.4,1.5-0.6,2.2c-0.2,0.7-0.5,1.4-0.7,1.9s-0.5,1-0.7,1.3c-0.1,0.1-0.1,0.3-0.2,0.4c-0.8,0.9-0.8,1.6-0.1,1.7l0.3-0.1
			c0.2-0.1,0.3-0.2,0.5-0.3c0.2-0.2,0.4-0.4,0.6-0.6c0.3-0.4,0.5-0.8,0.7-1.2c0.2-0.5,0.5-1.1,0.8-1.9c0.1-0.4,0.3-0.8,0.4-1.1
			l0.3-1c0.1-0.3,0.1-0.5,0.2-0.7c0-0.2,0.1-0.3,0.1-0.3C122.6,96.9,122.6,96.7,122.5,96.6"/>
	</g>
</g>
</svg>
