<svg id="Capa_1" data-name="Capa 1" xmlns="http://www.w3.org/2000/svg" viewBox="0 0 258.26 150.36"><defs><style>.cls-1{fill:#e7344d;}.cls-2{fill:#f9f7d3;}</style></defs><rect class="cls-1" x="0.99" y="-9.62" width="257.27" height="169.59"/><path class="cls-2" d="M103.05,13.62a25.31,25.31,0,0,1,2.61,4.85,16.53,16.53,0,0,1,1.2,6,9.56,9.56,0,0,1-2.54,7.07l0,0a9.9,9.9,0,0,1-4.72,2.55c-.42.25-.35-.35-.59-.77s.14-.8.55-1a6.75,6.75,0,0,0,3.53-2,7.8,7.8,0,0,0,2-5.86c0-6.14-4.75-11.68-6.44-13.47a29.52,29.52,0,0,0-3,3.67c-1.59,2.34-3.48,5.95-3.48,9.79a7.81,7.81,0,0,0,2,5.87,8.32,8.32,0,0,0,3.52,1.92V18.93a.87.87,0,1,1,1.74,0v20a.87.87,0,0,1-.25.62.87.87,0,0,1-1.49-.62V34l-.34-.11a10.18,10.18,0,0,1-4.41-2.4,9.55,9.55,0,0,1-2.57-7.11,16.31,16.31,0,0,1,1.2-6,24.83,24.83,0,0,1,2.61-4.86,28.57,28.57,0,0,1,3.79-4.53.87.87,0,0,1,1.23,0l0,0a29.86,29.86,0,0,1,3.71,4.47"/><path class="cls-2" d="M87.55,107.17h16.28v-30a2.39,2.39,0,0,1,2.4-2.4h8.36l-7.86-7a2.38,2.38,0,0,1-.79-1.77V45.22H91.08v3a2.39,2.39,0,0,1-4,1.77L76.86,40.5,40.15,73.76h7a2.39,2.39,0,0,1,2.4,2.39v31h18V90.64a2.41,2.41,0,0,1,2.4-2.4H83.78a2.4,2.4,0,0,1,2.4,2.4v16.53Zm17.65,3.43h-20a2.39,2.39,0,0,1-2.4-2.4V91.68H71V108.2a2.39,2.39,0,0,1-2.39,2.4H48.51a2.4,2.4,0,0,1-2.4-2.4V78.55H40.27a4.18,4.18,0,0,1-2.82-7.27L74,37.94a4.16,4.16,0,0,1,5.63,0L88,45.52V44.19a2.4,2.4,0,0,1,2.4-2.4H107a2.39,2.39,0,0,1,2.39,2.4V65l6.89,6.28a4.18,4.18,0,0,1-2.81,7.27H107.6V108.2a2.39,2.39,0,0,1-2.4,2.4"/><path class="cls-2" d="M61.7,75.39c.94,0,1.71-1.12,1.71-2.5s-.77-2.49-1.71-2.49S60,71.52,60,72.89s.76,2.5,1.71,2.5"/><ellipse class="cls-2" cx="61.7" cy="72.89" rx="1.71" ry="2.49"/><path class="cls-2" d="M91.88,75.44c1,0,1.85-1.2,1.85-2.68s-.83-2.69-1.85-2.69S90,71.28,90,72.76s.83,2.68,1.85,2.68"/><path class="cls-2" d="M91.88,75.44c1,0,1.85-1.2,1.85-2.68s-.83-2.69-1.85-2.69S90,71.28,90,72.76,90.86,75.44,91.88,75.44Z"/><path class="cls-2" d="M69.09,77c.87,5.33,13.57,6.15,15.55.21.42-1.22-1.44-2-1.85-.73a1.08,1.08,0,0,1-.15.31,4.29,4.29,0,0,1-.78.94,7.56,7.56,0,0,1-5,1.49,7.2,7.2,0,0,1-4.82-1.44,2.74,2.74,0,0,1-.9-1.3c-.35-1.23-2.47-.7-2.12.53Z"/><path class="cls-2" d="M118.32,103.21v7.06h-2V92.8H121c3.39,0,6.14,1.42,6.14,5a5.11,5.11,0,0,1-3.53,5l4,7.5h-2.39l-3.52-7.12c-.23,0-.72.06-1,.06Zm2.43-8.81h-2.43v7.15h2.43c2.64,0,4.3-1.22,4.3-3.7S123.42,94.4,120.75,94.4Z"/><path class="cls-2" d="M131.45,110.27V92.8h9.66v1.73h-7.67v6h6.09l-.26,1.76h-5.83v6.32h7.67v1.65Z"/><path class="cls-2" d="M152.16,110.53c-4.76,0-7.14-3.62-7.14-9.08,0-5.65,2.74-8.91,7.2-8.91A9.64,9.64,0,0,1,157.6,94l-.78,1.61a7.88,7.88,0,0,0-4.5-1.27c-3.57,0-5.23,2.85-5.23,7.07,0,4.5,1.73,7.4,5.18,7.4a8,8,0,0,0,4.81-1.65l.62,1.6A9.38,9.38,0,0,1,152.16,110.53Z"/><path class="cls-2" d="M162.26,110.27h-1.94l4.79-17.47h4.27l4.43,17.47h-2.17l-1.06-4.45H163.4Zm4.15-15.76-2.59,9.6h6.37l-2.31-9.6Z"/><path class="cls-2" d="M192.69,110.27l-.52-15.56h-.08c-.28,1.17-.9,3.08-1.16,3.89l-3.73,11.67h-2.51l-3.52-11.7c-.18-.57-.93-3-1.17-3.86h-.08l-.49,15.56h-1.89l.68-17.47h3.44s3.86,12.68,4.45,15.48h0c.68-2.77,4.72-15.48,4.72-15.48h3.28l.68,17.47Z"/><path class="cls-2" d="M205,110.53a12.82,12.82,0,0,1-5.1-.9V92.8h4.54C208,92.8,210,94.53,210,97a4.05,4.05,0,0,1-2.88,4.19v.08a4.31,4.31,0,0,1,3.84,4.12C211,108.49,208.36,110.53,205,110.53Zm-.56-16.08h-2.54v6.19h2.56c2.49,0,3.5-1.29,3.5-3.44C207.92,95.33,206.6,94.45,204.4,94.45Zm.2,7.75h-2.74v6.18a8.47,8.47,0,0,0,3.1.55c2.26,0,3.91-1.3,3.91-3.52C208.87,103.46,207.63,102.2,204.6,102.2Z"/><path class="cls-2" d="M215.63,110.27V92.8h2v17.47Z"/><path class="cls-2" d="M229.64,110.53c-5,0-6.83-4.22-6.83-9.14,0-4.63,1.71-8.85,6.83-8.85s6.89,4.17,6.89,8.85S234.69,110.53,229.64,110.53Zm0-16.31c-3.67,0-4.76,3.65-4.76,7.15,0,3.78.9,7.48,4.76,7.48s4.79-3.6,4.79-7.48C234.43,97.82,233.37,94.22,229.64,94.22Z"/><path class="cls-2" d="M32.75,133.56a4.1,4.1,0,0,1-3,1.48c-2.4,0-4-1.85-4-5.28,0-2.94,1.35-5.19,4.17-5.19a5.24,5.24,0,0,1,2.83.8l-.06-1.63v-3.07h1v14.16H33Zm-.1-7.39a4.76,4.76,0,0,0-2.75-.82c-2.2,0-3.16,1.78-3.16,4.41s.82,4.5,3,4.5a3.88,3.88,0,0,0,2.88-1.48Z"/><path class="cls-2" d="M38.23,130.09c0,2.91,1.46,4.14,3.49,4.14a5.82,5.82,0,0,0,3.22-1.12l.33.74A6.93,6.93,0,0,1,41.66,135c-2.61,0-4.42-1.79-4.42-5.32,0-3.24,1.54-5.15,4.15-5.15s3.88,2.27,3.88,4.8v.72Zm3.1-4.74c-2.2,0-3.1,2-3.1,3.94h6.06C44.29,127.32,43.59,125.35,41.33,125.35Z"/><path class="cls-2" d="M61,135.1c-5.09,0-7.81-3.37-7.81-9.39,0-5.62,2.7-9.2,7.81-9.2A11.4,11.4,0,0,1,67.16,118l-1.34,2.84a7.59,7.59,0,0,0-4.44-1.26c-3,0-4.49,2.12-4.49,6.07,0,4.18,1.49,6.32,4.44,6.32a8.38,8.38,0,0,0,4.76-1.66l1.12,2.83A10.66,10.66,0,0,1,61,135.1Z"/><path class="cls-2" d="M72.32,134.83H68.89l4.9-18.05h5.83l4.73,18.05H80.42l-.94-4.07h-6.2Zm3.58-15-2,8.08h4.92L77,119.85Z"/><path class="cls-2" d="M87.1,134.83V116.78h3.51v15.11H98.2v2.94Z"/><path class="cls-2" d="M100.79,134.83V116.78h11.1v3H104.3v4.44h5.8l-.27,3.1H104.3v4.63h7.59v2.91Z"/><path class="cls-2" d="M118.79,119.75v4.94h5.8l-.26,3.11h-5.54v7h-3.5V116.78h11.1v3Z"/><path class="cls-2" d="M131.41,134.83H128l4.89-18.05h5.83l4.74,18.05h-3.93l-.94-4.07h-6.21Zm3.59-15-2,8.08h4.92l-1.85-8.08Z"/><path class="cls-2" d="M153.31,135.1c-5.08,0-7.81-3.37-7.81-9.39,0-5.62,2.7-9.2,7.81-9.2a11.4,11.4,0,0,1,6.15,1.52l-1.33,2.84a7.59,7.59,0,0,0-4.44-1.26c-3,0-4.5,2.12-4.5,6.07,0,4.18,1.5,6.32,4.44,6.32a8.36,8.36,0,0,0,4.76-1.66l1.13,2.83A10.69,10.69,0,0,1,153.31,135.1Z"/><path class="cls-2" d="M169.25,119.75v15.08h-3.64V119.75h-4.36v-3h12.49v3Z"/><path class="cls-2" d="M183.53,135.1c-6,0-7.68-4.52-7.68-9.44,0-4.74,1.66-9.15,7.68-9.15s7.73,4.36,7.73,9.15S189.49,135.1,183.53,135.1Zm0-15.57c-3.16,0-4,2.86-4,6.1,0,3.58.81,6.53,4,6.53s4-2.89,4-6.53C187.54,122.34,186.69,119.53,183.53,119.53Z"/><path class="cls-2" d="M198.21,134.83h-3.48V116.78h5.81c3.55,0,6.44,1.66,6.44,5.43a5.59,5.59,0,0,1-3.42,5.19c1.26,2.51,2.57,4.92,3.82,7.43h-4.12l-3-6.82c-.81,0-1.34,0-2.09,0ZM200,119.51h-1.76v5.77H200c2.3,0,3.27-1,3.27-3.1S202.09,119.51,200,119.51Z"/><path class="cls-2" d="M210.35,134.83V116.78h11.1v3h-7.6v4.44h5.81l-.27,3.1h-5.54v4.63h7.6v2.91Z"/><path class="cls-2" d="M230,135.1a9.88,9.88,0,0,1-5.88-1.93l1.33-2.75a7.77,7.77,0,0,0,4.6,1.74,2.51,2.51,0,0,0,2.79-2.38c0-3.83-8.35-1.93-8.35-8.3,0-2.72,2.14-5,6.37-5a11.33,11.33,0,0,1,5.37,1.23l-1.17,2.81a8.85,8.85,0,0,0-4.26-1c-1.63,0-2.7.53-2.7,1.87,0,3.24,8.4,2,8.4,8.13C236.53,132.42,234.15,135.1,230,135.1Z"/><path class="cls-2" d="M40.75,96.09A4.54,4.54,0,0,0,41,93.16a4.34,4.34,0,0,0-1.89-2.7,4,4,0,0,0-2-.63s0-.06,0-.08,0-.07,0-.14v-.06l0-.17c0-.13,0-.26,0-.39a4,4,0,0,0-7.92,0c0,.13,0,.26,0,.39l0,.18v.09s0,.06,0,.1,0,0,0,.08A4.28,4.28,0,0,0,25.3,94.2a4.56,4.56,0,0,0,.41,1.89,5.59,5.59,0,0,0-1.79,7.12c.9,1.78,2.64,2.55,4.78,2.55h4v4.48c.14.47,1,.49,1.12,0v-4.48H38a5,5,0,0,0,3.64-1.59,4.76,4.76,0,0,0,1.51-3.5A5.5,5.5,0,0,0,40.75,96.09Zm0,7.49A3.42,3.42,0,0,1,38,104.7H33.83V99.06l0,0,2.73-3a.73.73,0,0,0,.11-.9A.57.57,0,0,0,36,95L33.83,97.4V90.87c0-.25-.32-.45-.56-.45s-.56.2-.56.45V94L30.79,92.1a.59.59,0,0,0-.79,0,.68.68,0,0,0,.05.87l2.66,2.67v5.79l-1.81-1.8a.58.58,0,0,0-.78,0,.78.78,0,0,0,0,.82L32.71,103v1.67h-4c-1.84,0-3-.38-3.74-1.88a4.55,4.55,0,0,1,1.75-6.09.43.43,0,0,0,.19-.26.39.39,0,0,0,0-.32,4.36,4.36,0,0,1-.49-2,3.19,3.19,0,0,1,3.31-3.26h0l.37,0a.38.38,0,0,0,.35-.16.41.41,0,0,0,.06-.4c0-.08,0-.17-.08-.29a2,2,0,0,1-.05-.24l0-.16s0-.09,0-.13,0-.21,0-.32a2.84,2.84,0,0,1,2.95-3,2.76,2.76,0,0,1,2.89,3c0,.1,0,.21,0,.31s0,.08,0,.13v.16c0,.08,0,.16-.06.27a2,2,0,0,1-.08.26.43.43,0,0,0,.06.4.37.37,0,0,0,.36.16l.37,0h0a3,3,0,0,1,1.69.34,3.49,3.49,0,0,1,1.52,2.19A3.6,3.6,0,0,1,39.54,96a.47.47,0,0,0,0,.33.43.43,0,0,0,.2.26,4.66,4.66,0,0,1,2.37,4A3.89,3.89,0,0,1,40.79,103.58Z"/></svg>