<svg xmlns="http://www.w3.org/2000/svg" xmlns:xlink="http://www.w3.org/1999/xlink" viewBox="0 0 600 400"><defs><style>.cls-1{isolation:isolate;}.cls-2{fill:#07589b;}.cls-3{fill:url(#Degradado_sin_nombre_26);}.cls-4{fill:#fff;}.cls-11,.cls-12,.cls-14,.cls-15,.cls-16,.cls-17,.cls-18,.cls-19,.cls-20,.cls-21,.cls-23,.cls-24,.cls-25,.cls-26,.cls-27,.cls-28,.cls-29,.cls-30,.cls-31,.cls-32,.cls-33,.cls-35,.cls-36,.cls-37,.cls-38,.cls-39,.cls-40,.cls-41,.cls-42,.cls-43,.cls-44,.cls-45,.cls-47,.cls-48,.cls-49,.cls-5,.cls-50,.cls-51,.cls-52,.cls-53,.cls-54,.cls-55,.cls-58,.cls-59,.cls-6,.cls-61,.cls-62,.cls-63,.cls-64,.cls-65,.cls-66,.cls-67,.cls-68,.cls-69,.cls-9{mix-blend-mode:color-dodge;}.cls-5{fill:url(#radial-gradient);}.cls-6{fill:url(#radial-gradient-2);}.cls-22,.cls-34,.cls-46,.cls-60,.cls-7{mix-blend-mode:screen;}.cls-7{fill:url(#radial-gradient-3);}.cls-8{opacity:0.8;}.cls-9{fill:url(#radial-gradient-4);}.cls-10{opacity:0.2;}.cls-11{fill:url(#radial-gradient-5);}.cls-12{fill:url(#radial-gradient-6);}.cls-13{opacity:0.5;}.cls-14{fill:url(#radial-gradient-7);}.cls-15{fill:url(#radial-gradient-8);}.cls-16{fill:url(#radial-gradient-9);}.cls-17{fill:url(#radial-gradient-10);}.cls-18{fill:url(#radial-gradient-11);}.cls-19{fill:url(#radial-gradient-12);}.cls-20{fill:url(#radial-gradient-13);}.cls-21{fill:url(#radial-gradient-14);}.cls-22{fill:url(#radial-gradient-15);}.cls-23{fill:url(#radial-gradient-16);}.cls-24{fill:url(#radial-gradient-17);}.cls-25{fill:url(#radial-gradient-18);}.cls-26{fill:url(#radial-gradient-19);}.cls-27{fill:url(#radial-gradient-20);}.cls-28{fill:url(#radial-gradient-21);}.cls-29{fill:url(#radial-gradient-22);}.cls-30{fill:url(#radial-gradient-23);}.cls-31{fill:url(#radial-gradient-24);}.cls-32{fill:url(#radial-gradient-25);}.cls-33{fill:url(#radial-gradient-26);}.cls-34{fill:url(#radial-gradient-27);}.cls-35{fill:url(#radial-gradient-28);}.cls-36{fill:url(#radial-gradient-29);}.cls-37{fill:url(#radial-gradient-30);}.cls-38{fill:url(#radial-gradient-31);}.cls-39{fill:url(#radial-gradient-32);}.cls-40{fill:url(#radial-gradient-33);}.cls-41{fill:url(#radial-gradient-34);}.cls-42{fill:url(#radial-gradient-35);}.cls-43{fill:url(#radial-gradient-36);}.cls-44{fill:url(#radial-gradient-37);}.cls-45{fill:url(#radial-gradient-38);}.cls-46{fill:url(#radial-gradient-39);}.cls-47{fill:url(#radial-gradient-40);}.cls-48{fill:url(#radial-gradient-41);}.cls-49{fill:url(#radial-gradient-42);}.cls-50{fill:url(#radial-gradient-43);}.cls-51{fill:url(#radial-gradient-44);}.cls-52{fill:url(#radial-gradient-45);}.cls-53{fill:url(#radial-gradient-46);}.cls-54{fill:url(#radial-gradient-47);}.cls-55{fill:url(#radial-gradient-48);}.cls-56{fill:#1366b0;}.cls-57{fill:#df1b35;}.cls-58{fill:url(#radial-gradient-49);}.cls-59{fill:url(#radial-gradient-50);}.cls-60{fill:url(#radial-gradient-51);}.cls-61{fill:url(#radial-gradient-52);}.cls-62{fill:url(#radial-gradient-53);}.cls-63{fill:url(#radial-gradient-54);}.cls-64{fill:url(#radial-gradient-55);}.cls-65{fill:url(#radial-gradient-56);}.cls-66{fill:url(#radial-gradient-57);}.cls-67{fill:url(#radial-gradient-58);}.cls-68{fill:url(#radial-gradient-59);}.cls-69{fill:url(#radial-gradient-60);}</style><linearGradient id="Degradado_sin_nombre_26" x1="30" y1="-70" x2="569.81" y2="469.81" gradientUnits="userSpaceOnUse"><stop offset="0" stop-color="#27348b" stop-opacity="0"/><stop offset="1" stop-color="#27348b"/></linearGradient><radialGradient id="radial-gradient" cx="204.29" cy="25.13" r="12.42" gradientTransform="matrix(1.27, 1, -1, 1.27, 204.69, 5.78)" gradientUnits="userSpaceOnUse"><stop offset="0" stop-color="#fff"/><stop offset="0.04" stop-color="#f2f2f1" stop-opacity="0.94"/><stop offset="0.25" stop-color="#afaead" stop-opacity="0.66"/><stop offset="0.45" stop-color="#787673" stop-opacity="0.43"/><stop offset="0.63" stop-color="#4c4b47" stop-opacity="0.24"/><stop offset="0.78" stop-color="#2d2b27" stop-opacity="0.11"/><stop offset="0.91" stop-color="#1a1813" stop-opacity="0.03"/><stop offset="1" stop-color="#13110c" stop-opacity="0"/></radialGradient><radialGradient id="radial-gradient-2" cx="204.29" cy="25.13" r="22.34" gradientTransform="translate(115.88 163.32) rotate(6.62) scale(1.62)" xlink:href="#radial-gradient"/><radialGradient id="radial-gradient-3" cx="804.45" cy="-201.59" r="5.34" gradientTransform="matrix(0, 1.65, -1.62, 0, 113.28, -1086.59)" gradientUnits="userSpaceOnUse"><stop offset="0" stop-color="#fff"/><stop offset="0.08" stop-color="#fafafa" stop-opacity="0.98"/><stop offset="0.19" stop-color="#ececec" stop-opacity="0.92"/><stop offset="0.3" stop-color="#d6d5d4" stop-opacity="0.83"/><stop offset="0.42" stop-color="#b6b5b4" stop-opacity="0.69"/><stop offset="0.54" stop-color="#8d8c8a" stop-opacity="0.52"/><stop offset="0.67" stop-color="#5b5a56" stop-opacity="0.3"/><stop offset="0.8" stop-color="#211f1a" stop-opacity="0.06"/><stop offset="0.83" stop-color="#13110c" stop-opacity="0"/></radialGradient><radialGradient id="radial-gradient-4" cx="5070.62" cy="-427.88" r="8.08" gradientTransform="matrix(0.13, 0.11, -3.39, 4.16, -1671.81, 1485.02)" gradientUnits="userSpaceOnUse"><stop offset="0" stop-color="#fff"/><stop offset="0.13" stop-color="#fcfcfb" stop-opacity="0.99"/><stop offset="0.26" stop-color="#f1f1f1" stop-opacity="0.94"/><stop offset="0.38" stop-color="#dfdfde" stop-opacity="0.87"/><stop offset="0.51" stop-color="#c7c6c5" stop-opacity="0.76"/><stop offset="0.63" stop-color="#a7a6a4" stop-opacity="0.63"/><stop offset="0.75" stop-color="#7f7e7b" stop-opacity="0.46"/><stop offset="0.87" stop-color="#514f4c" stop-opacity="0.26"/><stop offset="0.98" stop-color="#1c1a16" stop-opacity="0.04"/><stop offset="1" stop-color="#13110c" stop-opacity="0"/></radialGradient><radialGradient id="radial-gradient-5" cx="7324.16" cy="-494.04" r="4.5" gradientTransform="matrix(0.04, 0.15, -5.4, 1.58, -2557.59, -98.53)" xlink:href="#radial-gradient-4"/><radialGradient id="radial-gradient-6" cx="474.68" cy="-636.35" r="4.5" gradientTransform="matrix(-0.15, 0.04, -1.58, -5.4, -493.46, -3218.25)" xlink:href="#radial-gradient-4"/><radialGradient id="radial-gradient-7" cx="7208.66" cy="-530.37" r="5.71" gradientTransform="matrix(0, 0.16, -5.63, -0.15, -2514.4, -987.37)" xlink:href="#radial-gradient-4"/><radialGradient id="radial-gradient-8" cx="-819.57" cy="-632.87" r="5.71" gradientTransform="matrix(0, -0.16, 5.63, 0, 4000.96, 110.78)" xlink:href="#radial-gradient-4"/><radialGradient id="radial-gradient-9" cx="5037.12" cy="-570.63" r="4.5" gradientTransform="matrix(-0.12, 0.24, -5.05, -2.48, -1854.92, -2374.07)" xlink:href="#radial-gradient-4"/><radialGradient id="radial-gradient-10" cx="-754.97" cy="-604.1" r="4.5" gradientTransform="matrix(-0.3, -0.15, 2.48, -5.05, 1711.08, -2922.25)" xlink:href="#radial-gradient-4"/><radialGradient id="radial-gradient-11" cx="6991.17" cy="-443.49" r="3.53" gradientTransform="matrix(0.11, 0.12, -4.22, 3.73, -2170.57, 1058.78)" xlink:href="#radial-gradient-4"/><radialGradient id="radial-gradient-12" cx="2238.82" cy="-626.96" r="3.53" gradientTransform="matrix(-0.12, 0.11, -3.73, -4.22, -1630.12, -2640.41)" xlink:href="#radial-gradient-4"/><radialGradient id="radial-gradient-13" cx="179" cy="-70.04" r="12.42" gradientTransform="matrix(1.27, 1, -1, 1.27, 82.9, 4.1)" xlink:href="#radial-gradient"/><radialGradient id="radial-gradient-14" cx="179" cy="-70.04" r="22.34" gradientTransform="translate(79.87 172.96) rotate(6.62) scale(1.62)" xlink:href="#radial-gradient"/><radialGradient id="radial-gradient-15" cx="721.03" cy="-251" r="5.34" gradientTransform="matrix(0, 1.65, -1.62, 0, -25.43, -1096.77)" xlink:href="#radial-gradient-3"/><radialGradient id="radial-gradient-16" cx="4240.2" cy="-442.28" r="8.08" xlink:href="#radial-gradient-4"/><radialGradient id="radial-gradient-17" cx="6329.35" cy="-491.35" r="4.5" gradientTransform="matrix(0.04, 0.15, -5.4, 1.58, -2557.59, -98.53)" xlink:href="#radial-gradient-4"/><radialGradient id="radial-gradient-18" cx="569.19" cy="-608.21" r="4.5" gradientTransform="matrix(-0.15, 0.04, -1.58, -5.4, -493.46, -3218.25)" xlink:href="#radial-gradient-4"/><radialGradient id="radial-gradient-19" cx="6290.59" cy="-519.2" r="5.71" gradientTransform="matrix(0, 0.16, -5.63, -0.15, -2514.4, -987.37)" xlink:href="#radial-gradient-4"/><radialGradient id="radial-gradient-20" cx="-424.74" cy="-606.9" r="5.71" gradientTransform="matrix(0, -0.16, 5.63, 0, 3795.89, 25.8)" xlink:href="#radial-gradient-4"/><radialGradient id="radial-gradient-21" cx="4634.79" cy="-549.66" r="4.5" gradientTransform="matrix(-0.12, 0.24, -5.05, -2.48, -1854.92, -2374.07)" xlink:href="#radial-gradient-4"/><radialGradient id="radial-gradient-22" cx="-401.26" cy="-585.13" r="4.5" gradientTransform="matrix(-0.3, -0.15, 2.48, -5.05, 1711.08, -2922.25)" xlink:href="#radial-gradient-4"/><radialGradient id="radial-gradient-23" cx="6051.25" cy="-453.05" r="3.53" gradientTransform="matrix(0.11, 0.12, -4.22, 3.73, -2170.57, 1058.78)" xlink:href="#radial-gradient-4"/><radialGradient id="radial-gradient-24" cx="1901.67" cy="-600.36" r="3.53" gradientTransform="matrix(-0.12, 0.11, -3.73, -4.22, -1630.12, -2640.41)" xlink:href="#radial-gradient-4"/><radialGradient id="radial-gradient-25" cx="264.75" cy="-16.38" r="12.42" gradientTransform="matrix(1.27, 1, -1, 1.27, 175.46, -80.09)" xlink:href="#radial-gradient"/><radialGradient id="radial-gradient-26" cx="264.75" cy="-16.38" r="22.34" gradientTransform="translate(100.13 140.46) rotate(6.62) scale(1.62)" xlink:href="#radial-gradient"/><radialGradient id="radial-gradient-27" cx="817.57" cy="-273.7" r="5.34" gradientTransform="matrix(0, 1.65, -1.62, 0, 85.8, -1186.46)" xlink:href="#radial-gradient-3"/><radialGradient id="radial-gradient-28" cx="5187.47" cy="-449.65" r="8.08" xlink:href="#radial-gradient-4"/><radialGradient id="radial-gradient-29" cx="7009.51" cy="-513.12" r="4.5" gradientTransform="matrix(0.04, 0.15, -5.4, 1.58, -2557.59, -98.53)" xlink:href="#radial-gradient-4"/><radialGradient id="radial-gradient-30" cx="-199.73" cy="-627.45" r="4.5" gradientTransform="matrix(-0.15, 0.04, -1.58, -5.4, -493.46, -3218.25)" xlink:href="#radial-gradient-4"/><radialGradient id="radial-gradient-31" cx="6702.45" cy="-545.8" r="5.71" gradientTransform="matrix(0, 0.16, -5.63, -0.15, -2514.4, -987.37)" xlink:href="#radial-gradient-4"/><radialGradient id="radial-gradient-32" cx="-1365.16" cy="-618.54" r="5.71" gradientTransform="matrix(0, -0.16, 5.63, 0, 4009.39, -54.32)" xlink:href="#radial-gradient-4"/><radialGradient id="radial-gradient-33" cx="4624.71" cy="-578.7" r="4.5" gradientTransform="matrix(-0.12, 0.24, -5.05, -2.48, -1854.92, -2374.07)" xlink:href="#radial-gradient-4"/><radialGradient id="radial-gradient-34" cx="-891.23" cy="-584.65" r="4.5" gradientTransform="matrix(-0.3, -0.15, 2.48, -5.05, 1711.08, -2922.25)" xlink:href="#radial-gradient-4"/><radialGradient id="radial-gradient-35" cx="6993.08" cy="-464.55" r="3.53" gradientTransform="matrix(0.11, 0.12, -4.22, 3.73, -2170.57, 1058.78)" xlink:href="#radial-gradient-4"/><radialGradient id="radial-gradient-36" cx="1495.17" cy="-627.03" r="3.53" gradientTransform="matrix(-0.12, 0.11, -3.73, -4.22, -1630.12, -2640.41)" xlink:href="#radial-gradient-4"/><radialGradient id="radial-gradient-37" cx="210.14" cy="-27.47" r="12.42" gradientTransform="matrix(1.27, 1, -1, 1.27, 144, -18.76)" xlink:href="#radial-gradient"/><radialGradient id="radial-gradient-38" cx="210.14" cy="-27.47" r="22.34" gradientTransform="translate(95.96 161.14) rotate(6.62) scale(1.62)" xlink:href="#radial-gradient"/><radialGradient id="radial-gradient-39" cx="772.08" cy="-242.92" r="5.34" gradientTransform="matrix(0, 1.65, -1.62, 0, 45.77, -1118.68)" xlink:href="#radial-gradient-3"/><radialGradient id="radial-gradient-40" cx="4744.52" cy="-440.13" r="8.08" xlink:href="#radial-gradient-4"/><radialGradient id="radial-gradient-41" cx="6807.41" cy="-498.17" r="4.5" gradientTransform="matrix(0.04, 0.15, -5.4, 1.58, -2557.59, -98.53)" xlink:href="#radial-gradient-4"/><radialGradient id="radial-gradient-42" cx="328.44" cy="-621.73" r="4.5" gradientTransform="matrix(-0.15, 0.04, -1.58, -5.4, -493.46, -3218.25)" xlink:href="#radial-gradient-4"/><radialGradient id="radial-gradient-43" cx="6671.92" cy="-529.83" r="5.71" gradientTransform="matrix(0, 0.16, -5.63, -0.15, -2514.4, -987.37)" xlink:href="#radial-gradient-4"/><radialGradient id="radial-gradient-44" cx="-800.42" cy="-617.68" r="5.71" gradientTransform="matrix(0, -0.16, 5.63, 0, 3914.77, 28.31)" xlink:href="#radial-gradient-4"/><radialGradient id="radial-gradient-45" cx="4749.05" cy="-563.82" r="4.5" gradientTransform="matrix(-0.12, 0.24, -5.05, -2.48, -1854.92, -2374.07)" xlink:href="#radial-gradient-4"/><radialGradient id="radial-gradient-46" cx="-640.06" cy="-590.52" r="4.5" gradientTransform="matrix(-0.3, -0.15, 2.48, -5.05, 1711.08, -2922.25)" xlink:href="#radial-gradient-4"/><radialGradient id="radial-gradient-47" cx="6585.91" cy="-453.46" r="3.53" gradientTransform="matrix(0.11, 0.12, -4.22, 3.73, -2170.57, 1058.78)" xlink:href="#radial-gradient-4"/><radialGradient id="radial-gradient-48" cx="1887.03" cy="-615.49" r="3.53" gradientTransform="matrix(-0.12, 0.11, -3.73, -4.22, -1630.12, -2640.41)" xlink:href="#radial-gradient-4"/><radialGradient id="radial-gradient-49" cx="114.71" cy="53.33" r="12.42" gradientTransform="matrix(1.27, 1, -1, 1.27, 208.35, 121.88)" xlink:href="#radial-gradient"/><radialGradient id="radial-gradient-50" cx="114.71" cy="53.33" r="22.34" gradientTransform="translate(126.62 197.21) rotate(6.62) scale(1.62)" xlink:href="#radial-gradient"/><radialGradient id="radial-gradient-51" cx="761.96" cy="-118.3" r="5.34" gradientTransform="matrix(0, 1.65, -1.62, 0, 109.56, -953.99)" xlink:href="#radial-gradient-3"/><radialGradient id="radial-gradient-52" cx="4666.28" cy="-402.58" r="8.08" xlink:href="#radial-gradient-4"/><radialGradient id="radial-gradient-53" cx="7457.11" cy="-467.34" r="4.5" gradientTransform="matrix(0.04, 0.15, -5.4, 1.58, -2557.59, -98.53)" xlink:href="#radial-gradient-4"/><radialGradient id="radial-gradient-54" cx="1418.39" cy="-640.13" r="4.5" gradientTransform="matrix(-0.15, 0.04, -1.58, -5.4, -493.46, -3218.25)" xlink:href="#radial-gradient-4"/><radialGradient id="radial-gradient-55" cx="7624.42" cy="-506.11" r="5.71" gradientTransform="matrix(0, 0.16, -5.63, -0.15, -2514.4, -987.37)" xlink:href="#radial-gradient-4"/><radialGradient id="radial-gradient-56" cx="38.06" cy="-644.63" r="5.71" gradientTransform="matrix(0, -0.16, 5.63, 0, 3928.85, 309.83)" xlink:href="#radial-gradient-4"/><radialGradient id="radial-gradient-57" cx="5478.09" cy="-553.47" r="4.5" gradientTransform="matrix(-0.12, 0.24, -5.05, -2.48, -1854.92, -2374.07)" xlink:href="#radial-gradient-4"/><radialGradient id="radial-gradient-58" cx="-465.3" cy="-624.89" r="4.5" gradientTransform="matrix(-0.3, -0.15, 2.48, -5.05, 1711.08, -2922.25)" xlink:href="#radial-gradient-4"/><radialGradient id="radial-gradient-59" cx="6710.5" cy="-417.73" r="3.53" gradientTransform="matrix(0.11, 0.12, -4.22, 3.73, -2170.57, 1058.78)" xlink:href="#radial-gradient-4"/><radialGradient id="radial-gradient-60" cx="3148.84" cy="-619.01" r="3.53" gradientTransform="matrix(-0.12, 0.11, -3.73, -4.22, -1630.12, -2640.41)" xlink:href="#radial-gradient-4"/></defs><g class="cls-1"><g id="Capa_1" data-name="Capa 1"><polygon class="cls-2" points="618.07 421.55 -18.07 421.93 -18.07 -21.93 618.07 -21.93 618.07 421.55"/><polygon class="cls-3" points="618.07 421.55 -18.07 421.93 -18.07 -21.93 618.07 -21.93 618.07 421.55"/><path class="cls-4" d="M379.76,92.56c-2.71,3.87-5.29,7.82-7.79,11.83s-4.92,8-7.33,12.09-4.64,8.21-6.88,12.36-4.41,8.32-6.5,12.54-4.15,8.44-6.13,12.71L339.36,167c-3.58,8.7-7.17,17.39-10.24,26.27l-2.41,6.62c-.81,2.2-1.43,4.47-2.15,6.71L320.39,220l-3.59,13.61c-.56,2.28-1.27,4.52-1.72,6.82l-1.43,6.89c-4.19,18.3-6.29,37-7.82,55.65l-3.8-2.49a325.5,325.5,0,0,1,34.45-13.85,321.49,321.49,0,0,1,35.71-9.87,222.67,222.67,0,0,1,36.72-4.71,178.36,178.36,0,0,1,18.5.32,128.51,128.51,0,0,1,18.24,2.78,154.26,154.26,0,0,0-18.3-1.6,177.54,177.54,0,0,0-18.31.65c-6.08.57-12.12,1.42-18.13,2.41s-12,2.33-17.9,3.77a333.42,333.42,0,0,0-35,10.67,336.85,336.85,0,0,0-33.65,14.12l-4.15,2,.36-4.52c1.48-19,3.38-38,7.81-56.49l1.5-7c.46-2.33,1.2-4.6,1.78-6.9l3.74-13.77L319.87,205c.77-2.25,1.43-4.53,2.29-6.75l2.53-6.66A393.22,393.22,0,0,1,348.56,140c2.25-4.17,4.7-8.24,7.08-12.33s5-8,7.55-12A274,274,0,0,1,379.76,92.56Z"/><path class="cls-4" d="M391.8,143.93c-3.48,9-6.91,18-10.17,27.12s-6.35,18.21-9.24,27.39a265.3,265.3,0,0,0-7.34,27.76A66.86,66.86,0,0,0,363.62,240c.07,2.18.51,4.42,1.37,5.55a2,2,0,0,0,1.45.85,5.14,5.14,0,0,0,2.35-.34,20.26,20.26,0,0,0,5.44-3.31,60.16,60.16,0,0,0,5.13-4.65,137,137,0,0,0,9.41-10.63c6-7.41,11.51-15.28,17-23.18s10.65-16,15.75-24.17,10.17-16.37,15-24.66l4.17,2.19c-3.62,7.43-7.23,14.93-10.68,22.48s-6.84,15.14-10,22.8-6.31,15.35-8.91,23.22a102.4,102.4,0,0,0-3.27,12,35.25,35.25,0,0,0-.73,6.13,11,11,0,0,0,.35,3,3.94,3.94,0,0,0,1.73,2.45,4.06,4.06,0,0,1-2-2.37,11,11,0,0,1-.61-3.1,31.57,31.57,0,0,1,.28-6.3,100.62,100.62,0,0,1,2.58-12.3c2.17-8.08,4.79-16,7.69-23.86s6-15.61,9.22-23.29,6.55-15.34,10.11-22.93l4.17,2.19c-9.46,16.93-19.51,33.47-30.37,49.56-5.42,8-11.14,15.91-17.31,23.49a141.19,141.19,0,0,1-9.85,11,59.3,59.3,0,0,1-5.67,5,25.17,25.17,0,0,1-7,4,10,10,0,0,1-4.77.46,7,7,0,0,1-4.55-2.82,11,11,0,0,1-1.76-4.26,21,21,0,0,1-.42-4,64.77,64.77,0,0,1,1.87-14.88,239,239,0,0,1,8.42-27.95c3.26-9.13,6.84-18.12,10.65-27S387.54,152.61,391.8,143.93Z"/><path class="cls-4" d="M452.28,169.32a36.89,36.89,0,0,0,9.31,2.24,80.41,80.41,0,0,0,9.55.6,120.44,120.44,0,0,0,19.06-1.49c3.16-.37,6.29-1.06,9.43-1.57s6.25-1.33,9.35-2l9.27-2.4,9.19-2.69,1.51,4c-8.83,4.54-17.55,9.56-26,14.89A295.25,295.25,0,0,0,478.5,198a171.34,171.34,0,0,0-21.7,20.23c-6.5,7.36-12,15.62-15.14,24.68l-3.55-3a245.18,245.18,0,0,1,25.35-10.49,198.53,198.53,0,0,1,26.39-7.38c9-1.76,18.17-2.91,27.36-2.1a49.48,49.48,0,0,1,13.44,2.88,28.83,28.83,0,0,1,11.3,7.55,29.9,29.9,0,0,0-11.66-6.53,48.2,48.2,0,0,0-13.18-1.94,78.58,78.58,0,0,0-13.35.92,120.86,120.86,0,0,0-13.16,2.57A216,216,0,0,0,465,233.59c-8.35,3.25-16.67,6.81-24.59,10.83l-5.34,2.71,1.79-5.72a62,62,0,0,1,6.65-14.23,93.87,93.87,0,0,1,9.25-12.45,143.45,143.45,0,0,1,10.74-11q5.67-5.17,11.7-9.88a256.56,256.56,0,0,1,25.14-17.25,285.35,285.35,0,0,1,26.79-14.49l1.52,4-9.41,2.42c-3.15.74-6.32,1.4-9.49,2.07s-6.38,1.12-9.58,1.65c-3.22.37-6.41.93-9.65,1.14a121.2,121.2,0,0,1-19.43.27C464.66,173.12,458.08,172.22,452.28,169.32Z"/><circle class="cls-5" cx="439.15" cy="241.75" r="20.07" transform="translate(-42.32 381.33) rotate(-45)"/><circle class="cls-6" cx="439.15" cy="241.75" r="36.11" transform="translate(-44.19 108.8) rotate(-13.45)"/><ellipse class="cls-7" cx="439.07" cy="241.09" rx="8.63" ry="8.82" transform="translate(-21.83 437.24) rotate(-51.82)"/><g class="cls-8"><path class="cls-9" d="M465.61,207.72c-.58-.47-13.32,14.19-28.45,32.74s-26.94,34-26.36,34.46,13.32-14.19,28.46-32.75S466.19,208.19,465.61,207.72Z"/></g><g class="cls-10"><path class="cls-11" d="M462.84,234.22c-.11-.38-11.09,2.49-24.52,6.41s-24.23,7.41-24.12,7.79,11.09-2.49,24.52-6.41S463,234.6,462.84,234.22Z"/><path class="cls-12" d="M445.62,265.64c.38-.11-2.49-11.09-6.41-24.52s-7.41-24.23-7.79-24.12,2.49,11.09,6.41,24.52S445.24,265.75,445.62,265.64Z"/></g><g class="cls-13"><path class="cls-14" d="M470.62,242.19c0-.5-14.35-1.3-32.08-1.78s-32.11-.47-32.12,0,14.35,1.3,32.08,1.78S470.61,242.7,470.62,242.19Z"/><ellipse class="cls-15" cx="438.52" cy="241.32" rx="32.11" ry="0.91" transform="translate(185.36 673.11) rotate(-88.44)"/></g><g class="cls-13"><path class="cls-16" d="M461.89,252.48c.29-.59-9.65-6.07-22.21-12.23s-23-10.69-23.27-10.09,9.65,6.07,22.21,12.23S461.6,253.08,461.89,252.48Z"/><path class="cls-17" d="M427.51,264.06c.74.37,6.34-9.52,12.51-22.08s10.56-23,9.82-23.4-6.35,9.52-12.52,22.08S426.76,263.7,427.51,264.06Z"/></g><g class="cls-10"><path class="cls-18" d="M453.42,228.16c-.2-.23-7,5.47-15.27,12.74s-14.74,13.35-14.53,13.58,7-5.47,15.27-12.74S453.63,228.39,453.42,228.16Z"/><path class="cls-19" d="M451.68,256.22c.23-.2-5.47-7-12.74-15.27s-13.35-14.74-13.58-14.53,5.47,7,12.74,15.27S451.45,256.43,451.68,256.22Z"/></g><circle class="cls-20" cx="380.27" cy="93.89" r="20.07" transform="translate(44.99 296.39) rotate(-45)"/><circle class="cls-21" cx="380.27" cy="93.89" r="36.11" transform="translate(-11.41 91.05) rotate(-13.45)"/><ellipse class="cls-22" cx="380.19" cy="93.24" rx="8.63" ry="8.82" transform="translate(71.91 334.49) rotate(-51.82)"/><g class="cls-8"><path class="cls-23" d="M406.73,59.86c-.57-.47-13.31,14.19-28.45,32.75s-26.93,34-26.35,34.46,13.31-14.19,28.45-32.75S407.31,60.34,406.73,59.86Z"/></g><g class="cls-10"><path class="cls-24" d="M404,86.36c-.11-.38-11.09,2.49-24.52,6.42s-24.23,7.41-24.11,7.79,11.08-2.49,24.51-6.41S404.07,86.74,404,86.36Z"/><path class="cls-25" d="M386.75,117.79c.38-.12-2.49-11.09-6.42-24.52S372.92,69,372.54,69.15,375,80.24,379,93.67,386.37,117.9,386.75,117.79Z"/></g><g class="cls-13"><path class="cls-26" d="M411.74,94.34c0-.5-14.34-1.3-32.07-1.78s-32.11-.47-32.13,0,14.35,1.3,32.08,1.79S411.73,94.84,411.74,94.34Z"/><ellipse class="cls-27" cx="379.64" cy="93.47" rx="32.11" ry="0.91" transform="translate(275.89 470.43) rotate(-88.44)"/></g><g class="cls-13"><path class="cls-28" d="M403,104.63c.29-.59-9.66-6.07-22.22-12.24s-23-10.68-23.27-10.09,9.66,6.07,22.22,12.24S402.72,105.22,403,104.63Z"/><path class="cls-29" d="M368.63,116.21c.75.36,6.35-9.52,12.51-22.08s10.56-23,9.82-23.41-6.35,9.52-12.51,22.09S367.89,115.84,368.63,116.21Z"/></g><g class="cls-10"><path class="cls-30" d="M394.54,80.31c-.2-.23-7,5.47-15.27,12.73s-14.73,13.35-14.53,13.58,7.05-5.46,15.28-12.73S394.75,80.54,394.54,80.31Z"/><path class="cls-31" d="M392.8,108.37c.23-.21-5.47-7.05-12.73-15.28s-13.35-14.73-13.58-14.52,5.46,7,12.73,15.27S392.57,108.57,392.8,108.37Z"/></g><circle class="cls-32" cx="528.19" cy="163.53" r="20.07" transform="translate(39.07 421.38) rotate(-45)"/><circle class="cls-33" cx="528.19" cy="163.53" r="36.11" transform="translate(-23.55 127.37) rotate(-13.45)"/><ellipse class="cls-34" cx="528.11" cy="162.87" rx="8.63" ry="8.82" transform="translate(73.66 477.36) rotate(-51.82)"/><g class="cls-8"><path class="cls-35" d="M554.65,129.5c-.58-.47-13.31,14.19-28.45,32.75s-26.93,34-26.35,34.45S513.16,182.51,528.3,164,555.23,130,554.65,129.5Z"/></g><g class="cls-10"><path class="cls-36" d="M551.88,156c-.11-.38-11.09,2.49-24.52,6.41s-24.23,7.41-24.12,7.79,11.09-2.49,24.52-6.41S552,156.38,551.88,156Z"/><path class="cls-37" d="M534.67,187.42c.38-.11-2.5-11.09-6.42-24.52s-7.41-24.23-7.79-24.12,2.49,11.09,6.41,24.52S534.29,187.53,534.67,187.42Z"/></g><g class="cls-13"><path class="cls-38" d="M559.66,164c0-.5-14.35-1.3-32.07-1.78s-32.11-.46-32.13,0,14.35,1.3,32.08,1.78S559.65,164.48,559.66,164Z"/><ellipse class="cls-39" cx="527.56" cy="163.1" rx="32.11" ry="0.91" transform="translate(350.17 686.03) rotate(-88.44)"/></g><g class="cls-13"><path class="cls-40" d="M550.93,174.26c.29-.59-9.65-6.07-22.21-12.23s-23-10.69-23.27-10.09,9.65,6.07,22.21,12.23S550.64,174.86,550.93,174.26Z"/><path class="cls-41" d="M516.55,185.84c.74.37,6.35-9.52,12.51-22.08s10.56-23,9.82-23.4-6.35,9.52-12.51,22.08S515.81,185.48,516.55,185.84Z"/></g><g class="cls-10"><path class="cls-42" d="M542.46,149.94c-.2-.23-7,5.47-15.27,12.74S512.45,176,512.66,176.26s7-5.47,15.27-12.74S542.67,150.17,542.46,149.94Z"/><path class="cls-43" d="M540.72,178c.23-.2-5.47-7-12.74-15.27S514.64,148,514.4,148.2s5.47,7,12.74,15.27S540.49,178.21,540.72,178Z"/></g><circle class="cls-44" cx="438.43" cy="156.22" r="20.07" transform="translate(17.95 355.77) rotate(-45)"/><circle class="cls-45" cx="438.43" cy="156.22" r="36.11" transform="translate(-24.31 106.29) rotate(-13.45)"/><ellipse class="cls-46" cx="438.35" cy="155.56" rx="8.63" ry="8.82" transform="translate(45.12 404.01) rotate(-51.82)"/><g class="cls-8"><path class="cls-47" d="M464.89,122.19c-.58-.47-13.32,14.19-28.46,32.75s-26.93,34-26.35,34.46,13.32-14.19,28.45-32.75S465.47,122.67,464.89,122.19Z"/></g><g class="cls-10"><path class="cls-48" d="M462.11,148.69c-.11-.38-11.08,2.49-24.51,6.42s-24.23,7.41-24.12,7.79,11.09-2.49,24.52-6.42S462.23,149.07,462.11,148.69Z"/><path class="cls-49" d="M444.9,180.11c.38-.11-2.49-11.09-6.42-24.52s-7.41-24.22-7.79-24.11,2.49,11.09,6.42,24.52S444.52,180.22,444.9,180.11Z"/></g><g class="cls-13"><path class="cls-50" d="M469.9,156.67c0-.5-14.35-1.3-32.08-1.78s-32.11-.47-32.12,0,14.34,1.3,32.07,1.78S469.88,157.17,469.9,156.67Z"/><ellipse class="cls-51" cx="437.8" cy="155.8" rx="32.11" ry="0.91" transform="translate(270.15 589.19) rotate(-88.44)"/></g><g class="cls-13"><path class="cls-52" d="M461.17,167c.29-.59-9.66-6.07-22.22-12.24S416,144,415.68,144.63s9.66,6.07,22.22,12.24S460.88,167.55,461.17,167Z"/><path class="cls-53" d="M426.78,178.54c.75.36,6.35-9.52,12.52-22.08s10.56-23,9.81-23.41-6.34,9.52-12.51,22.08S426,178.17,426.78,178.54Z"/></g><g class="cls-10"><path class="cls-54" d="M452.7,142.64c-.21-.24-7.05,5.47-15.28,12.73S422.69,168.72,422.89,169s7.05-5.47,15.28-12.73S452.9,142.87,452.7,142.64Z"/><path class="cls-55" d="M451,170.7c.24-.21-5.47-7-12.73-15.28s-13.35-14.73-13.58-14.53,5.47,7.05,12.73,15.28S450.72,170.9,451,170.7Z"/></g><rect class="cls-56" x="118.6" y="303.58" width="108.28" height="34.87"/><rect class="cls-57" x="226.87" y="303.62" width="225.84" height="34.79"/><path class="cls-4" d="M139.52,322.62c0,4.4-2.07,8.08-6.85,8.09s-7-3.63-7-8.06l0-13.12H128l0,12.84c0,3.68,1.19,6.31,4.64,6.3s4.51-2.64,4.5-6.32l0-12.84h2.37Z"/><path class="cls-4" d="M152.49,330.36l0-9.16c0-2.87-.89-4.45-3.4-4.44a5.43,5.43,0,0,0-3.63,1.74l0,11.88h-2.3l0-15.16h1.55l.46,1.79a6.38,6.38,0,0,1,4.65-2.11c3.48,0,5,2.12,5,5.9l0,9.56Z"/><path class="cls-4" d="M159.23,330.35l0-13.28-1.64-.33v-1.55h3.87l0,15.16ZM159,309.22h2.45v2.48H159Z"/><path class="cls-4" d="M166.81,323.43c0,3.75,1.89,5.38,4.71,5.37a9.05,9.05,0,0,0,4.6-1.52l.57,1.67a10.53,10.53,0,0,1-5.41,1.68c-4.06,0-6.76-2.74-6.77-8,0-4.79,2.29-7.8,6.34-7.81s5.94,3.42,6,7.23v1.33Zm4-6.78c-2.82,0-4,2.54-4,5.14h7.75C174.55,319.15,173.67,316.64,170.77,316.65Z"/><path class="cls-4" d="M189.16,330.28l0-9.15c0-2.88-.88-4.46-3.4-4.45a5.39,5.39,0,0,0-3.62,1.74l0,11.88h-2.3l0-15.16h1.54l.46,1.79a6.42,6.42,0,0,1,4.66-2.11c3.48,0,5,2.12,5,5.9l0,9.56Z"/><path class="cls-4" d="M204.5,328.42a5.57,5.57,0,0,1-4.26,2.15c-3.51,0-6-2.65-6-7.91,0-4.61,2.22-7.86,6.19-7.87a6.18,6.18,0,0,1,4,1.29,19.5,19.5,0,0,1-.13-2.47V308.9h2.3l0,21.35H204.9Zm-.2-10.76a6.25,6.25,0,0,0-3.61-1.08c-2.78,0-4.11,2.24-4.1,6.08s1.19,6.15,4,6.14a5,5,0,0,0,3.75-1.92Z"/><path class="cls-4" d="M222.31,322.6c0,5.11-2.4,7.93-6.37,7.94s-6.33-2.74-6.34-7.91c0-4.46,2-7.86,6.31-7.87C220,314.75,222.3,318.09,222.31,322.6Zm-2.36,0c0-4-1.31-6.09-4-6.09s-4,2.24-4,6.1,1.07,6.16,4,6.15S220,326.66,220,322.61Z"/><path class="cls-4" d="M240.82,330.48c-5.75,0-8.85-3.88-8.86-10.84,0-6.49,3-10.65,8.81-10.66a12.58,12.58,0,0,1,7,1.75L246.23,314a8.48,8.48,0,0,0-5-1.44c-3.39,0-5.08,2.45-5.07,7,0,4.83,1.71,7.3,5,7.29a9.3,9.3,0,0,0,5.39-1.93l1.28,3.28A11.87,11.87,0,0,1,240.82,330.48Z"/><path class="cls-4" d="M250,330.15l0-21.34h4l0,5.6a6.75,6.75,0,0,1-.39,2.35,5.21,5.21,0,0,1,4.26-2.08c4.24,0,5.42,2.25,5.43,6.08l0,9.38h-4l0-9c0-2.16-.86-3.34-2.64-3.34a4.59,4.59,0,0,0-2.64.94l0,11.45Z"/><path class="cls-4" d="M267.2,330.12l0-12.25-1.72-.37V315h5.66l0,15.16ZM267,308.77h4v3.68h-4Z"/><path class="cls-4" d="M274.27,326.08l0-17.32h3.9l0,17.11c0,1.26.76,1.45,2.39,1.44v2.85a12,12,0,0,1-2.18.25C275.37,330.41,274.28,328.77,274.27,326.08Z"/><path class="cls-4" d="M286,323.58c0,2.41,1.34,3.74,3.82,3.74a9.9,9.9,0,0,0,4.36-1.28l.76,2.84a12,12,0,0,1-5.6,1.5c-4.57,0-7.3-2.89-7.31-7.91,0-4.67,2.19-7.86,6.95-7.87,4.48,0,6.24,3.39,6.25,7.2v1.76Zm2.77-6c-2,0-2.78,1.83-2.78,3.63h5.42C291.45,319.24,290.87,317.57,288.81,317.57Z"/><path class="cls-4" d="M315.13,329a10.51,10.51,0,0,1-4.93,1.34c-3.75,0-6.48-2.25-6.49-7.88,0-5.14,2.74-7.89,6.46-7.9a9.35,9.35,0,0,1,4.84,1.19l-.66,1.68a7.91,7.91,0,0,0-4.06-1c-2.66,0-4.29,2.18-4.28,6,0,4.28,1.65,6.07,4.31,6.06a8.26,8.26,0,0,0,4.27-1.28Z"/><path class="cls-4" d="M329.86,322.37c0,5.11-2.41,7.93-6.37,7.94s-6.34-2.74-6.35-7.91c0-4.45,2-7.86,6.31-7.87S329.85,317.86,329.86,322.37Zm-2.36,0c0-4-1.32-6.09-4-6.09s-4,2.24-4,6.11c0,3.71,1.08,6.15,4,6.14S327.5,326.43,327.5,322.38Z"/><path class="cls-4" d="M342.19,330l0-9.16c0-2.88-.89-4.45-3.4-4.45a5.5,5.5,0,0,0-3.63,1.74l0,11.88h-2.31l0-15.16h1.55l.45,1.79a6.42,6.42,0,0,1,4.66-2.11c3.48,0,5,2.12,5,5.89l0,9.56Z"/><path class="cls-4" d="M353.92,329.93l0-20.88,12.56,0v3.44l-8.6,0v5.13h6.57l-.29,3.59h-6.27v5.35h8.6v3.37Z"/><path class="cls-4" d="M378.23,329.88l0-9c0-2.29-.86-3.37-2.67-3.37a4.74,4.74,0,0,0-2.6.94l0,11.44h-4l0-15.16h2.73l.61,1.73a6.06,6.06,0,0,1,4.68-2.05c3.76,0,5.24,2.24,5.25,6.08l0,9.37Z"/><path class="cls-4" d="M388.38,323.36c0,2.42,1.34,3.74,3.82,3.74a9.81,9.81,0,0,0,4.36-1.28l.76,2.85a12,12,0,0,1-5.6,1.49c-4.57,0-7.3-2.89-7.31-7.9,0-4.67,2.19-7.86,6.95-7.87,4.48,0,6.24,3.39,6.25,7.19v1.76Zm2.77-6c-2,0-2.78,1.83-2.78,3.62h5.42C393.79,319,393.21,317.35,391.15,317.36Z"/><path class="cls-4" d="M408.52,318a6.7,6.7,0,0,0-1.85-.24,4.26,4.26,0,0,0-2.66,1l0,11H400.1l0-15.16h2.75l.43,2h.09a4,4,0,0,1,3.54-2.33,6.16,6.16,0,0,1,1.72.22Z"/><path class="cls-4" d="M423.4,314.63l0,3a10.7,10.7,0,0,1-2.79-.52,4.06,4.06,0,0,1,1.49,2.38c0,3.71-3.59,5.2-6.1,5.21a8.32,8.32,0,0,1-1.91-.28.91.91,0,0,0-.72.84c0,1.64,9.41-.3,9.42,5.39,0,3.56-3.32,5.52-7,5.53-3.12,0-6.27-1.38-6.27-4.17,0-1.95,1.5-3,3.92-3.35-1.84-.21-3.69-.79-3.69-2.56,0-1.26,1.14-2.2,2.81-2.32a4.68,4.68,0,0,1-2.68-4.27c0-4,3.72-5.17,6.11-5.18C417.5,314.33,420.83,314.6,423.4,314.63Zm-8,14.31a2.18,2.18,0,0,0-2.26,2.23c0,1.33,1.18,2.29,2.79,2.28,1.78,0,3-.93,3-2.51C418.84,329.61,417.68,329.12,415.35,328.94Zm3.19-9.48c0-1.79-1.49-2.25-2.64-2.25s-2.66.47-2.66,2.26,1.43,2.38,2.67,2.38S418.54,321.38,418.54,319.46Z"/><path class="cls-4" d="M424.54,312.27l-.4-2.32,7.66-2.21.52,3Zm2.19,17.51,0-12.25-1.72-.37v-2.54h5.66l0,15.16Z"/><path class="cls-4" d="M443,329.74l-.55-1.79a5.26,5.26,0,0,1-4.32,2.11,4.65,4.65,0,0,1-5-4.84c0-2.82,2-4.49,5.6-4.5h3.11v-.77c0-1.95-1.09-2.57-2.61-2.56a10.42,10.42,0,0,0-4.44,1l-1-2.88a14.83,14.83,0,0,1,5.84-1.25c4.21,0,6,2,6,5.84l0,9.62Zm-1.13-6.61H439.4c-1.64,0-2.39.81-2.39,2a2,2,0,0,0,2.21,2.22,4.34,4.34,0,0,0,2.63-1Z"/><circle class="cls-58" cx="300.82" cy="304.22" r="20.07" transform="translate(-127 301.82) rotate(-45)"/><circle class="cls-59" cx="300.82" cy="304.22" r="36.11" transform="translate(-62.52 78.34) rotate(-13.45)"/><ellipse class="cls-60" cx="300.75" cy="303.56" rx="8.63" ry="8.82" transform="translate(-123.77 352.36) rotate(-51.82)"/><g class="cls-8"><path class="cls-61" d="M327.29,270.19c-.58-.47-13.32,14.19-28.46,32.75s-26.93,34-26.35,34.45,13.32-14.19,28.45-32.75S327.87,270.66,327.29,270.19Z"/></g><g class="cls-10"><path class="cls-62" d="M324.51,296.69c-.11-.38-11.08,2.49-24.52,6.41s-24.22,7.41-24.11,7.79,11.09-2.49,24.52-6.41S324.63,297.07,324.51,296.69Z"/><path class="cls-63" d="M307.3,328.11c.38-.11-2.49-11.09-6.42-24.52s-7.41-24.23-7.79-24.12,2.49,11.09,6.42,24.52S306.92,328.22,307.3,328.11Z"/></g><g class="cls-13"><path class="cls-64" d="M332.3,304.66c0-.5-14.35-1.3-32.08-1.78s-32.11-.47-32.12,0,14.34,1.3,32.07,1.78S332.28,305.17,332.3,304.66Z"/><ellipse class="cls-65" cx="300.2" cy="303.79" rx="32.11" ry="0.91" transform="translate(-11.65 595.61) rotate(-88.44)"/></g><g class="cls-13"><path class="cls-66" d="M323.57,315c.29-.59-9.66-6.07-22.22-12.23s-23-10.69-23.27-10.09,9.66,6.07,22.22,12.23S323.28,315.55,323.57,315Z"/><path class="cls-67" d="M289.18,326.53c.75.37,6.35-9.52,12.52-22.08s10.56-23,9.81-23.4-6.34,9.52-12.51,22.08S288.44,326.17,289.18,326.53Z"/></g><g class="cls-10"><path class="cls-68" d="M315.1,290.63c-.21-.23-7.05,5.47-15.28,12.74S285.09,316.72,285.29,317s7-5.47,15.28-12.74S315.3,290.86,315.1,290.63Z"/><path class="cls-69" d="M313.35,318.69c.24-.2-5.47-7-12.73-15.27S287.27,288.68,287,288.89s5.47,7,12.73,15.27S313.12,318.9,313.35,318.69Z"/></g><path class="cls-4" d="M69.92,171.44H62.3v36.05h-23V108.57H73.73c19.78,0,35.46,9.23,35.46,30.19a31.44,31.44,0,0,1-18,28.72l20.22,40h-27Zm0-45H62.3v27.11h7.62c11.13,0,14.65-5.28,14.65-14.8C84.57,130,79.88,126.45,69.92,126.45Z"/><path class="cls-4" d="M169.13,207.49l-3.67-9.09C162.24,202.94,154.76,209,143,209c-18.91,0-26.82-10.26-26.82-30V135.68h23.16V179.5c0,8.94,3.66,11.87,10.84,11.87a21.17,21.17,0,0,0,10.41-2.79v-52.9h23.44v71.81Z"/><path class="cls-4" d="M244.74,203.82A44.28,44.28,0,0,1,224.37,209c-13.49,0-23.45-8.64-23.45-25.79V152.09H190.66V135.68h10.7V123.37L223.93,116v19.64h18.32v16.41H223.93v30.34c0,4.25,2,6.74,6.59,6.74a25.58,25.58,0,0,0,10.85-2.49Z"/><path class="cls-4" d="M297.78,207.49l-2.93-8.21c-3.37,4.84-10.4,9.67-20.37,9.67-14.21,0-24.62-9.08-24.62-23.59,0-13.78,10.26-21.54,28-21.54h13.34v-2.64c0-7.62-5.13-9.38-10.85-9.38A51,51,0,0,0,259,156.49l-5.72-16.42a76.71,76.71,0,0,1,29.31-5.86c22.13,0,31.07,9.67,31.07,28.58v44.7Zm-6.59-30.34H282c-6.16,0-9.38,2.93-9.38,7.62,0,5.57,3.08,8.65,8.64,8.65a21.11,21.11,0,0,0,10-2.93Z"/><path class="cls-4" d="M178,236.47a21.41,21.41,0,0,1-.85-6.39V219.57h9.22v49h-7.52l-1.06-3.83a11.27,11.27,0,0,1-9.23,4.54c-7.88,0-14.2-5.68-14.2-18.1,0-11.5,6.53-18.1,15-18.1A11.31,11.31,0,0,1,178,236.47Zm-.85,5.25a12.43,12.43,0,0,0-6.32-1.7c-4.4,0-7.17,3-7.17,11.07,0,8.3,2.63,11.43,7,11.43a9.21,9.21,0,0,0,6.46-3Z"/><path class="cls-4" d="M201.67,253.64c0,5.54,3.13,8.59,9,8.59a23.3,23.3,0,0,0,10.22-2.91l1.78,6.53a28.48,28.48,0,0,1-13.14,3.41c-10.72,0-17.11-6.67-17.11-18.17,0-10.72,5.19-18,16.33-18,10.51,0,14.62,7.81,14.62,16.54v4Zm6.54-13.77c-4.62,0-6.54,4.19-6.54,8.31h12.71C214.38,243.71,213,239.87,208.21,239.87Z"/><path class="cls-4" d="M244.05,259.32V219.57h9.16v39.26c0,2.91,1.77,3.33,5.6,3.33v6.53a28.87,28.87,0,0,1-5.11.57C246.6,269.26,244.05,265.5,244.05,259.32Z"/><path class="cls-4" d="M285.29,268.55,284,264.43a12.44,12.44,0,0,1-10.15,4.83c-6.95,0-11.64-4.47-11.64-11.14,0-6.46,4.76-10.3,13.13-10.3h7.31v-1.77c0-4.47-2.55-5.89-6.1-5.89a25.13,25.13,0,0,0-10.44,2.34l-2.34-6.6a35.15,35.15,0,0,1,13.7-2.84c9.87,0,14.13,4.54,14.13,13.42v22.07Zm-2.63-15.19h-5.75c-3.83,0-5.6,1.85-5.6,4.47,0,3.2,1.7,5.11,5.18,5.11a10.35,10.35,0,0,0,6.17-2.34Z"/></g></g></svg>